<?xml version="1.0" encoding="utf-8"?>
<!-- Generator: Adobe Illustrator 19.0.0, SVG Export Plug-In . SVG Version: 6.00 Build 0)  -->
<svg version="1.1" id="Слой_1" xmlns="http://www.w3.org/2000/svg" xmlns:xlink="http://www.w3.org/1999/xlink" x="0px" y="0px"
	 viewBox="42 -106 384 512" style="enable-background:new 42 -106 384 512;" xml:space="preserve">
<style type="text/css">
	.st0{fill:#FFFFFF;}
</style>
<g>
	<path class="st0" d="M239,406c-3.3,0-6.7,0-10,0c-11.9-3.7-20.4-11.8-28.1-21.2c-10-12.3-20.5-24-30.6-36.2
		c-32.6-39.5-63.3-80.3-87.8-125.4c-17-31.4-30.6-64.2-36.9-99.6c-1.5-8.5-2.4-17-3.6-25.6c0-8,0-16,0-24c1-6.9,1.9-13.8,3-20.6
		C57.4-23.9,119.3-87.5,196-102c8.6-1.6,17.4-2.7,26-4c8,0,16,0,24,0c6.9,1,13.8,1.9,20.6,3C344-90.5,407.3-29,422,48
		c1.6,8.6,2.7,17.3,4,26c0,8,0,16,0,24c-0.3,1.6-0.7,3.2-1,4.8c-2.9,15.7-4.8,31.6-9,46.9c-11.2,41.2-31.6,78.2-54.7,113.7
		c-28,42.9-60.6,82.2-93.9,121C259.4,393.7,251.1,402.3,239,406z M233.7,374.1c1.7-1.6,2.8-2.5,3.8-3.6c23-27.9,46.6-55.3,68.8-83.8
		c28.3-36.5,53.1-75.4,70.3-118.6c12.6-31.6,20.2-64.1,16.7-98.4c-8-77.5-71-139.2-148.9-143.3C181.5-77,132-51.1,98,2
		C71.5,43.4,68.3,88.7,80.6,135.6c9.5,35.9,26.1,68.6,45.6,100c27.7,44.6,61,84.9,95.2,124.5C225.3,364.6,229.3,369,233.7,374.1z"/>
	<path class="st0" d="M329.9,82.1c-0.1,52.6-43.2,95.7-95.8,95.7c-52.8,0-96-43.2-96-96.1c0.1-52.9,43.3-95.8,96.3-95.7
		C287-13.7,329.9,29.4,329.9,82.1z M233.9,1.8c-44.2,0-80,35.9-80,80.1s35.9,80.1,80,80.2c44.4,0.1,80.3-35.9,80.3-80.4
		C314.1,37.5,278.2,1.8,233.9,1.8z"/>
</g>
</svg>
