<!-- icon666.com - MILLIONS vector ICONS FREE --><svg id="Layer_1" viewBox="0 0 512 512" xmlns="http://www.w3.org/2000/svg"><g><g><path d="m256.171 489.888c-1.216 0-2.433-.296-3.538-.887-1.632-.873-40.433-21.778-79.854-55.871-23.31-20.158-41.923-40.739-55.324-61.17-17.09-26.057-25.755-52-25.755-77.11v-190.873c-.13-.343-.236-.699-.315-1.066-.749-3.448 1.007-6.952 4.218-8.416l157.286-71.706c1.977-.901 4.246-.901 6.223 0l157.286 71.706c3.172 1.446 4.924 4.882 4.244 8.29v192.065c0 25.11-8.665 51.054-25.755 77.11-13.401 20.431-32.015 41.012-55.324 61.17-39.422 34.093-78.222 54.998-79.854 55.871-1.105.591-2.322.887-3.538.887zm-149.471-383.968v188.93c0 89.426 126.512 165.823 149.471 178.944 22.958-13.121 149.471-89.519 149.471-178.944v-188.774l-149.642-68.221z"></path></g><g><g><path d="m246.67 370.53c-6.451 0-11.7-5.249-11.7-11.7v-7.061c-11.318-2.479-22.16-6.967-31.899-13.204l-4.988 4.988c-4.559 4.559-11.978 4.559-16.536 0l-13.202-13.212c-4.555-4.555-4.555-11.969.002-16.525l4.988-4.987c-6.237-9.74-10.726-20.583-13.204-31.899h-7.07c-6.446 0-11.69-5.248-11.69-11.699v-9.331c0-4.142 3.358-7.5 7.5-7.5s7.5 3.358 7.5 7.5v6.03h10c3.713 0 6.867 2.717 7.417 6.389 2 13.346 7.288 26.12 15.292 36.941 2.208 2.985 1.899 7.138-.727 9.763l-7.058 7.059 8.521 8.526 7.061-7.062c2.626-2.624 6.778-2.934 9.764-.726 10.819 8.004 23.594 13.292 36.941 15.293 3.672.55 6.388 3.704 6.388 7.417v10h12.06v-10c0-3.713 2.717-6.867 6.389-7.417 13.356-2.001 26.129-7.288 36.938-15.291 2.986-2.213 7.14-1.903 9.767.725l7.062 7.062 8.529-8.529-7.061-7.068c-2.623-2.626-2.932-6.775-.725-9.76 7.996-10.813 13.284-23.589 15.293-36.946.553-3.67 3.706-6.385 7.417-6.385h9.99v-6.02c0-4.142 3.357-7.5 7.5-7.5s7.5 3.358 7.5 7.5v9.331c0 6.445-5.244 11.689-11.689 11.689h-7.063c-2.483 11.322-6.972 22.165-13.204 31.901l4.993 4.998c4.554 4.554 4.554 11.968-.002 16.524l-13.21 13.21c-4.545 4.542-11.954 4.552-16.521.017l-5.003-5.004c-9.735 6.237-20.578 10.726-31.9 13.204v7.06c0 6.422-5.229 11.67-11.655 11.7h-18.705z"></path></g><g><path d="m255.995 317.823c-15.865.001-31.728-6.035-43.807-18.108-11.703-11.703-18.148-27.263-18.148-43.815 0-4.142 3.358-7.5 7.5-7.5s7.5 3.358 7.5 7.5c0 12.545 4.884 24.338 13.753 33.207 18.311 18.304 48.105 18.3 66.413-.01 8.869-8.869 13.754-20.659 13.754-33.197 0-4.142 3.357-7.5 7.5-7.5s7.5 3.358 7.5 7.5c0 16.544-6.444 32.1-18.146 43.803-12.081 12.08-27.951 18.12-43.819 18.12z"></path></g></g><g><path d="m368.523 234.241c-3.925 0-7.225-3.052-7.478-7.023-2.553-39.989-27.109-74.544-64.087-90.18-5.101-2.16-10.399-3.916-15.754-5.221-4.024-.98-6.492-5.038-5.512-9.062.981-4.024 5.038-6.493 9.063-5.511 6.139 1.496 12.211 3.508 18.049 5.98 20.312 8.589 37.889 22.62 50.828 40.574 13.204 18.323 20.943 39.923 22.382 62.465.265 4.133-2.873 7.698-7.007 7.962-.161.01-.323.016-.484.016z"></path></g><g><path d="m143.487 234.241c-.161 0-.322-.005-.485-.016-4.134-.264-7.271-3.829-7.007-7.962 1.438-22.546 9.178-44.149 22.383-62.473 12.938-17.955 30.516-31.983 50.833-40.569 5.833-2.46 11.895-4.47 18.02-5.975 4.025-.989 8.085 1.471 9.073 5.493.989 4.022-1.471 8.085-5.493 9.073-5.359 1.317-10.664 3.076-15.766 5.228-36.972 15.624-61.528 50.178-64.08 90.177-.254 3.972-3.554 7.024-7.478 7.024z"></path></g><g><g><path d="m268.808 199.328h-25.613c-6.543 0-12.353-5.08-13.226-11.565l-8.525-63.313c-.467-3.473.556-6.94 2.807-9.515s5.552-4.051 9.056-4.051h45.392c3.504 0 6.805 1.477 9.056 4.051s3.274 6.042 2.807 9.514l-8.526 63.314c-.876 6.485-6.685 11.565-13.228 11.565zm-24.167-15h22.719l7.871-58.444h-38.46z"></path></g><g><path d="m268.808 199.328h-25.613c-6.543 0-12.353-5.08-13.226-11.565l-8.525-63.313c-.467-3.473.556-6.94 2.807-9.515s5.552-4.051 9.056-4.051h45.392c3.504 0 6.805 1.477 9.056 4.051s3.274 6.042 2.807 9.514l-8.526 63.314c-.876 6.485-6.685 11.565-13.228 11.565zm-24.167-15h22.719l7.871-58.444h-38.46z"></path></g></g><g><path d="m365.41 263.396h-218.818c-12.265 0-22.243-9.979-22.243-22.245 0-12.265 9.978-22.244 22.243-22.244h218.818c12.266 0 22.244 9.979 22.244 22.244 0 12.266-9.978 22.245-22.244 22.245zm-218.818-29.489c-3.994 0-7.243 3.25-7.243 7.244 0 3.995 3.25 7.245 7.243 7.245h218.818c3.994 0 7.244-3.25 7.244-7.245 0-3.994-3.25-7.244-7.244-7.244z"></path></g><g><path d="m220.425 199.329c-3.698 0-6.917-2.734-7.424-6.5l-8.308-61.703c-.553-4.105 2.327-7.881 6.432-8.434 4.109-.555 7.881 2.327 8.434 6.432l8.308 61.703c.553 4.105-2.327 7.881-6.432 8.434-.339.046-.677.068-1.01.068z"></path></g><g><path d="m291.575 199.329c-.334 0-.671-.022-1.011-.068-4.105-.553-6.984-4.329-6.432-8.434l8.31-61.703c.553-4.105 4.335-6.982 8.434-6.432 4.105.553 6.984 4.329 6.432 8.434l-8.31 61.703c-.507 3.765-3.726 6.5-7.423 6.5z"></path></g></g></svg>