<svg id="Слой_1" xmlns="http://www.w3.org/2000/svg" viewBox="0 0 157.417 227.654"><style>.st0{fill-rule:evenodd;clip-rule:evenodd;fill:#e1ad3d}</style><path class="st0" d="M46.562 172.131L47.899 175l6.611 14.191-1.37-15.595-.277-3.15 2.034 2.425 10.058 11.996-5.359-14.709-1.082-2.972 2.592 1.816 12.821 8.984-8.983-12.821-1.815-2.591 2.974 1.084 14.708 5.359-11.995-10.059-2.423-2.033 3.153.277 15.595 1.37-14.19-6.611-2.867-1.336 3.117-.548 15.418-2.713-15.418-2.713-3.115-.549 2.869-1.337 14.191-6.611-15.595 1.369-3.151.277 2.425-2.034 11.996-10.058-14.709 5.359-2.972 1.082 1.816-2.592 8.984-12.821-12.821 8.983-2.59 1.815 1.084-2.974 5.359-14.709-10.059 11.996-2.033 2.423.277-3.153 1.37-15.595-6.611 14.19-1.336 2.867-.549-3.117-2.713-15.417-2.713 15.417-.548 3.115-1.337-2.87-6.611-14.19 1.37 15.595.277 3.151-2.034-2.425-10.058-11.996 5.359 14.709 1.083 2.972-2.592-1.816-12.821-8.984 8.983 12.821 1.815 2.591-2.974-1.083-14.709-5.36 11.996 10.059 2.423 2.032-3.153-.277-15.595-1.37 14.19 6.612 2.867 1.336-3.117.549L0 147.345l15.418 2.714 3.115.548-2.869 1.337-14.19 6.611 15.595-1.37 3.151-.277-2.426 2.034-11.996 10.059 14.709-5.359 2.972-1.082-1.816 2.592-8.983 12.821 12.821-8.983 2.591-1.815-1.083 2.974-5.36 14.708 10.059-11.995 2.033-2.423-.277 3.153-1.37 15.595 6.611-14.19 1.336-2.867.549 3.117 2.713 15.418 2.713-15.418.546-3.116zm-21.774-24.777c0-10.227 8.294-18.521 18.521-18.521s18.521 8.294 18.521 18.521-8.294 18.521-18.521 18.521-18.521-8.294-18.521-18.521zM43.59 0c-.094 0-.187.003-.281.003V28.39c.094 0 .187-.003.281-.003 47.179 0 85.44 38.261 85.44 85.44 0 4.859-.413 9.62-1.192 14.257C125.696 83.415 88.789 47.84 43.59 47.84c-.094 0-.187.003-.281.003V68.88c.094 0 .187-.004.281-.004 34.96 0 63.313 28.353 63.313 63.313a63.041 63.041 0 0 1-5.895 26.695 58.765 58.765 0 0 0 1.127-11.466c0-32.326-26.218-58.544-58.545-58.544-.094 0-.187.003-.281.003v14.601c.094-.001.187-.004.281-.004 24.265 0 43.944 19.679 43.944 43.944 0 24.265-19.679 43.944-43.944 43.944-.094 0-.187-.003-.281-.003v36.291c.094 0 .187.003.281.003 62.852 0 113.827-50.975 113.827-113.827C157.417 50.975 106.442 0 43.59 0z"/></svg>