<?xml version="1.0" encoding="utf-8"?>
<!-- Generator: Adobe Illustrator 19.0.0, SVG Export Plug-In . SVG Version: 6.00 Build 0)  -->
<svg version="1.1" id="Слой_1" xmlns="http://www.w3.org/2000/svg" xmlns:xlink="http://www.w3.org/1999/xlink" x="0px" y="0px"
	 viewBox="0 0 50 50" style="enable-background:new 0 0 50 50;" xml:space="preserve">
<style type="text/css">
	.st0{fill:#FFFFFF;}
</style>
<g>
	<path class="st0" d="M0,25c0.1-0.3,0.3-0.7,0.4-1c1.4-3.4,3.3-6.4,5.8-9.1c2.1-2.2,4.5-4.1,7.2-5.6c2.2-1.2,4.5-2.1,7-2.6
		c1.9-0.4,3.8-0.6,5.8-0.5c2,0.1,4,0.5,6,1.1c3.6,1.1,6.7,3,9.6,5.4c2.3,2,4.3,4.4,5.9,7.1c0.9,1.6,1.7,3.2,2.4,5c0,0,0,0.1,0.1,0.1
		c0,0,0,0,0,0c0,0.1-0.1,0.1-0.1,0.2c-1.5,3-3.5,5.7-6,8c-2.2,2.1-4.7,3.7-7.4,5c-1.8,0.8-3.6,1.4-5.5,1.8c-1,0.2-2,0.4-3,0.5
		c-1.7,0.2-3.4,0.2-5.1,0.1c-2.1-0.2-4.2-0.5-6.2-1.2c-3.5-1.1-6.7-2.9-9.5-5.2c-3-2.5-5.3-5.5-7.1-8.9C0.1,25.1,0,25.1,0,25
		C0,25,0,25,0,25z M25,37.5c1,0,2-0.1,3-0.2c1.1-0.2,2.2-0.4,3.2-0.7c1.8-0.5,3.5-1.3,5.1-2.3c2-1.2,3.7-2.7,5.1-4.5
		c1.1-1.4,1.9-2.9,2.4-4.6c0-0.1,0-0.2,0-0.3c-0.3-1.3-0.9-2.5-1.6-3.6c-1.2-1.8-2.7-3.4-4.5-4.7c-3.1-2.2-6.5-3.5-10.2-4
		c-1.4-0.2-2.8-0.2-4.2-0.1c-1.3,0.1-2.5,0.3-3.7,0.7c-2,0.6-4,1.4-5.8,2.5c-2,1.2-3.7,2.7-5.1,4.6c-1,1.4-1.8,2.9-2.3,4.5
		c0,0.1,0,0.2,0,0.3c0.3,1.3,0.9,2.5,1.7,3.7c1.2,1.8,2.7,3.3,4.4,4.6c2.6,1.9,5.4,3.1,8.5,3.7C22.2,37.4,23.6,37.5,25,37.5z"/>
	<path class="st0" d="M16.1,22.3c1.2,2,2.9,3,5.2,2.6c1.9-0.5,3.2-1.7,3.6-3.6c0.5-2.3-0.5-4.1-2.6-5.2c3.4-1.1,7.8-0.1,10.4,3.6
		c2.5,3.6,2.1,8.6-0.9,11.8c-3.2,3.3-8.1,3.8-11.8,1.4C16.2,30.5,14.8,26,16.1,22.3z"/>
</g>
</svg>
