<?xml version="1.0" encoding="utf-8"?>
<!-- Generator: Adobe Illustrator 19.0.0, SVG Export Plug-In . SVG Version: 6.00 Build 0)  -->
<svg version="1.1" id="Warstwa_1" xmlns="http://www.w3.org/2000/svg" xmlns:xlink="http://www.w3.org/1999/xlink" x="0px" y="0px"
	 viewBox="-148.5 348.3 103.1 143.7" style="enable-background:new -148.5 348.3 103.1 143.7;" xml:space="preserve">
<style type="text/css">
	.st0{fill:#FFFFFF;}
</style>
<g>
	<path class="st0" d="M-118.2,424.5c7.8,3.5,19.8,4.1,20.3,4.1c0.2,0,0.5,0,0.7,0l0.2,0l0.9,0c0.5,0,12.4-0.7,20.3-4.1
		c0.5-0.2,1.7-0.9,1.8-3.8c0-0.5-0.4-11.5-3.9-16.7c-0.1-0.2-1.1-1.6-3.8-2.6c-3.8-1.2-7.4-2.9-7.7-3.7l-0.3-1.3
		c1.3-1.8,2.3-3.9,2.7-5.9c0.3-0.3,0.7-0.9,0.8-1.8c0.3-1.2,0.6-2.8,0-3.6c0,0,0,0-0.1-0.1c0.5-2,1.3-6.4-1.3-9.3
		c-0.1-0.1-1.5-2-4.7-3c0,0,0,0,0,0c-0.1-0.1-0.1-0.1-0.2-0.2l-2.3-1.6l-0.1-0.1c0-0.1,0-0.1,0-0.2l-2.2-0.8l-0.4,0.2
		c-0.3,0.2-0.8,0.6-1.3,1.2c-0.7-0.2-1.7,0.1-1.7,0.1c-0.2,0.1-5,2.2-6.4,6.6c-0.1,0.2-0.8,2,0,6.8c-0.1,0.1-0.2,0.2-0.3,0.3
		c-0.6,0.8-0.4,2.4,0,3.6c0.2,0.9,0.5,1.5,0.8,1.8c0.3,2.1,1.2,4.1,2.4,5.8l-0.4,1.4c-0.2,0.8-3.8,2.5-7.7,3.7
		c-2.6,0.9-3.6,2.4-3.7,2.6c-3.5,5.2-3.9,16.2-3.9,16.7C-119.9,423.6-118.6,424.3-118.2,424.5z M-97.1,400.8c1.9,0,3.8-0.9,5.3-2.2
		c-1,2-2.9,5-5.1,5h-0.1l0,0c-2.3,0-4.3-3.1-5.2-5.1C-100.7,399.9-98.9,400.8-97.1,400.8z M-97,427.6L-97,427.6L-97,427.6L-97,427.6
		z"/>
	<path class="st0" d="M-64.6,354.1v-5.7h-11.2v5.7h-42.4v-5.7h-11.2v5.7h-19.2V492h103.1V354.1H-64.6z M-118.2,368.7v-7.4h42.4v7.4
		h11.2v-7.4h11.9l0,123.4h-88.6V361.4h11.9v7.4H-118.2z"/>
	<rect x="-131.1" y="467" class="st0" width="55.5" height="7.3"/>
	<rect x="-131.1" y="435.8" class="st0" width="71.3" height="7.3"/>
	<rect x="-131.1" y="446.5" class="st0" width="66" height="7.3"/>
	<rect x="-131.1" y="456.8" class="st0" width="60.8" height="7.3"/>
</g>
</svg>
