<?xml version="1.0" encoding="utf-8"?>
<!-- Generator: Adobe Illustrator 19.0.0, SVG Export Plug-In . SVG Version: 6.00 Build 0)  -->
<svg version="1.1" id="Слой_1" xmlns="http://www.w3.org/2000/svg" xmlns:xlink="http://www.w3.org/1999/xlink" x="0px" y="0px"
	 viewBox="250 -250 550.5 550" style="enable-background:new 250 -250 550.5 550;" xml:space="preserve">
<style type="text/css">
	.st0{fill:#FFFFFF;}
</style>
<g id="Слой_3">
</g>
<g id="Слой_2">
	<path class="st0" d="M250,300v-550h550.5v550H250z M758.8,255.3v-460.6H291.5v460.6H758.8L758.8,255.3z"/>
	<polygon class="st0" points="470.1,123.6 470.1,73.8 577,73.8 577,212.7 470.8,212.7 470.8,168.7 540,168.7 540,123.6 	"/>
	<path class="st0" d="M349.6,212.7V123h-20.7V73.9h20.7V28.3l117.2-79.4v-111.6H580v112l119.6,79.3v45.1h21.9v51.9h-21.8v87H592.8
		V73.9h64.3v-19L538.6-22.8v-76.5H508v76.5L391.5,54.8v19.1h64v138.8H349.6z M418.8,168.9v-45.3h-27.5v45.3H418.8z M628.9,168.9
		h28.2v-45.3h-28.2L628.9,168.9L628.9,168.9z"/>
</g>
</svg>
