<?xml version="1.0" encoding="utf-8"?>
<!-- Generator: Adobe Illustrator 19.0.0, SVG Export Plug-In . SVG Version: 6.00 Build 0)  -->
<svg version="1.1" id="Слой_1" xmlns="http://www.w3.org/2000/svg" xmlns:xlink="http://www.w3.org/1999/xlink" x="0px" y="0px"
	 viewBox="90.4 -47.3 299.9 215.6" style="enable-background:new 90.4 -47.3 299.9 215.6;" xml:space="preserve">
<style type="text/css">
	.st0{fill:#2E354E;}
</style>
<g>
	<path class="st0" d="M90.4,122.5c0-41.4,0-82.8,0-124.2c0.2-0.4,0.5-0.9,0.5-1.3c2.9-23.9,23.7-44.7,52-44.3c8.2,0.1,16.4,0,24.6,0
		c56.9,0,113.8,0,170.8,0c29.8,0,52,22.3,52,52.1c0,37.2,0.1,74.4,0,111.6c0,29.2-22,51.6-51.1,51.7c-65.9,0.2-131.8,0.2-197.7,0
		c-24.2-0.1-43.8-15.8-49.7-39.1C91.3,126.8,90.9,124.7,90.4,122.5z M359.1,137.8c-28.5-26.1-56.8-52.1-85.1-78
		c-5.8,3.6-11.2,7.1-16.7,10.4c-7.3,4.4-15.1,6.6-23.5,3.7c-4-1.4-8-3.1-11.8-5.1c-5.1-2.7-10.1-5.9-15.2-9
		c-28.4,26-56.7,52-85.1,78c6,5.8,13,8,20.8,8c65.2,0,130.5,0,195.7,0C345.9,145.8,353,143.6,359.1,137.8z M125.7-20.2
		c0.8,0.5,1.3,1,1.9,1.3c34.9,22.8,69.7,45.6,104.5,68.4c5.8,3.8,11.2,3.5,16.9-0.2c34.5-22.7,69-45.2,103.5-67.8
		c0.8-0.5,1.6-1.1,2.5-1.7c-0.6-0.4-1-0.7-1.4-0.9c-5-3-10.6-3.9-16.3-3.9c-40.2,0-80.4-0.2-120.6-0.1c-24.9,0-49.8,0.2-74.7,0.6
		C136.5-24.5,130.6-24.6,125.7-20.2z M113-1.7c0,39.3,0,78,0,117.2c25-22.9,49.6-45.5,74.6-68.3C162.9,30.9,138.3,14.8,113-1.7z
		 M367.8,115.5C369,104.1,368.3,1.7,367-1.2c-24.6,16.1-49.1,32.1-73.9,48.3C318.1,70,342.7,92.6,367.8,115.5z"/>
</g>
</svg>
