<?xml version="1.0" encoding="utf-8"?>
<!-- Generator: Adobe Illustrator 19.0.0, SVG Export Plug-In . SVG Version: 6.00 Build 0)  -->
<svg version="1.1" id="Слой_1" xmlns="http://www.w3.org/2000/svg" xmlns:xlink="http://www.w3.org/1999/xlink" x="0px" y="0px"
	 viewBox="0 0 300 300" style="enable-background:new 0 0 300 300;" xml:space="preserve">
<style type="text/css">
	.st0{fill:#FFFFFF;}
</style>
<g>
	<path class="st0" d="M0.4,212.5c0-41.4,0-82.8,0-124.2c0.2-0.4,0.5-0.9,0.5-1.3c2.9-23.9,23.7-44.7,52-44.3c8.2,0.1,16.4,0,24.6,0
		c56.9,0,113.8,0,170.8,0c29.8,0,52,22.3,52,52.1c0,37.2,0.1,74.4,0,111.6c0,29.2-22,51.6-51.1,51.7c-65.9,0.2-131.8,0.2-197.7,0
		C27.3,258,7.7,242.3,1.8,219C1.3,216.8,0.9,214.7,0.4,212.5z M269.1,227.8c-28.5-26.1-56.8-52.1-85.1-78
		c-5.8,3.6-11.2,7.1-16.7,10.4c-7.3,4.4-15.1,6.6-23.5,3.7c-4-1.4-8-3.1-11.8-5.1c-5.1-2.7-10.1-5.9-15.2-9
		c-28.4,26-56.7,52-85.1,78c6,5.8,13,8,20.8,8c65.2,0,130.5,0,195.7,0C255.9,235.8,263,233.6,269.1,227.8z M35.7,69.8
		c0.8,0.5,1.3,1,1.9,1.3c34.9,22.8,69.7,45.6,104.5,68.4c5.8,3.8,11.2,3.5,16.9-0.2c34.5-22.7,69-45.2,103.5-67.8
		c0.8-0.5,1.6-1.1,2.5-1.7c-0.6-0.4-1-0.7-1.4-0.9c-5-3-10.6-3.9-16.3-3.9c-40.2,0-80.4-0.2-120.6-0.1c-24.9,0-49.8,0.2-74.7,0.6
		C46.5,65.5,40.6,65.4,35.7,69.8z M23,88.3c0,39.3,0,78,0,117.2c25-22.9,49.6-45.5,74.6-68.3C72.9,120.9,48.3,104.8,23,88.3z
		 M277.8,205.5c1.2-11.4,0.5-113.8-0.8-116.7c-24.6,16.1-49.1,32.1-73.9,48.3C228.1,160,252.7,182.6,277.8,205.5z"/>
</g>
</svg>
