<?xml version="1.0" encoding="utf-8"?>
<!-- Generator: Adobe Illustrator 19.0.0, SVG Export Plug-In . SVG Version: 6.00 Build 0)  -->
<svg version="1.1" id="Capa_1" xmlns="http://www.w3.org/2000/svg" xmlns:xlink="http://www.w3.org/1999/xlink" x="0px" y="0px"
	 viewBox="143 -187 601 495" style="enable-background:new 143 -187 601 495;" xml:space="preserve">
<style type="text/css">
	.st0{fill:#2E354E;}
</style>
<g>
	<path class="st0" d="M181.2,252.5c0,13,12.6,23.5,28.1,23.5s28.1-10.5,28.1-23.5c0-8.4-5.4-16.2-14-20.3c-4.3-2.1-9.1-3.2-14.1-3.2
		C193.8,229,181.2,239.5,181.2,252.5z M219.5,252.5c0,4.7-4.6,8.5-10.2,8.5c-5.6,0-10.2-3.8-10.2-8.5s4.6-8.5,10.2-8.5
		c1.8,0,3.5,0.4,5.1,1.1C217.5,246.7,219.5,249.5,219.5,252.5z"/>
	<path class="st0" d="M285.8,276c15.5,0,28.1-10.5,28.1-23.5c0-8.4-5.4-16.2-14-20.3c-4.3-2.1-9.1-3.2-14.1-3.2
		c-15.5,0-28.1,10.5-28.1,23.5S270.3,276,285.8,276z M285.8,244c1.8,0,3.5,0.4,5.1,1.1c3.1,1.5,5.1,4.3,5.1,7.4
		c0,4.7-4.6,8.5-10.2,8.5s-10.2-3.8-10.2-8.5S280.2,244,285.8,244z"/>
	<path class="st0" d="M362.3,276c15.5,0,28.1-10.5,28.1-23.5c0-8.4-5.4-16.2-14-20.3c-4.3-2.1-9.1-3.2-14.1-3.2
		c-15.5,0-28.1,10.5-28.1,23.5S346.8,276,362.3,276z M362.3,244c1.8,0,3.5,0.4,5.1,1.1c3.1,1.5,5.1,4.3,5.1,7.4
		c0,4.7-4.6,8.5-10.2,8.5s-10.2-3.8-10.2-8.5S356.7,244,362.3,244z"/>
	<path class="st0" d="M438.7,276c15.5,0,28.1-10.5,28.1-23.5c0-8.4-5.4-16.2-14-20.3c-4.3-2.1-9.1-3.2-14.1-3.2
		c-15.5,0-28.1,10.5-28.1,23.5S423.2,276,438.7,276z M438.7,244c1.8,0,3.5,0.4,5.1,1.1c3.1,1.5,5.1,4.3,5.1,7.4
		c0,4.7-4.6,8.5-10.2,8.5s-10.2-3.8-10.2-8.5S433.1,244,438.7,244z"/>
	<path class="st0" d="M218.9,124h9.6c4.9,0,9-3.4,9-7.5s-4-7.5-9-7.5h-9.6c-4.9,0-9,3.4-9,7.5S213.9,124,218.9,124z"/>
	<path class="st0" d="M218.9,148h9.6c4.9,0,9-3.4,9-7.5s-4-7.5-9-7.5h-9.6c-4.9,0-9,3.4-9,7.5S213.9,148,218.9,148z"/>
	<path class="st0" d="M740.2,72.7l-152.4-241c-5.9-11-19.1-18.7-34.4-18.7c-12.8,0-24.2,5.4-31,13.6c0,0,0,0,0,0L376.6-10.7
		c-2-0.2-4.1-0.3-6.1-0.3h-65.6c-26,0-47.2,17.7-47.2,39.5V77h-57.9c-15.5,0-28.1,10.5-28.1,23.5v56c0,13,12.6,23.5,28.1,23.5h66.9
		h10.2v17h-67.5c-36.6,0-66.3,24.9-66.3,55.5s29.7,55.5,66.3,55.5h229.4c36.6,0,66.3-24.9,66.3-55.5S475.3,197,438.7,197h-67.5v-17
		h77.1c4.9,0,9-3.4,9-7.5V148l10.2,0c0.1,0,0.2,0,0.4,0c0.2,0,0.4,0,0.6,0c0.1,0,0.2,0,0.3,0c0.2,0,0.4,0,0.6-0.1
		c0.2,0,0.3-0.1,0.5-0.1c0.1,0,0.3,0,0.4-0.1c0.1,0,0.2-0.1,0.3-0.1c0.2-0.1,0.4-0.1,0.5-0.2c0,0,0,0,0.1,0c0.5-0.2,1-0.4,1.5-0.7
		c0.1-0.1,0.2-0.1,0.3-0.2c0.1-0.1,0.2-0.1,0.4-0.2c0.1-0.1,0.2-0.2,0.4-0.3c0.1-0.1,0.2-0.1,0.3-0.2c0.1-0.1,0.2-0.1,0.2-0.2
		c0.1-0.1,0.2-0.2,0.3-0.3c0,0,0.1-0.1,0.1-0.1c0.1-0.1,0.3-0.3,0.4-0.5c0.1-0.1,0.1-0.1,0.2-0.2c0.1-0.1,0.2-0.3,0.3-0.4
		c0.5-0.8,0.8-1.6,1-2.5c0.1-0.3,0.1-0.7,0.1-1v-28.6c0-14.2-5-27.9-14.3-39.7l-14.2-17.8l98.4-138.3L691.7,96.3
		c3.4,4.9,8.8,8.6,15.3,10.5v12.4l-2.6-5.4c-0.9-1.8-2.6-3.3-4.8-4.1c-2.2-0.8-4.7-0.8-6.9-0.1l-122.5,41.2l-21.1-14.6
		c-3.8-2.6-9.5-2.2-12.6,1c-3.1,3.2-2.6,7.9,1.2,10.6l66.1,45.6c12.1,8.3,27,12.7,42.2,12.7c8.3,0,16.7-1.3,24.7-4l30.5-10.3
		c13.1-4.4,21.7-14.4,23.3-25.4c0.2-0.6,0.3-1.2,0.3-1.9v-57.7C736,103.6,744,94.8,744,84.5C744,80.2,742.6,76.2,740.2,72.7z
		 M257.7,165h-57.9c-5.6,0-10.2-3.8-10.2-8.5v-56c0-4.7,4.6-8.5,10.2-8.5h57.9V165z M694.6,177.9l-30.5,10.3
		c-16.4,5.5-35.1,3.1-48.8-6.3L586,161.6l105.1-35.3l14.5,30.2C709.6,164.9,704.7,174.5,694.6,177.9z M553.4-172
		c7.4,0,13.8,3.4,17.2,8.4c0.1,0.3,0.3,0.6,0.5,0.9l0.6,0.9c1,1.9,1.5,4,1.5,6.3c0,3.1-1.1,6-2.9,8.5c-0.1,0.1-0.1,0.1-0.2,0.2
		l-0.4,0.5c-3.6,4.4-9.5,7.2-16.3,7.2c-10.9,0-19.7-7.4-19.7-16.5S542.6-172,553.4-172z M438.7,212c26.7,0,48.4,18.2,48.4,40.5
		S465.4,293,438.7,293H209.3c-26.7,0-48.4-18.2-48.4-40.5s21.7-40.5,48.4-40.5H438.7z M294.7,197v-17h58.5v17H294.7z M439.3,165
		H275.6V84.5c0,0,0,0,0,0s0,0,0,0v-56c0-10.9,8.5-20.1,20.3-23.3v107.7c0,8.9,6.3,17,16,20.7c25.8,9.6,53.1,14.4,81.3,14.4h46.1V165
		z M458.4,111.9V133h-65.2c-10.7,0-21.2-0.8-31.6-2.3V28.5c0-4.1-4-7.5-9-7.5c-4.9,0-9,3.4-9,7.5v98.8c-8.3-2-16.5-4.4-24.5-7.4
		c-3.3-1.2-5.4-3.9-5.4-6.9V4h56.6c9.8,0,18.9,4.1,24.4,10.9l52.3,65.6C454.5,89.8,458.4,100.7,458.4,111.9z M436.8,40.6l-27.1-34
		c-4-5-9.3-9.1-15.3-12.1l124-138.4c5.5,11.6,19.1,19.9,35,19.9c0.2,0,0.3,0,0.5,0L436.8,40.6z M692.9,71.1L556.4-98.2l28.7-40.3
		c0.2-0.3,0.5-0.6,0.7-1L712.6,61.2C704.5,62,697.4,65.7,692.9,71.1z M715.9,93c-5.6,0-10.2-3.8-10.2-8.5s4.6-8.5,10.2-8.5
		c5.6,0,10.2,3.8,10.2,8.5S721.5,93,715.9,93z"/>
</g>
</svg>
