<?xml version="1.0" encoding="utf-8"?>
<!-- Generator: Adobe Illustrator 19.0.0, SVG Export Plug-In . SVG Version: 6.00 Build 0)  -->
<svg version="1.1" id="Слой_1" xmlns="http://www.w3.org/2000/svg" xmlns:xlink="http://www.w3.org/1999/xlink" x="0px" y="0px"
	 viewBox="0 0 396.1 383.9" style="enable-background:new 0 0 396.1 383.9;" xml:space="preserve">
<style type="text/css">
	.st0{fill:#FFFFFF;stroke:#2E354E;stroke-width:6;stroke-miterlimit:10;}
</style>
<g>
	<path class="st0" d="M74.5,99.6c0.6,0,0.9-0.7,0.5-1.1c-1.3-1.4-2.1-2.2-2.9-3C50.8,74.3,29.6,53.1,8.3,31.9
		c-4.7-4.7-6.4-10.3-4.6-16.8c1.8-6.3,6-10.2,12.4-11.7c6.6-1.5,11.9,1,16.5,5.6c20.9,21,41.9,41.9,62.7,62.8
		c0.1,0.1,0.3,0.3,0.4,0.5c1.4,1.7,4.1,0.8,4.1-1.4c0-0.1,0-0.1,0-0.2c0-10.8-0.1-21.7,0.1-32.5c0.2-8.9,6.9-16,15.5-16.8
		c7.6-0.7,15,4.9,17.1,13c0.4,1.6,0.5,3.3,0.5,4.9c0,25.2,0,50.3,0,75.5c0,10.6-7.2,17.8-17.8,17.8c-25.4,0.1-50.9,0.1-76.3,0
		c-10.1,0-17.7-7.3-17.7-16.6c0-9.2,7.3-16.3,17.4-16.4c10.6-0.2,21.1-0.1,31.7-0.1C71.4,99.6,72.6,99.6,74.5,99.6z"/>
	<path class="st0" d="M325.8,99.6c9.6,0,19.2,0,28.7,0c2.5,0,5,0,7.4,0.6c8.7,2.1,13.8,9.6,12.8,18.3c-0.9,7.9-8.4,14.2-17.4,14.3
		c-15.4,0.1-30.8,0-46.2,0c-9.9,0-19.7-0.1-29.6,0c-9.6,0.1-18.7-7.1-18.4-18.6c0.5-25,0.1-50,0.2-75c0-8.2,4.7-14.8,11.7-16.9
		c10.7-3.3,21.2,4.8,21.4,16.7c0.1,10.4,0,20.8,0,31.2c0,1.2,0,2.5,0,4.3c0,0.6,0.7,0.9,1.1,0.5c1.2-1.1,2.1-1.9,3-2.7
		c21.3-21.3,42.6-42.6,63.9-64c4.7-4.7,10.3-6.5,16.7-4.6c6.3,1.8,10.2,6.1,11.6,12.4c1.5,6.6-1,11.9-5.7,16.5
		c-21,20.9-41.8,41.8-62.8,62.7c0,0,0,0-0.1,0.1C322.6,96.9,323.6,99.6,325.8,99.6z"/>
	<path class="st0" d="M324.1,288.4C324.1,288.4,324.2,288.4,324.1,288.4c21.1,21,42.1,42.1,63.2,63.1c4.9,4.9,7.1,10.6,5.1,17.4
		c-3.4,11.4-16.8,15.7-26.1,8.3c-1.4-1.1-2.7-2.4-3.9-3.7c-20.5-20.6-41-41.1-61.6-61.7c-0.9-0.9-1.9-1.8-3.1-3
		c-0.4-0.4-1-0.1-1.1,0.4c-0.1,1.4-0.2,2.4-0.2,3.4c0,10.6,0,21.1,0,31.7c-0.1,10.1-7.3,17.8-16.5,17.9c-9.3,0.1-16.5-7.6-16.6-17.7
		c-0.1-25.6-0.1-51.1,0-76.7c0-8.9,6.9-16.5,15.8-16.6c26.7-0.2,53.4-0.2,80,0c9,0.1,15.9,7.8,15.8,16.6
		c-0.1,8.8-7.3,16.1-16.7,16.3c-10.7,0.2-21.4,0.1-32.1,0.1c-0.1,0-0.3,0-0.4,0C323.5,284.2,322.5,286.9,324.1,288.4z"/>
	<path class="st0" d="M70.7,284.3C70.7,284.3,70.7,284.3,70.7,284.3c-10.7,0-21.4,0.1-32.1,0c-9.8-0.1-17.3-7.4-17.3-16.5
		c0-9.3,7.3-16.5,17.3-16.5c25.7-0.1,51.4-0.1,77.1,0c10.4,0,17.3,7.1,17.4,17.7c0.1,25,0.1,50,0,75c0,10.7-6.8,18.2-16.3,18.3
		c-9.6,0.1-16.8-7.7-16.8-18.4c0-10.3,0-20.6,0-30.8c0,0,0-0.1,0-0.1c0-1.9-2.3-2.9-3.7-1.6c-0.2,0.2-0.3,0.3-0.5,0.5
		c-20.9,20.9-41.9,41.8-62.8,62.8c-4.2,4.3-9,7-15.2,6.1c-6.7-1-11.5-4.7-13.7-11.3c-2.2-6.5-0.6-12.3,4.2-17.2
		c14.8-14.8,29.7-29.7,44.5-44.5c6.5-6.5,13.1-13.1,19.6-19.6C73.7,286.7,72.7,284.3,70.7,284.3z"/>
</g>
</svg>
