<?xml version="1.0" encoding="utf-8"?>
<!-- Generator: Adobe Illustrator 19.0.0, SVG Export Plug-In . SVG Version: 6.00 Build 0)  -->
<svg version="1.1" id="Слой_1" xmlns="http://www.w3.org/2000/svg" xmlns:xlink="http://www.w3.org/1999/xlink" x="0px" y="0px"
	 viewBox="0 0 86.7 60.2" style="enable-background:new 0 0 86.7 60.2;" xml:space="preserve">
<style type="text/css">
	.st0{fill:#FFFFFF;}
</style>
<g id="XMLID_32_">
	<path id="XMLID_40_" class="st0" d="M77.3,31.9c0.1,0.7,0.3,1.4,0.3,2c0,4.2,0,8.4,0,12.6c0,0.6,0,1.2,0,1.9c0.8,0.1,1.3,0.2,2,0.4
		c0,1.5,0,3,0,4.8c2.4,0,4.6,0,7,0c0,2.3,0,4.4,0,6.6c-0.6,0-1.1,0-1.6,0c-10.9,0-21.7,0-32.6,0c-1.5,0-1.9-0.4-1.9-1.9
		c0-4.7-0.1-4.7,4.6-4.7c1.6,0,3.3-0.1,4.9,0c1.9,0.2,2.4-0.6,2.2-2.3c-0.1-0.8,0-1.7,0-2.6c1.3-0.1,2.4-0.2,3.6-0.3
		c0-1.2,0-2.3,0-3.4c0-7.5,0-14.9,0-22.4c0-0.6,0.3-1.3,0.4-1.9c0.8,0.8,1.5,1.6,2.3,2.4c1.1,1.1,2.2,2.1,3.4,3.2
		c0.3,0.3,0.5,0.7,0.8,1c0.6,0.7,1.2,1.3,1.9,2C75.5,30.2,76.4,31,77.3,31.9z M74.5,39.7c-1.1-1.1-2-1.9-2.9-2.8
		c-3.4,2.6-3.4,2.8,0,5.4C72.5,41.5,73.4,40.7,74.5,39.7z M74.2,31.2c-0.9-0.8-1.8-1.6-2.8-2.4c-1,0.8-1.8,1.6-3,2.6
		c1,1.1,1.9,1.9,2.9,3C72.5,33.3,73.3,32.4,74.2,31.2z M71.5,45c-0.8,0.8-1.6,1.4-2.2,2.2c-0.2,0.3,0,1.3,0,1.3
		c1.8,0.1,3.6,0.1,5.4,0.1c0-0.2,0.1-0.3,0.1-0.5C73.7,47.1,72.7,46.1,71.5,45z M74.6,37.2c0-1.3,0-2.2,0-3.1
		c-0.6,0.5-1.2,0.9-1.8,1.4C73.4,36.1,73.8,36.5,74.6,37.2z M74.6,45.5c0-1.3,0-2.2,0-3.4c-0.7,0.7-1.2,1.1-1.7,1.6
		C73.4,44.2,73.8,44.7,74.6,45.5z"/>
	<path id="XMLID_34_" class="st0" d="M72.7,27.3c-0.3-0.3-0.5-0.7-0.8-1c0.8-0.9,1.6-1.7,2.5-2.8c-1-0.9-2-1.8-2.9-2.6
		c-1,0.7-2,1.5-3,2.2c-0.8-0.8-1.5-1.6-2.3-2.4c-0.1-1.5-0.4-3.1-0.4-4.6s-0.3-2.1-2-2.1c-5.7,0.1-11.4,0.1-17.1,0
		c-1.5,0-2.1,0.3-2,1.9c0.1,2.4,0,4.9,0,7.3c0,1.5-0.3,3.1,1.2,4.3c0.4,0.3,0.4,1.5,0.2,2.1c-0.4,1.3-1.2,2.4-1.7,3.6
		c-0.3,0.6-0.4,1.3-0.4,2c0,0.2,1.1,0.6,1.3,0.4c0.6-0.4,0.9-1.1,1.4-1.7c0.8,0.7,1,2.2,0.2,3.4c-0.7,1.1-2.6,1.5-3.9,0.7
		c-1.4-0.7-1.8-1.9-1.4-3.4c0.1-0.4,0.3-0.9,0.6-1.2c1.1-1.2,1.4-2.1,0-3.4c-0.9-0.8-0.7-2.1,0.2-3.1c0.3-0.4,0.8-0.8,0.8-1.2
		c0.1-3.8,0-7.7,0-11.7c-1.7,0-3.3,0-4.8,0c0-0.1-0.1-0.3-0.1-0.4c4.1-1.4,8.2-2.9,12.3-4.2c6-1.9,12-3.8,18-5.7
		c1.7-0.6,3.9-0.7,2.9-3.6c1,0,1.7,0,2.7,0c-0.7,2.5,1.3,3.4,2.8,4.5c1.8,1.4,3.6,2.8,5.5,4.1c1.2,0.8,2.6,1.3,4.2,2.1
		c0,0.6,0,1.7,0,3.2c-2.4,0-4.7,0.1-7.1,0c-1.4-0.1-1.9,0.4-1.9,1.9c0.1,4.7,0,9.4,0,14.2c0,0.6-0.2,1.2-0.3,1.8
		c-0.9-0.9-1.9-1.7-2.8-2.6c0.1-1,0.1-1.9,0.2-3.1C73.8,26.7,73.2,27,72.7,27.3z M71.4,4.8c-5.6,1.8-10.8,3.4-16.1,5.1
		c0,0.1,0,0.2,0.1,0.3c5.3,0,10.7,0,16,0C71.4,8.4,71.4,6.7,71.4,4.8z M74.2,10.1c2.3,0,4.4,0,6.9,0c-2.3-1.7-4.2-3.2-6.1-4.6
		c-0.2-0.1-0.4-0.2-0.7-0.3C74.2,6.9,74.2,8.5,74.2,10.1z M74.8,14.6c-0.1-0.2-0.2-0.3-0.3-0.5c-0.6,0-1.2-0.1-1.9-0.1
		c-1.3,0.1-2.5,0.4-3.7,0.5c0.8,1.1,1.6,2.3,2.5,3.6C72.6,16.9,73.7,15.7,74.8,14.6z M73,19c0.6,0.8,1,1.4,1.6,2.3
		c0-1.4,0-2.4,0-3.8C73.8,18.2,73.3,18.7,73,19z"/>
	<path id="XMLID_19_" class="st0" d="M86.6,15.3c0,1.3,0,2.5,0,3.8c-2.2,0-4.4,0-6.7,0c0-1.2,0-2.4,0-3.8
		C82.1,15.3,84.3,15.3,86.6,15.3z"/>
</g>
<g id="XMLID_82_">
	<path id="XMLID_114_" class="st0" d="M2.9,53.9c0.9-6.4,1.8-12.6,2.6-18.8C6.2,30,6.9,24.9,7.8,19.9c0.1-0.8,1.3-1.9,2-1.9
		c7.1-0.1,14.3-0.1,21.9-0.1c1.7,12,3.5,23.9,5.3,36C25.6,53.9,14.5,53.9,2.9,53.9z M9.9,37.3c0,5.9,4.4,10.3,10.1,10.4
		c5.5,0.1,10.5-4.8,10.4-10.4c-0.1-5.4-4.9-10.1-10.4-10.1C14.4,27.2,9.9,31.7,9.9,37.3z"/>
	<path id="XMLID_111_" class="st0" d="M40,60.2c-13.2,0-26.4,0-40,0c0.5-1,0.9-1.7,1.2-2.4c0,0-0.4-0.1-0.8-0.2
		c-0.1-0.3-0.2-0.6-0.3-0.9c1.2-0.5,2.4-1.4,3.5-1.4c10.5-0.1,20.9-0.1,31.4-0.1C39.7,55.2,39.7,55.2,40,60.2z M34.9,57.9
		C34.9,57.9,34.9,57.8,34.9,57.9c-10-0.1-20-0.1-29.9-0.1v0.1C15,57.9,24.9,57.9,34.9,57.9z"/>
	<path id="XMLID_76_" class="st0" d="M33.3,16.9c-4.7,0-9.5,0-14.2,0c-3.7,0-7.4,0-11.1-0.1c-0.5,0-1-0.8-1.5-1.2
		c0.5-0.4,1-1.2,1.4-1.2c8-0.1,16-0.1,24,0c0.6,0,1.3,1,1.9,1.6C33.7,16.3,33.5,16.6,33.3,16.9z"/>
	<path id="XMLID_75_" class="st0" d="M17.2,0c1.6,1.3,1,3.2-0.3,5c-0.5,0.8-1.2,1.5-1.9,2.1c-1.7,1.7-2.7,3.5,0.4,5.9
		c-4.3-1.8-4.7-3.4-2.2-6.1c1-1,2.3-1.9,2.9-3C16.9,2.7,16.9,1.3,17.2,0z"/>
	<path id="XMLID_74_" class="st0" d="M20.3,12.8c-3.5-1.6-3.8-3.4-1.5-5.9c1.7-1.8,3.1-3.8,4.7-5.8c-0.1,0.6,0,1.7-0.4,2.5
		c-0.6,1.2-1.4,2.2-2.3,3.2C19.2,8.6,18,10.3,20.3,12.8z"/>
	<path id="XMLID_73_" class="st0" d="M26.1,12.8c-3.5-1.8-3.7-3.2-1.4-5.7c1.7-1.8,3.3-3.7,4.8-5.3c0.7,2.3-1.5,3.6-2.8,5.4
		C25.3,8.9,23.5,10.5,26.1,12.8z"/>
	<path id="XMLID_71_" class="st0" d="M24.5,45.5c-0.9-1.7-1.8-3.2-2.6-4.8c-0.9-2-0.1-3,1.9-3.2c1.7-0.1,3.4,0,5.2,0
		C29.2,41.2,27.5,43.5,24.5,45.5z"/>
	<path id="XMLID_70_" class="st0" d="M15.6,29.4c3.2-1.5,6.1-1.4,9.2,0.1c-1,1.8-1.8,3.7-3,5c-0.6,0.6-2.8,0.5-3.4-0.1
		C17.2,33.1,16.6,31.2,15.6,29.4z"/>
	<path id="XMLID_66_" class="st0" d="M15.5,45.1c-2.9-1.4-4.4-3.9-4.5-7.7c2,0,4-0.2,5.8,0.1c1.3,0.2,2.5,1.2,1.4,3
		C17.3,42.1,16.5,43.6,15.5,45.1z"/>
</g>
</svg>
