<?xml version="1.0" encoding="utf-8"?>
<!-- Generator: Adobe Illustrator 19.0.0, SVG Export Plug-In . SVG Version: 6.00 Build 0)  -->
<svg version="1.1" id="Слой_1" xmlns="http://www.w3.org/2000/svg" xmlns:xlink="http://www.w3.org/1999/xlink" x="0px" y="0px"
	 viewBox="90 -90 300 300" style="enable-background:new 90 -90 300 300;" xml:space="preserve">
<style type="text/css">
	.st0{fill:#2E354E;}
</style>
<g>
	<path class="st0" d="M229-89c8,0,16,0,24,0c1.8,0.4,3.5,0.8,5.3,1c81.2,9.3,140.3,82.8,131.8,164.1
		c-7.5,72.8-64.2,128.6-138.6,134.4c-73.4,5.7-136.4-42.7-154.7-108.7C94.2,92.4,92.9,82.6,91,73c0-8,0-16,0-24
		c0.4-1.9,0.9-3.9,1.1-5.8C99.2-16.7,141.7-66.7,199.7-83C209.3-85.7,219.2-87,229-89z M241-71.1c-72.9,0-132,59.1-132.1,132
		s59,132.1,131.8,132.2C313.8,193.2,373.1,134,373,60.9C373-12,313.9-71.1,241-71.1z"/>
	<path class="st0" d="M187.3-22c9.3,16,18.6,32.1,28,48.4C203,37,205.6,50,209.4,62.9c4,13.4,11.1,25.3,21.4,35
		c8.4,7.9,17.7,13.2,30.2,7.8c9.4,16.2,18.7,32.3,27.9,48.3c-9,8.6-23.9,11.2-34.9,6c-12.9-6.1-23.2-15.6-32.5-26.2
		c-26.7-30.2-45.9-64.4-55-104c-1.2-5.2-1.8-10.5-2.2-15.8C163.1-3.5,170.2-14.7,187.3-22z"/>
	<path class="st0" d="M318.1,139.2c-1.1,1.5-2.1,3.8-3.8,5c-4.3,2.9-8.8,5.3-13.3,7.8c-3.8,2.1-7.2,1.2-9.4-2.5
		c-8.8-15.1-17.5-30.2-26.2-45.3c-2.2-3.8-1.3-7.1,2.4-9.4c4.4-2.7,8.9-5.3,13.4-7.7c3.7-2,6.9-1.1,9,2.5
		c8.9,15.2,17.7,30.5,26.5,45.8C317.2,136.2,317.5,137.4,318.1,139.2z"/>
	<path class="st0" d="M244.8,12.5c-1.2,1.6-2.3,3.8-4,5c-4.1,2.8-8.5,5.2-12.9,7.5c-4,2.2-7.4,1.3-9.8-2.7
		c-8.7-14.9-17.3-29.9-25.9-44.9c-2.3-4-1.4-7.4,2.6-9.8c4.3-2.6,8.6-5.1,13-7.5c3.9-2.1,7.2-1.1,9.4,2.6
		C226-22.2,234.7-7.1,243.4,8C243.9,9.2,244.2,10.6,244.8,12.5z"/>
</g>
</svg>
