<?xml version="1.0" encoding="utf-8"?>
<!-- Generator: Adobe Illustrator 19.0.0, SVG Export Plug-In . SVG Version: 6.00 Build 0)  -->
<svg version="1.1" id="Слой_1" xmlns="http://www.w3.org/2000/svg" xmlns:xlink="http://www.w3.org/1999/xlink" x="0px" y="0px"
	 viewBox="206.1 -165.2 550.3 450.9" style="enable-background:new 206.1 -165.2 550.3 450.9;" xml:space="preserve">
<style type="text/css">
	.st0{fill:none;stroke:#2E354E;stroke-width:18;stroke-miterlimit:10;}
	.st1{fill:#2E354E;stroke:#2E354E;stroke-width:6;stroke-miterlimit:10;}
</style>
<g>
	<g>
		<path class="st0" d="M272.4,55.1L363.3-130c2.4-4.8-0.2-10.7-5.4-12c0,0-0.1,0-0.1,0l-48.2-12c-6.8-1.4-13.7,1.8-16.9,7.9
			L216.5,9.1c-2.8,6.3-1.1,13.7,4.1,18.2l39,30.8c0,0,0.1,0,0.1,0.1C263.9,61.4,270.1,59.9,272.4,55.1z"/>
		<path class="st0" d="M299.5,76.8l137.2,47.8c6.5,2.1,13.5-0.8,16.6-6.8l71.9-146.3c2.9-6.2,0.9-13.5-4.7-17.3l-121.7-79.4
			c0,0,0,0,0,0c-2.6-1.7-6.2-0.7-7.6,2.1L296.5,69.5C295.1,72.3,296.5,75.8,299.5,76.8C299.4,76.8,299.5,76.8,299.5,76.8z"/>
		<path class="st1" d="M727.4-149.2c7.2,0,12.9,5.8,12.9,13c0,5.7-3.8,10.7-9.2,12.4l-56.8,16.8l-1.5-4.5l-43,11.9
			c-3.5,1.3-6.4,3.7-8.3,6.9L564.2,23.6l35.6,17.5c2.7,1.3,3.9,4.7,2.5,7.4c0,0,0,0,0,0l-8.1,16.6c-1.4,2.7-4.7,3.9-7.4,2.5
			l-24.9-12.2l-7.6,15.5l6.1,3c6.4,3.2,9,10.9,5.9,17.3L552.1,120c-3.1,6.4-10.9,9.1-17.3,5.9c0,0,0,0,0,0l-16.8-8.2l-11,22.4
			l67.6,33.2l0.2,0.1h63.4c7.9,0,17,5,21.2,11.7l45,71.1c2.5,3.9,1.3,9-2.6,11.5c-3.9,2.5-9,1.3-11.5-2.6l0,0l-45-71.1
			c-1.8-2.2-4.3-3.6-7.2-4H482.4l-24.9,50.8c-4,8.3-14,11.7-22.3,7.6c0,0,0,0,0,0l-25-12.3c-16.9,25.5-51.3,32.3-76.8,15.4
			c-20.9-13.9-29.8-40-21.8-63.8l-24-11.8c-3.7-1.7-5.4-6.1-3.7-9.8c1.7-3.7,6.1-5.4,9.8-3.7c0.1,0.1,0.2,0.1,0.4,0.2l24,11.8
			c17-25.4,51.4-32.2,76.8-15.2c20.7,13.9,29.6,39.9,21.7,63.6l25,12.3c0.2,0.1,0.5,0.2,0.8,0.2c0.7,0,1.3-0.4,1.7-1l60.5-123.2
			l-7-3.5l46.2-94.1l7,3.5l57.2-116.5c3.2-6.4,10.7-12.7,17.6-14.6l42.1-11.6l-2-5.9l57.8-17.1C724.9-149.1,726.2-149.2,727.4-149.2
			 M364.1,236.9c17.5,0,31.7-14.1,31.7-31.6c0-17.5-14.1-31.7-31.6-31.7c-17.5,0-31.7,14.1-31.7,31.6c0,12.1,6.8,23.1,17.7,28.4
			C354.6,235.8,359.3,236.9,364.1,236.9 M727.4-162.2c-2.5,0-5,0.4-7.4,1.1l-57.8,17.1c-4.3,1.3-7.6,4.6-8.8,8.9l-31.1,8.6
			c-10.4,2.9-21.1,11.7-25.9,21.4l-52,105.8h-0.6c-5,0-9.5,2.8-11.7,7.3l-46.1,94c-2.3,4.7-1.6,10.2,1.8,14.2l-50.3,102.4l-5.7-2.8
			c4.6-29.5-10.6-58.6-37.4-71.8c-26.8-13.2-59.1-7.4-79.7,14.3l-14.7-7.2c-2.8-1.4-5.9-2.1-9-2.1c-11.3,0-20.4,9.1-20.4,20.4
			c0,7.8,4.4,14.9,11.4,18.3l14.7,7.2c-4.6,29.5,10.6,58.6,37.4,71.8c26.8,13.2,59.1,7.4,79.7-14.3l15.7,7.7
			c14.7,7.2,32.5,1.2,39.7-13.5c0,0,0,0,0,0l21.4-43.5h145.2l43.6,69c5.9,10.2,18.9,13.7,29.1,7.8s13.7-18.9,7.8-29.1
			c-0.3-0.5-0.6-1-0.9-1.4l-45-71.1c-6.6-10.4-19.8-17.7-32.2-17.7H578l-42-20.6c11.4,2,22.7-3.7,27.8-14.1l14.1-28.8
			c2.8-5.7,3.4-12.2,1.7-18.3l1.4,0.7c9.2,4.5,20.3,0.7,24.8-8.5l8.2-16.6c4.5-9.2,0.7-20.3-8.4-24.8c0,0,0,0,0,0l-23.9-11.7
			l51.2-104.3c0.3-0.3,0.6-0.6,1-0.8l32.9-9.1c3.3,2.3,7.4,3,11.2,1.9l56.8-16.8c13.7-4.1,21.6-18.5,17.5-32.2
			C749-154.6,738.9-162.2,727.4-162.2 M364.1,223.9c-10.3,0-18.6-8.4-18.6-18.7c0-2.8,0.7-5.6,1.9-8.1c4.5-9.2,15.7-13.1,24.9-8.5
			c9.2,4.5,13.1,15.7,8.5,24.9C377.8,219.9,371.3,224,364.1,223.9"/>
	</g>
</g>
</svg>
