<?xml version="1.0" encoding="utf-8"?>
<!-- Generator: Adobe Illustrator 19.0.0, SVG Export Plug-In . SVG Version: 6.00 Build 0)  -->
<svg version="1.1" id="Слой_1" xmlns="http://www.w3.org/2000/svg" xmlns:xlink="http://www.w3.org/1999/xlink" x="0px" y="0px"
	 viewBox="-41 164.9 512 512" style="enable-background:new -41 164.9 512 512;" xml:space="preserve">
<style type="text/css">
	.st0{fill:#2E354E;}
</style>
<g>
	<path class="st0" d="M460.8,640.3H449V381.8l6.2,2.9c3.2,1.5,6.9,1.2,9.8-0.6c2.9-1.9,4.7-5.1,4.7-8.6v-41c0-4-2.3-7.6-5.9-9.3
		l-35.2-16.4v-66.3c0-5.6-4.6-10.2-10.2-10.2h-60.8c-5.6,0-10.2,4.6-10.2,10.2v28.5L157,182c-3-1.4-6.5-1.3-9.3,0.3l-183.4,103
		c-3.2,1.8-5.2,5.2-5.2,8.9v41c0,5.6,4.6,10.2,10.2,10.2c1.8,0,3.5-0.5,5-1.3l5.5-3.1v299.2h-10.1c-5.6,0-10.2,4.6-10.2,10.2
		s4.6,10.2,10.2,10.2h491.1c5.6,0,10.2-4.6,10.2-10.2S466.4,640.3,460.8,640.3z M367.9,280.1v-27.4h40.3v46.6l-40.3-18.8
		C367.9,280.3,367.9,280.2,367.9,280.1L367.9,280.1z M-20.6,300.3l173.7-97.5L449.3,341v18.5L157,223c-3-1.4-6.5-1.3-9.3,0.3
		l-168.2,94.5V300.3z M0.2,640.3V330c0-0.1,0-0.2,0-0.3l152.9-85.9l275.5,128.5v268H0.2z"/>
	<path class="st0" d="M193.9,466.7h-163c-5.6,0-10.2,4.6-10.2,10.2v132.9c0,5.6,4.6,10.2,10.2,10.2h163c5.6,0,10.2-4.6,10.2-10.2
		V477C204.1,471.3,199.6,466.7,193.9,466.7z M41.1,487.2h61.1v112.4H41.1V487.2L41.1,487.2z M183.7,599.6h-61.1V487.2h61.1V599.6z
		 M398.2,466.7H234.8c-5.6,0-10.2,4.6-10.2,10.2v132.9c0,5.6,4.6,10.2,10.2,10.2h163.4c5.6,0,10.2-4.6,10.2-10.2V477
		C408.4,471.3,403.9,466.7,398.2,466.7z M245,487.2h61.3v112.4H245V487.2L245,487.2z M388,599.6h-61.3V487.2H388V599.6z M402.5,385
		L239.9,309c-1.5-0.7-3.1-1-4.7-1c-5.7-0.2-10.6,4.5-10.6,10.2v118.1c0,5.6,4.6,10.2,10.2,10.2h163.4c5.6,0,10.2-4.6,10.2-10.2
		v-42.2C408.4,390.2,406.1,386.6,402.5,385z M245,334l61.3,28.6v63.6H245V334z M388,426.2h-61.3v-54.1l61.3,28.6V426.2z M204.1,298
		c0-0.2,0-0.3,0-0.4c-0.1-0.8-0.3-1.6-0.6-2.4c-0.5-1.4-1.4-2.6-2.4-3.7c-0.2-0.2-0.5-0.5-0.8-0.7c-0.4-0.3-0.8-0.6-1.2-0.8
		c-0.2-0.1-0.4-0.2-0.6-0.3c-0.1,0-0.1-0.1-0.2-0.1l-35.3-16.5c-3.4-1.6-7.4-1.2-10.4,1.1c-0.2,0.1-0.4,0.2-0.5,0.3L25.9,345.3
		c-3.3,1.8-5.3,5.4-5.2,9.1c0,0,0,0,0,0.1v81.9c0,5.6,4.6,10.2,10.2,10.2h163c5.6,0,10.2-4.6,10.2-10.2V298.9c0-0.1,0-0.2,0-0.2
		C204.1,298.4,204.1,298.2,204.1,298z M41.1,360.1l61.1-34.3v100.3H41.1V360.1L41.1,360.1z M122.6,426.2V314.4l36.5-20.5l24.6,11.5
		v120.8L122.6,426.2L122.6,426.2z"/>
</g>
</svg>
