<?xml version="1.0" encoding="utf-8"?>
<!-- Generator: Adobe Illustrator 19.0.0, SVG Export Plug-In . SVG Version: 6.00 Build 0)  -->
<svg version="1.1" id="Слой_1" xmlns="http://www.w3.org/2000/svg" xmlns:xlink="http://www.w3.org/1999/xlink" x="0px" y="0px"
	 viewBox="0 0 35.8 26.2" style="enable-background:new 0 0 35.8 26.2;" xml:space="preserve">
<style type="text/css">
	.st0{fill:none;stroke:#FFFFFF;stroke-miterlimit:10;}
	.st1{fill:#FFFFFF;}
</style>
<g id="XMLID_6_">
	<path id="XMLID_2_" class="st0" d="M27.2,1c0,1.4,0,2.7,0,4c0,0.6,0.2,0.9,0.9,0.9c1.2-0.1,2.3-0.1,3.5,0c0.6,0,0.8-0.2,0.8-0.8
		c0-1.4,0-2.8,0-4.3c1,0.4,2,0.8,2.3,2.1c0.2,0.9,0.4,1.9,0.6,2.8c0.2,1.2-0.2,2.4-1.3,3c-0.1,0.1-0.1,0.1-0.2,0.1
		C32,9.2,31.8,10.5,32,12c0.2,3.8,0.4,7.6,0.5,11.5c0.1,1.6-0.6,2.1-2.1,2.2c-2.7,0.1-3-0.7-3-2.9c0.1-4,0.1-8,0.2-12
		c0-0.7-0.2-1.1-0.9-1.4c-2.6-1.2-2.9-1.9-2.4-4.7c0.1-0.4,0.2-0.9,0.3-1.3C24.7,2,25.9,1.6,26.9,1C27,0.9,27,0.9,27.2,1z"/>
</g>
<g id="XMLID_10_">
	<path id="XMLID_25_" class="st1" d="M0,14.6c0-0.9,0-1.8,0-2.7c0.4-1.1,0.8-1.3,2-1.3c0.5,0,0.9,0,1.4,0c0.1,0,0.2-0.1,0.2-0.1
		c0.2-0.6,0.5-1.2,0.7-1.9C3.9,8.2,3.5,7.7,3,7.3C2.3,6.6,2.3,5.6,3,4.9C3.5,4.5,3.9,4,4.4,3.6c0.8-0.8,1.7-0.8,2.5,0
		C7.3,4,7.7,4.4,8.1,4.9C8.4,4.7,8.7,4.6,9,4.4c0.3-0.1,0.6-0.2,0.9-0.3c0.2-0.1,0.2-0.1,0.2-0.3c0-0.6,0-1.2,0-1.8
		c0-0.7,0.4-1.2,1.1-1.4c0.1,0,0.2-0.1,0.2-0.1c0.9,0,1.8,0,2.7,0c0,0,0,0,0,0c0.9,0.3,1.3,0.8,1.3,1.7c0,0.5,0,1.1,0,1.6
		c0,0.1,0,0.2,0.2,0.2c0.6,0.2,1.2,0.5,1.9,0.7c0.4-0.4,0.8-0.8,1.3-1.3c0.7-0.7,1.7-0.7,2.4,0C21.6,4,22,4.4,22.4,4.9
		c0.8,0.8,0.7,1.7,0,2.4c-0.4,0.4-0.9,0.9-1.3,1.3c0.2,0.3,0.3,0.6,0.4,0.9c0.1,0.3,0.2,0.6,0.3,0.9c0,0.1,0.2,0.1,0.2,0.1
		c0.6,0,1.2,0,1.9,0c0.7,0,1.2,0.4,1.4,1.1c0,0.1,0.1,0.2,0.1,0.2c0,0.9,0,1.8,0,2.7c0,0,0,0,0,0.1c-0.3,0.8-0.8,1.2-1.7,1.2
		c-0.6,0-1.1,0-1.7,0c-0.1,0-0.2,0.1-0.2,0.1c-0.3,0.6-0.5,1.2-0.7,1.9c0.4,0.4,0.9,0.8,1.3,1.3c0.7,0.7,0.7,1.7,0,2.4
		c-0.4,0.4-0.9,0.9-1.3,1.3c-0.7,0.7-1.7,0.7-2.4,0c-0.4-0.4-0.9-0.9-1.3-1.3c-0.7,0.3-1.3,0.5-1.9,0.7c-0.1,0-0.1,0.2-0.1,0.2
		c0,0.6,0,1.2,0,1.9c0,0.5-0.3,1-0.7,1.3c-0.2,0.1-0.4,0.2-0.6,0.3c-0.9,0-1.8,0-2.7,0c0,0,0,0-0.1,0c-0.8-0.3-1.2-0.8-1.2-1.7
		c0-0.6,0-1.1,0-1.7c0-0.1,0-0.2-0.2-0.3c-0.6-0.2-1.2-0.5-1.8-0.7c-0.4,0.4-0.9,0.9-1.3,1.3c-0.7,0.7-1.7,0.7-2.4,0
		c-0.4-0.4-0.9-0.9-1.3-1.3c-0.8-0.8-0.8-1.7,0-2.5c0.4-0.4,0.9-0.9,1.3-1.3c-0.3-0.6-0.5-1.2-0.7-1.9c-0.1-0.1-0.1-0.2-0.3-0.2
		c-0.6,0-1.2,0-1.8,0c-0.5,0-0.9-0.2-1.2-0.6C0.2,15,0.1,14.8,0,14.6z M14.4,23.2c0-0.4,0-0.7,0-1.1c0-0.4,0.1-0.6,0.5-0.7
		c0.8-0.2,1.5-0.5,2.2-0.9c0.3-0.2,0.5-0.2,0.8,0.1c0.5,0.5,1,1,1.5,1.5c0.3,0.3,0.6,0.3,0.9,0c0.4-0.4,0.9-0.9,1.3-1.3
		c0.3-0.3,0.3-0.6,0-0.9c-0.5-0.5-1-1-1.5-1.5c-0.3-0.3-0.3-0.5-0.1-0.8c0.4-0.7,0.7-1.4,0.9-2.2c0.1-0.4,0.3-0.5,0.7-0.5
		c0.7,0,1.4,0,2.1,0c0.4,0,0.6-0.2,0.6-0.6c0-0.6,0-1.3,0-1.9c0-0.4-0.2-0.6-0.6-0.6c-0.7,0-1.4,0-2.2,0c-0.4,0-0.6-0.1-0.7-0.5
		c-0.2-0.8-0.5-1.5-0.9-2.2c-0.2-0.4-0.2-0.5,0.1-0.8c0.5-0.5,1-1,1.5-1.5C22,6.2,22,6,21.7,5.6c-0.4-0.4-0.9-0.9-1.3-1.3
		C20,4,19.8,4,19.4,4.3c-0.5,0.5-1,1-1.5,1.5c-0.3,0.3-0.5,0.3-0.8,0.1c-0.7-0.4-1.4-0.7-2.2-0.9c-0.4-0.1-0.5-0.3-0.5-0.7
		c0-0.7,0-1.4,0-2.2c0-0.4-0.2-0.6-0.6-0.6c-0.6,0-1.3,0-1.9,0c-0.5,0-0.7,0.2-0.7,0.7c0,0.7,0,1.4,0,2.2c0,0.4-0.1,0.6-0.5,0.6
		C9.9,5.2,9.1,5.5,8.4,5.9C8.1,6.1,7.9,6.1,7.6,5.8c-0.5-0.5-1-1-1.5-1.5C5.8,4,5.5,4,5.1,4.3C4.7,4.7,4.3,5.2,3.8,5.6
		C3.5,6,3.5,6.2,3.8,6.6c0.5,0.5,1,1,1.5,1.5c0.3,0.3,0.3,0.5,0.1,0.8C5,9.6,4.7,10.3,4.5,11.1c-0.1,0.4-0.3,0.5-0.6,0.5
		c-0.7,0-1.5,0-2.2,0c-0.4,0-0.6,0.2-0.6,0.6c0,0.6,0,1.3,0,1.9c0,0.4,0.2,0.6,0.6,0.6c0.7,0,1.5,0,2.2,0c0.4,0,0.5,0.1,0.6,0.5
		c0.2,0.8,0.5,1.5,0.9,2.2c0.2,0.3,0.2,0.5-0.1,0.8c-0.5,0.5-1,1-1.5,1.6c-0.3,0.3-0.3,0.6,0,0.9c0.5,0.5,0.9,0.9,1.4,1.4
		c0.3,0.3,0.6,0.3,0.9,0c0.5-0.5,1-1,1.5-1.5c0.3-0.3,0.5-0.3,0.8-0.1c0.7,0.4,1.5,0.7,2.3,0.9c0.4,0.1,0.5,0.3,0.5,0.6
		c0,0.7,0,1.5,0,2.2c0,0.4,0.2,0.6,0.6,0.6c0.7,0,1.4,0,2,0c0.4,0,0.6-0.2,0.6-0.6C14.4,24,14.4,23.6,14.4,23.2z"/>
	<path id="XMLID_11_" class="st1" d="M18.1,13.1c0.1,2.9-2.2,5.4-5.2,5.5c-2.9,0.1-5.3-2.2-5.4-5.2C7.3,10.5,9.6,8,12.6,7.9
		C15.5,7.8,17.9,10.1,18.1,13.1z M12.7,17.5c2.4,0,4.3-1.9,4.3-4.2c0-2.3-1.9-4.2-4.2-4.2c-2.4,0-4.3,1.9-4.3,4.2
		C8.5,15.6,10.4,17.5,12.7,17.5z"/>
</g>
</svg>
