<?xml version="1.0" encoding="utf-8"?>
<!-- Generator: Adobe Illustrator 23.0.1, SVG Export Plug-In . SVG Version: 6.00 Build 0)  -->
<svg version="1.1" id="Слой_1" xmlns="http://www.w3.org/2000/svg" xmlns:xlink="http://www.w3.org/1999/xlink" x="0px" y="0px"
	 viewBox="0 0 620 620" style="enable-background:new 0 0 620 620;" xml:space="preserve">
<style type="text/css">
	.st0{fill:#FFFFFF;}
	.st1{fill:#2E354E;}
	.st2{opacity:0;fill:#FF0000;}
	.st3{fill:#FF0000;}
</style>
<g>
	<path class="st0" d="M603.13,163.22c-7.05-26.67-27.71-47.7-53.9-54.88C501.37,95,309.95,95,309.95,95s-191.42,0-239.28,12.82
		c-25.69,7.18-46.85,28.72-53.9,55.4C4.18,211.95,4.18,313,4.18,313s0,101.56,12.59,149.78c7.05,26.67,27.71,47.7,53.9,54.88
		C119.04,531,309.95,531,309.95,531s191.42,0,239.28-12.82c26.19-7.18,46.85-28.21,53.9-54.88
		c12.59-48.73,12.59-149.78,12.59-149.78S616.23,211.95,603.13,163.22z"/>
	<polygon class="st1" points="244.73,406.36 403.91,313 244.73,219.64 	"/>
</g>
<polygon class="st2" points="248,229 409,322 248,414 "/>
<path class="st3" d="M415,272"/>
<path class="st3" d="M438,155"/>
</svg>
