<?xml version="1.0" encoding="utf-8"?>
<!-- Generator: Adobe Illustrator 19.0.0, SVG Export Plug-In . SVG Version: 6.00 Build 0)  -->
<svg version="1.1" id="Слой_1" xmlns="http://www.w3.org/2000/svg" xmlns:xlink="http://www.w3.org/1999/xlink" x="0px" y="0px"
	 viewBox="0 0 500 500" style="enable-background:new 0 0 500 500;" xml:space="preserve">
<style type="text/css">
	.st0{fill:#E7E9F1;}
</style>
<g id="XMLID_6_">
	<path id="XMLID_9_" class="st0" d="M330.4,116.7c2.2-0.2,4.4-1,6.4,0.7c1.1,0.9,0.6,2.1,0.7,3.2c0,1,0.3,1.7,1.3,2.3
		c1.1,0.7,2,0.7,3.1,0c2.1-1.3,3.4-0.9,4.6,1.3c0.7,1.1,1.3,2.3,2,3.4c1.3,2.2,0.9,3.5-1.2,4.8c-2.3,1.4-2.3,4.3-0.1,5.7
		c2.2,1.4,2.5,2.6,1.2,4.9c-0.7,1.2-1.4,2.5-2.2,3.7c-0.8,1.3-2.5,1.8-3.9,1.1c-0.4-0.2-0.8-0.4-1.2-0.6c-1.5-0.7-2.9,0.1-3,1.8
		c-0.1,1,0.5,2.3-0.7,3c-0.7,0.4-1.5,0.9-2.2,1c-1.7,0.1-3.4,0-5,0c-1.9,0-3.3-1.6-3.3-3.4c0-1.2-0.6-1.8-1.5-2.3
		c-1-0.5-1.7-0.3-2.5,0.2c-2.3,1.5-3.5,1.1-5-1.3c-0.7-1.2-1.4-2.3-2.1-3.5c-1.1-1.9-0.7-3.2,1.1-4.3c1.7-1.1,2.4-2.7,1.6-4.6
		c-0.3-0.7-1.1-1.1-1.7-1.6c-1.7-1.1-2-2.7-0.6-4.5c0.9-1.2,1.6-2.4,2.1-3.8c0.7-1.6,2.5-2.2,3.9-1.3c2.4,1.6,4.2,0.9,4.7-2
		c0-0.2,0.2-0.3,0.3-0.5C328.2,119,329.3,117.9,330.4,116.7z M340.6,135.3c-0.1-5-4.1-8.8-9.1-8.6c-4.6,0.1-8.5,4.2-8.4,8.8
		c0.1,4.9,4.2,8.8,9.1,8.7C336.9,144.1,340.7,140,340.6,135.3z"/>
	<path id="XMLID_2_" class="st0" d="M356.8,113.5c0,2.2,0,4.3,0,6.5c0,1,0.3,1.5,1.4,1.4c1.9-0.1,3.7-0.1,5.6,0
		c0.9,0,1.3-0.3,1.3-1.3c0-2.3,0-4.5,0-6.9c1.6,0.7,3.2,1.3,3.7,3.3c0.3,1.5,0.7,3,1,4.5c0.4,2-0.3,3.8-2.1,4.9
		c-0.1,0.1-0.2,0.2-0.4,0.2c-2.8,0.7-3,2.7-2.8,5.2c0.4,6.1,0.6,12.3,0.8,18.5c0.1,2.5-0.9,3.3-3.4,3.5c-4.4,0.2-4.9-1.1-4.8-4.7
		c0.2-6.4,0.2-12.9,0.4-19.3c0-1.2-0.3-1.8-1.4-2.2c-4.2-1.9-4.7-3-3.8-7.5c0.1-0.7,0.4-1.4,0.5-2.1c0.1-2.3,1.9-3,3.5-3.9
		C356.5,113.4,356.6,113.4,356.8,113.5z"/>
	<path id="XMLID_1_" class="st0" d="M330.4,116.7c-1.1,1.1-2.2,2.3-3.3,3.4c-0.5-0.9-0.6-1.8,0.3-2.6
		C328.2,116.7,327.7,117.2,330.4,116.7z"/>
</g>
<g id="XMLID_93_">
	<path id="XMLID_18_" class="st0" d="M236.3,255.3c0-2.8,0-5.5,0-8.4c6,0,12.1,0,18.2,0c0,2.8,0,5.5,0,8.4
		C248.5,255.3,242.5,255.3,236.3,255.3z"/>
	<path id="XMLID_17_" class="st0" d="M286.3,235.3c0,2.5,0.1,5-0.1,7.4c0,0.4-0.7,1.1-1.1,1.1c-5.6,0.1-11.3,0-17,0
		c0-2.9,0-5.7,0-8.5C274.1,235.3,280.1,235.3,286.3,235.3z"/>
	<path id="XMLID_16_" class="st0" d="M257.6,232.4c0-2.9,0-5.6,0-8.4c6,0,12,0,18,0c0,2.8,0,5.5,0,8.4
		C269.7,232.4,263.7,232.4,257.6,232.4z"/>
	<path id="XMLID_15_" class="st0" d="M275.4,253.6c0.1,1.2-0.8,1.8-1.7,1.8c-5.3,0.1-10.6,0-16,0c0-2.9,0-5.7,0-8.4
		c3.8,0,7.5,0,11.2,0C271,249.3,273.2,251.4,275.4,253.6z"/>
	<path id="XMLID_14_" class="st0" d="M264.6,242.9c0.1,0.2,0.2,0.4,0.5,0.8c-6.1,0-12.1,0-18.1,0c0-2.8,0-5.6,0-8.2
		c3.5,0,6.9,0,10.3,0C259.7,238,262.2,240.4,264.6,242.9z"/>
	<path id="XMLID_13_" class="st0" d="M254,232.2c-0.3,0.1-0.6,0.4-0.9,0.4c-5.4,0-10.7,0-16.1,0c-0.2,0-0.4-0.1-0.7-0.1
		c0-2.8,0-5.5,0-8.7c3.3,0.2,6.6,0.4,9.9,0.6C248.8,227,251.4,229.6,254,232.2z"/>
	<path id="XMLID_12_" class="st0" d="M243.6,235.3c0,2.9,0,5.6,0,8.5c-2.4,0-4.8,0-7.3,0c0-2.8,0-5.6,0-8.5
		C238.8,235.3,241.1,235.3,243.6,235.3z"/>
	<path id="XMLID_11_" class="st0" d="M282.6,247.1c1.2-0.1,2.3-0.2,3.6-0.4c0,3,0,5.8,0,8.7c-2.6,0-5.1,0-8,0
		c0.1-1.4,0.2-2.8,0.3-4.3C279.9,249.8,281.3,248.4,282.6,247.1z"/>
	<path id="XMLID_10_" class="st0" d="M254,232.2c-2.6-2.6-5.2-5.2-7.8-7.8c0.3-0.1,0.6-0.4,0.8-0.4c2.1,0,4.3-0.1,6.4,0
		c0.4,0,1.1,0.5,1.1,0.8c0.1,2.3,0.1,4.7,0,7C254.6,231.9,254.2,232,254,232.2z"/>
	<path id="XMLID_8_" class="st0" d="M264.6,242.9c-2.4-2.5-4.9-5-7.3-7.4c1.6-0.1,3.2-0.2,4.8-0.3c0.9,0,1.8,0,3.1,0
		C265,237.8,264.8,240.4,264.6,242.9z"/>
	<path id="XMLID_7_" class="st0" d="M275.4,253.6c-2.2-2.2-4.4-4.4-6.6-6.6c2.2-0.1,4.5-0.3,7.1-0.4
		C275.7,249.2,275.5,251.4,275.4,253.6z"/>
	<path id="XMLID_5_" class="st0" d="M282.6,247.1c-1.3,1.3-2.7,2.7-4,4c-0.1-1.4-0.2-2.7-0.4-4.4C279.8,246.8,281.2,247,282.6,247.1
		z"/>
</g>
<g id="XMLID_32_">
	<path id="XMLID_40_" class="st0" d="M137.8,480.7c0.1,0.7,0.3,1.4,0.3,2c0,4.2,0,8.4,0,12.6c0,0.6,0,1.2,0,1.9
		c0.8,0.1,1.3,0.2,2,0.4c0,1.5,0,3,0,4.8c2.4,0,4.6,0,7,0c0,2.3,0,4.4,0,6.6c-0.6,0-1.1,0-1.6,0c-10.9,0-21.7,0-32.6,0
		c-1.5,0-1.9-0.4-1.9-1.9c0-4.7-0.1-4.7,4.6-4.7c1.6,0,3.3-0.1,4.9,0c1.9,0.2,2.4-0.6,2.2-2.3c-0.1-0.8,0-1.7,0-2.6
		c1.3-0.1,2.4-0.2,3.6-0.3c0-1.2,0-2.3,0-3.4c0-7.5,0-14.9,0-22.4c0-0.6,0.3-1.3,0.4-1.9c0.8,0.8,1.5,1.6,2.3,2.4
		c1.1,1.1,2.2,2.1,3.4,3.2c0.3,0.3,0.5,0.7,0.8,1c0.6,0.7,1.2,1.3,1.9,2C136,479,136.9,479.8,137.8,480.7z M135,488.5
		c-1.1-1.1-2-1.9-2.9-2.8c-3.4,2.6-3.4,2.8,0,5.4C133,490.3,133.9,489.5,135,488.5z M134.7,480c-0.9-0.8-1.8-1.6-2.8-2.4
		c-1,0.8-1.8,1.6-3,2.6c1,1.1,1.9,1.9,2.9,3C133,482.1,133.8,481.2,134.7,480z M132,493.8c-0.8,0.8-1.6,1.4-2.2,2.2
		c-0.2,0.3,0,1.3,0,1.3c1.8,0.1,3.6,0.1,5.4,0.1c0-0.2,0.1-0.3,0.1-0.5C134.2,495.9,133.2,494.9,132,493.8z M135.1,486
		c0-1.3,0-2.2,0-3.1c-0.6,0.5-1.2,0.9-1.8,1.4C133.9,484.9,134.3,485.3,135.1,486z M135.1,494.3c0-1.3,0-2.2,0-3.4
		c-0.7,0.7-1.2,1.1-1.7,1.6C133.9,493,134.3,493.5,135.1,494.3z"/>
	<path id="XMLID_34_" class="st0" d="M133.2,476.1c-0.3-0.3-0.5-0.7-0.8-1c0.8-0.9,1.6-1.7,2.5-2.8c-1-0.9-2-1.8-2.9-2.6
		c-1,0.7-2,1.5-3,2.2c-0.8-0.8-1.5-1.6-2.3-2.4c-0.1-1.5-0.4-3.1-0.4-4.6c0-1.5-0.3-2.1-2-2.1c-5.7,0.1-11.4,0.1-17.1,0
		c-1.5,0-2.1,0.3-2,1.9c0.1,2.4,0,4.9,0,7.3c0,1.5-0.3,3.1,1.2,4.3c0.4,0.3,0.4,1.5,0.2,2.1c-0.4,1.3-1.2,2.4-1.7,3.6
		c-0.3,0.6-0.4,1.3-0.4,2c0,0.2,1.1,0.6,1.3,0.4c0.6-0.4,0.9-1.1,1.4-1.7c0.8,0.7,1,2.2,0.2,3.4c-0.7,1.1-2.6,1.5-3.9,0.7
		c-1.4-0.7-1.8-1.9-1.4-3.4c0.1-0.4,0.3-0.9,0.6-1.2c1.1-1.2,1.4-2.1,0-3.4c-0.9-0.8-0.7-2.1,0.2-3.1c0.3-0.4,0.8-0.8,0.8-1.2
		c0.1-3.8,0-7.7,0-11.7c-1.7,0-3.3,0-4.8,0c0-0.1-0.1-0.3-0.1-0.4c4.1-1.4,8.2-2.9,12.3-4.2c6-1.9,12-3.8,18-5.7
		c1.7-0.6,3.9-0.7,2.9-3.6c1,0,1.7,0,2.7,0c-0.7,2.5,1.3,3.4,2.8,4.5c1.8,1.4,3.6,2.8,5.5,4.1c1.2,0.8,2.6,1.3,4.2,2.1
		c0,0.6,0,1.7,0,3.2c-2.4,0-4.7,0.1-7.1,0c-1.4-0.1-1.9,0.4-1.9,1.9c0.1,4.7,0,9.4,0,14.2c0,0.6-0.2,1.2-0.3,1.8
		c-0.9-0.9-1.9-1.7-2.8-2.6c0.1-1,0.1-1.9,0.2-3.1C134.3,475.5,133.7,475.8,133.2,476.1z M131.9,453.6c-5.6,1.8-10.8,3.4-16.1,5.1
		c0,0.1,0,0.2,0.1,0.3c5.3,0,10.7,0,16,0C131.9,457.2,131.9,455.5,131.9,453.6z M134.7,458.9c2.3,0,4.4,0,6.9,0
		c-2.3-1.7-4.2-3.2-6.1-4.6c-0.2-0.1-0.4-0.2-0.7-0.3C134.7,455.7,134.7,457.3,134.7,458.9z M135.3,463.4c-0.1-0.2-0.2-0.3-0.3-0.5
		c-0.6,0-1.2-0.1-1.9-0.1c-1.3,0.1-2.5,0.4-3.7,0.5c0.8,1.1,1.6,2.3,2.5,3.6C133.1,465.7,134.2,464.5,135.3,463.4z M133.5,467.8
		c0.6,0.8,1,1.4,1.6,2.3c0-1.4,0-2.4,0-3.8C134.3,467,133.8,467.5,133.5,467.8z"/>
	<path id="XMLID_19_" class="st0" d="M147.1,464.1c0,1.3,0,2.5,0,3.8c-2.2,0-4.4,0-6.7,0c0-1.2,0-2.4,0-3.8
		C142.6,464.1,144.8,464.1,147.1,464.1z"/>
</g>
<g id="XMLID_126_">
	<path id="XMLID_134_" class="st0" d="M137.8-19.3c0.1,0.7,0.3,1.4,0.3,2c0,4.2,0,8.4,0,12.6c0,0.6,0,1.2,0,1.9
		c0.8,0.1,1.3,0.2,2,0.4c0,1.5,0,3,0,4.8c2.4,0,4.6,0,7,0c0,2.3,0,4.4,0,6.6c-0.6,0-1.1,0-1.6,0c-10.9,0-21.7,0-32.6,0
		c-1.5,0-1.9-0.4-1.9-1.9c0-4.7-0.1-4.7,4.6-4.7c1.6,0,3.3-0.1,4.9,0c1.9,0.2,2.4-0.6,2.2-2.3c-0.1-0.8,0-1.7,0-2.6
		c1.3-0.1,2.4-0.2,3.6-0.3c0-1.2,0-2.3,0-3.4c0-7.5,0-14.9,0-22.4c0-0.6,0.3-1.3,0.4-1.9c0.8,0.8,1.5,1.6,2.3,2.4
		c1.1,1.1,2.2,2.1,3.4,3.2c0.3,0.3,0.5,0.7,0.8,1c0.6,0.7,1.2,1.3,1.9,2C136-21,136.9-20.2,137.8-19.3z M135-11.5
		c-1.1-1.1-2-1.9-2.9-2.8c-3.4,2.6-3.4,2.8,0,5.4C133-9.7,133.9-10.5,135-11.5z M134.7-20c-0.9-0.8-1.8-1.6-2.8-2.4
		c-1,0.8-1.8,1.6-3,2.6c1,1.1,1.9,1.9,2.9,3C133-17.9,133.8-18.8,134.7-20z M132-6.2c-0.8,0.8-1.6,1.4-2.2,2.2c-0.2,0.3,0,1.3,0,1.3
		c1.8,0.1,3.6,0.1,5.4,0.1c0-0.2,0.1-0.3,0.1-0.5C134.2-4.1,133.2-5.1,132-6.2z M135.1-14c0-1.3,0-2.2,0-3.1
		c-0.6,0.5-1.2,0.9-1.8,1.4C133.9-15.1,134.3-14.7,135.1-14z M135.1-5.7c0-1.3,0-2.2,0-3.4c-0.7,0.7-1.2,1.1-1.7,1.6
		C133.9-7,134.3-6.5,135.1-5.7z"/>
	<path id="XMLID_128_" class="st0" d="M133.2-23.9c-0.3-0.3-0.5-0.7-0.8-1c0.8-0.9,1.6-1.7,2.5-2.8c-1-0.9-2-1.8-2.9-2.6
		c-1,0.7-2,1.5-3,2.2c-0.8-0.8-1.5-1.6-2.3-2.4c-0.1-1.5-0.4-3.1-0.4-4.6c0-1.5-0.3-2.1-2-2.1c-5.7,0.1-11.4,0.1-17.1,0
		c-1.5,0-2.1,0.3-2,1.9c0.1,2.4,0,4.9,0,7.3c0,1.5-0.3,3.1,1.2,4.3c0.4,0.3,0.4,1.5,0.2,2.1c-0.4,1.3-1.2,2.4-1.7,3.6
		c-0.3,0.6-0.4,1.3-0.4,2c0,0.2,1.1,0.6,1.3,0.4c0.6-0.4,0.9-1.1,1.4-1.7c0.8,0.7,1,2.2,0.2,3.4c-0.7,1.1-2.6,1.5-3.9,0.7
		c-1.4-0.7-1.8-1.9-1.4-3.4c0.1-0.4,0.3-0.9,0.6-1.2c1.1-1.2,1.4-2.1,0-3.4c-0.9-0.8-0.7-2.1,0.2-3.1c0.3-0.4,0.8-0.8,0.8-1.2
		c0.1-3.8,0-7.7,0-11.7c-1.7,0-3.3,0-4.8,0c0-0.1-0.1-0.3-0.1-0.4c4.1-1.4,8.2-2.9,12.3-4.2c6-1.9,12-3.8,18-5.7
		c1.7-0.6,3.9-0.7,2.9-3.6c1,0,1.7,0,2.7,0c-0.7,2.5,1.3,3.4,2.8,4.5c1.8,1.4,3.6,2.8,5.5,4.1c1.2,0.8,2.6,1.3,4.2,2.1
		c0,0.6,0,1.7,0,3.2c-2.4,0-4.7,0.1-7.1,0c-1.4-0.1-1.9,0.4-1.9,1.9c0.1,4.7,0,9.4,0,14.2c0,0.6-0.2,1.2-0.3,1.8
		c-0.9-0.9-1.9-1.7-2.8-2.6c0.1-1,0.1-1.9,0.2-3.1C134.3-24.5,133.7-24.2,133.2-23.9z M131.9-46.4c-5.6,1.8-10.8,3.4-16.1,5.1
		c0,0.1,0,0.2,0.1,0.3c5.3,0,10.7,0,16,0C131.9-42.8,131.9-44.5,131.9-46.4z M134.7-41.1c2.3,0,4.4,0,6.9,0
		c-2.3-1.7-4.2-3.2-6.1-4.6c-0.2-0.1-0.4-0.2-0.7-0.3C134.7-44.3,134.7-42.7,134.7-41.1z M135.3-36.6c-0.1-0.2-0.2-0.3-0.3-0.5
		c-0.6,0-1.2-0.1-1.9-0.1c-1.3,0.1-2.5,0.4-3.7,0.5c0.8,1.1,1.6,2.3,2.5,3.6C133.1-34.3,134.2-35.5,135.3-36.6z M133.5-32.2
		c0.6,0.8,1,1.4,1.6,2.3c0-1.4,0-2.4,0-3.8C134.3-33,133.8-32.5,133.5-32.2z"/>
	<path id="XMLID_127_" class="st0" d="M147.1-35.9c0,1.3,0,2.5,0,3.8c-2.2,0-4.4,0-6.7,0c0-1.2,0-2.4,0-3.8
		C142.6-35.9,144.8-35.9,147.1-35.9z"/>
</g>
<g id="XMLID_44_">
	<path id="XMLID_42_" class="st0" d="M44,148.2c1.3,5.2,2.5,10.2,3.7,15.3c0.1,0.5-0.4,1.6-0.9,1.8c-9.2,3.9-18.4,7.7-27.6,11.5
		c-0.5,0.2-1.2,0.3-1.8,0.1c-2.5-0.7-5-1.3-7.5-2.2c-0.7-0.2-1.6-1-1.8-1.6c-1.3-4.9-2.5-9.8-3.7-14.8c-0.1-0.4,0.3-1.2,0.7-1.5
		c2.1-1.9,4.2-3.7,6.4-5.5c0.4-0.3,1-0.5,1.5-0.6c10-0.9,20-1.7,30.1-2.6C43.2,148.1,43.5,148.1,44,148.2z"/>
	<path id="XMLID_53_" class="st0" d="M2,185.6c1.9-0.5,3.6,0.8,4.4-1.3c0.1-0.2,0.6-0.2,0.9-0.2c3.6,0,7.3,0,11,0
		c-0.7,2.3-1.3,4.5-2.1,6.9c-4.8,0-9.9,0-15,0c-0.3-1.3-0.5-2.7-1-3.9c-1.4-3.7-4.1-6.1-8-6.6c-4.2-0.6-7.6,0.9-10,4.5
		c-1.1,1.7-2.1,3.5-3.5,5c-0.8,0.8-2.2,1.1-3.7,1.7c0-2,0-3.3,0-4.7c3.3-0.8,3.6-1.2,3.2-5.3c-0.2,0.1-0.4,0.1-0.6,0.2
		c-0.4-0.9-1.1-1.8-1.1-2.7c0-0.7,0.8-1.5,1.3-2.1c0.6-1.2,1.1-2.4,1.8-3.5c3-4,6.1-8,9.1-12c0.7-1,1.5-1.4,2.7-1.4
		c3.9,0.1,7.7,0,12,0c0,1.9,0,3.7,0,5.6c0,3.8,0,7.6,0,11.4c0,0.9,0.3,2-1.1,2.2c-0.2,0-0.5,0.5-0.5,0.8C2,181.8,2,183.5,2,185.6z
		 M-15.1,172.8c4.7,0,8.8,0,12.9,0c0.3,0,0.8-0.6,0.9-0.9c0.1-2.8,0-5.7,0-8.5c-1.9,0-3.7,0-5.5,0c-0.5,0-1.2,0.1-1.5,0.5
		C-10.5,166.6-12.6,169.5-15.1,172.8z"/>
	<path id="XMLID_50_" class="st0" d="M34.6,190.5c0,4.3-3.4,7.7-7.8,7.6c-4.3,0-7.7-3.5-7.7-7.7c0-4.3,3.5-7.6,7.8-7.6
		C31.4,182.8,34.6,186.1,34.6,190.5z M23,190.4c0,2.2,1.7,4,3.8,4c2.3,0.1,4.1-1.7,4.2-4c0.1-2.1-1.9-4.1-4.1-4
		C24.6,186.5,23,188.2,23,190.4z"/>
	<path id="XMLID_47_" class="st0" d="M-9.2,198.1c-4.3,0-7.7-3.3-7.8-7.7c-0.1-4.3,3.3-7.7,7.7-7.7c4.4,0,7.9,3.4,7.8,7.6
		C-1.6,194.7-4.9,198.1-9.2,198.1z M-5.1,190.4c0-2.1-2-4-4.2-3.9c-2.1,0-3.9,1.9-3.9,4c0,2.2,1.9,4,4.1,4
		C-7,194.4-5.1,192.5-5.1,190.4z"/>
	<path id="XMLID_33_" class="st0" d="M42,172.2c0,2.7,0.1,5.6-0.1,8.4c0,0.4-0.8,1.2-1.2,1.2c-3.6-0.3-7.3,0.7-11-1
		c-1.6-0.8-3.7-0.4-5.7-0.6c0-1.2,1.1-1.9,3.2-1.9c3.6,0.1,7.1,0,10.9,0C39,175.9,37,171.9,42,172.2z"/>
	<path id="XMLID_31_" class="st0" d="M37.6,191c-0.7-2.4-1.4-4.5-2.1-6.7c4.3-1.7,9.1,1.4,7.9,6.6c-0.6,0-1.3,0.1-2,0.1
		C40.1,191,38.8,191,37.6,191z"/>
</g>
<g id="XMLID_61_">
	<path id="XMLID_116_" class="st0" d="M544,148.2c1.3,5.2,2.5,10.2,3.7,15.3c0.1,0.5-0.4,1.6-0.9,1.8c-9.2,3.9-18.4,7.7-27.6,11.5
		c-0.5,0.2-1.2,0.3-1.8,0.1c-2.5-0.7-5-1.3-7.5-2.2c-0.7-0.2-1.6-1-1.8-1.6c-1.3-4.9-2.5-9.8-3.7-14.8c-0.1-0.4,0.3-1.2,0.7-1.5
		c2.1-1.9,4.2-3.7,6.4-5.5c0.4-0.3,1-0.5,1.5-0.6c10-0.9,20-1.7,30.1-2.6C543.2,148.1,543.5,148.1,544,148.2z"/>
	<path id="XMLID_112_" class="st0" d="M502,185.6c1.9-0.5,3.6,0.8,4.4-1.3c0.1-0.2,0.6-0.2,0.9-0.2c3.6,0,7.3,0,11,0
		c-0.7,2.3-1.3,4.5-2.1,6.9c-4.8,0-9.9,0-15,0c-0.3-1.3-0.5-2.7-1-3.9c-1.4-3.7-4.1-6.1-8-6.6c-4.2-0.6-7.6,0.9-10,4.5
		c-1.1,1.7-2.1,3.5-3.5,5c-0.8,0.8-2.2,1.1-3.7,1.7c0-2,0-3.3,0-4.7c3.3-0.8,3.6-1.2,3.2-5.3c-0.2,0.1-0.4,0.1-0.6,0.2
		c-0.4-0.9-1.1-1.8-1.1-2.7c0-0.7,0.8-1.5,1.3-2.1c0.6-1.2,1.1-2.4,1.8-3.5c3-4,6.1-8,9.1-12c0.7-1,1.5-1.4,2.7-1.4
		c3.9,0.1,7.7,0,12,0c0,1.9,0,3.7,0,5.6c0,3.8,0,7.6,0,11.4c0,0.9,0.3,2-1.1,2.2c-0.2,0-0.5,0.5-0.5,0.8
		C502,181.8,502,183.5,502,185.6z M484.9,172.8c4.7,0,8.8,0,12.9,0c0.3,0,0.8-0.6,0.9-0.9c0.1-2.8,0-5.7,0-8.5c-1.9,0-3.7,0-5.5,0
		c-0.5,0-1.2,0.1-1.5,0.5C489.5,166.6,487.4,169.5,484.9,172.8z"/>
	<path id="XMLID_108_" class="st0" d="M534.6,190.5c0,4.3-3.4,7.7-7.8,7.6c-4.3,0-7.7-3.5-7.7-7.7c0-4.3,3.5-7.6,7.8-7.6
		C531.4,182.8,534.6,186.1,534.6,190.5z M523,190.4c0,2.2,1.7,4,3.8,4c2.3,0.1,4.1-1.7,4.2-4c0.1-2.1-1.9-4.1-4.1-4
		C524.6,186.5,523,188.2,523,190.4z"/>
	<path id="XMLID_69_" class="st0" d="M490.8,198.1c-4.3,0-7.7-3.3-7.8-7.7c-0.1-4.3,3.3-7.7,7.7-7.7c4.4,0,7.9,3.4,7.8,7.6
		C498.4,194.7,495.1,198.1,490.8,198.1z M494.9,190.4c0-2.1-2-4-4.2-3.9c-2.1,0-3.9,1.9-3.9,4c0,2.2,1.9,4,4.1,4
		C493,194.4,494.9,192.5,494.9,190.4z"/>
	<path id="XMLID_65_" class="st0" d="M542,172.2c0,2.7,0.1,5.6-0.1,8.4c0,0.4-0.8,1.2-1.2,1.2c-3.6-0.3-7.3,0.7-11-1
		c-1.6-0.8-3.7-0.4-5.7-0.6c0-1.2,1.1-1.9,3.2-1.9c3.6,0.1,7.1,0,10.9,0C539,175.9,537,171.9,542,172.2z"/>
	<path id="XMLID_63_" class="st0" d="M537.6,191c-0.7-2.4-1.4-4.5-2.1-6.7c4.3-1.7,9.1,1.4,7.9,6.6c-0.6,0-1.3,0.1-2,0.1
		C540.1,191,538.8,191,537.6,191z"/>
</g>
<g id="XMLID_49_">
	<path id="XMLID_46_" class="st0" d="M296.5,22.8c-0.6,1.6,0.9,4.2-2.2,4.4c-1.5,0.1-1.9-0.6-2.2-4.4c-1.2-0.3-2.3-1.1-1.9-2.5
		c0.2-0.9,1.1-1.7,1.9-2.4c0.4-6.4,1.7-12.7,6.6-17.5c3.1-3.1,7.1-4.7,11.7-5.4c0,0.6,0,1.1,0,1.7c0,2.3-0.1,4.7,0,7
		c0.1,2-0.1,3.6-1.8,5.2c-2.7,2.6-2.5,6.8-0.3,9.7c2.3,2.9,6.4,3.9,9.7,2.2c3.2-1.6,5.2-5.3,4.1-8.7c-0.5-1.6-1.8-2.9-2.6-4.4
		c-0.4-0.6-0.8-1.2-0.8-1.9c-0.1-3.6,0-7.2,0-10.7c9.6-0.8,18.1,9.4,19.2,22.9c1.5,0.3,2.5,1.2,2.2,2.9c-0.3,1.7-1.7,1.7-3.2,1.7
		c0,1.2,0,2.4,0,3.5c0,1.4-0.8,2-2,2c-1.3,0-2-0.7-1.9-2.1c0.1-1.1,0-2.2,0-3.4C320.7,22.8,308.6,22.8,296.5,22.8z"/>
	<path id="XMLID_45_" class="st0" d="M314.5,18.5c-2.7,0-4.7-2.1-4.7-4.9c0-2.7,2.2-4.9,4.9-4.8c2.6,0,4.9,2.3,4.8,4.9
		C319.5,16.5,317.3,18.5,314.5,18.5z"/>
	<path id="XMLID_43_" class="st0" d="M316.6-0.3c0,1.6,0,3.3,0,4.9c0,1.3-0.6,2.1-1.9,2.2c-1.2,0-2-0.8-2-1.9
		c-0.1-3.4-0.1-6.9,0-10.3c0-1.1,0.8-2.1,2.1-2c1.3,0.1,1.9,1,1.9,2.2C316.6-3.6,316.6-1.9,316.6-0.3z"/>
</g>
<g id="XMLID_57_">
	<path id="XMLID_60_" class="st0" d="M296.5,522.8c-0.6,1.6,0.9,4.2-2.2,4.4c-1.5,0.1-1.9-0.6-2.2-4.4c-1.2-0.3-2.3-1.1-1.9-2.5
		c0.2-0.9,1.1-1.7,1.9-2.4c0.4-6.4,1.7-12.7,6.6-17.5c3.1-3.1,7.1-4.7,11.7-5.4c0,0.6,0,1.1,0,1.7c0,2.3-0.1,4.7,0,7
		c0.1,2-0.1,3.6-1.8,5.2c-2.7,2.6-2.5,6.8-0.3,9.7c2.3,2.9,6.4,3.9,9.7,2.2c3.2-1.6,5.2-5.3,4.1-8.7c-0.5-1.6-1.8-2.9-2.6-4.4
		c-0.4-0.6-0.8-1.2-0.8-1.9c-0.1-3.6,0-7.2,0-10.7c9.6-0.8,18.1,9.4,19.2,22.9c1.5,0.3,2.5,1.2,2.2,2.9c-0.3,1.7-1.7,1.7-3.2,1.7
		c0,1.2,0,2.4,0,3.5c0,1.4-0.8,2-2,2c-1.3,0-2-0.7-1.9-2.1c0.1-1.1,0-2.2,0-3.4C320.7,522.8,308.6,522.8,296.5,522.8z"/>
	<path id="XMLID_59_" class="st0" d="M314.5,518.5c-2.7,0-4.7-2.1-4.7-4.9c0-2.7,2.2-4.9,4.9-4.8c2.6,0,4.9,2.3,4.8,4.9
		C319.5,516.5,317.3,518.5,314.5,518.5z"/>
	<path id="XMLID_58_" class="st0" d="M316.6,499.7c0,1.6,0,3.3,0,4.9c0,1.3-0.6,2.1-1.9,2.2c-1.2,0-2-0.8-2-1.9
		c-0.1-3.4-0.1-6.9,0-10.3c0-1.1,0.8-2.1,2.1-2c1.3,0.1,1.9,1,1.9,2.2C316.6,496.4,316.6,498.1,316.6,499.7z"/>
</g>
<g id="XMLID_94_">
	<path id="XMLID_55_" class="st0" d="M367.4,268c14.6-0.3,29-0.5,43.5-0.8c0.1,0.2,0.2,0.3,0.4,0.5c-0.6,0.7-1.3,1.4-1.9,2.2
		c-0.2,0.3-0.4,0.7-0.6,1.1c-1.2,3.1-2.4,6.2-3.7,9.3c-0.2,0.5-0.8,1.1-1.3,1.2c-3.4,0.8-6.9,1.6-10.3,2.3c-0.5,0.1-1.2-0.1-1.5-0.5
		c-4.2-4.8-9.5-5.5-14.9-2.1c-0.2,0.1-0.4,0.2-0.7,0.4c-1.5-3.2-3-6.4-4.5-9.5c-0.2-0.5-0.7-1-1.1-1.1
		C368.2,270.7,368.2,270.7,367.4,268z"/>
	<path id="XMLID_54_" class="st0" d="M408.3,265.4c-12.2,0.2-24.1,0.3-36.2,0.5c0.7-0.8,1.2-1.4,1.8-1.9c2-1.9,4-3.7,6-5.5
		c0.3-0.3,0.8-0.6,1.2-0.6c2.6,0.2,5.2,0.5,7.7,0.7c1,0.1,2.1,0.5,3.1,0.3c2-0.4,3.7,0.1,5.5,0.9c1.7,0.7,3.5,1.2,5.3,1.7
		C404.8,262.1,406.5,263.4,408.3,265.4z"/>
	<path id="XMLID_52_" class="st0" d="M393.6,285.7c1.8-0.1,3.5-0.3,5.3-0.4c1.9-0.1,3.4,0.7,4.3,2.4c0.9,1.5,1.6,3.2,2.4,4.8
		c0.3,0.5,0.5,1,0.9,1.4c0.8,0.9,1.9,0.6,2-0.5c0.3-1.9,0.5-3.9,0.3-5.8c-0.5-4.2,0-8.1,1.6-12c1.4-3.3,2.5-6.7,3.9-10
		c0.3-0.6,1-1.1,1.7-1.5c0.6-0.3,1.3-0.3,1.9-0.6c3.4-1.3,6.9-2.7,10.3-4c0.7-0.3,1.5-0.4,2.3-0.6c0.4,1.3,0.8,2.4,1.2,3.8
		c-3,0.9-5.9,2.4-8.8,2.5c-1.9,0.1-3.6,0.5-5.3,1c-0.6,0.1-1.2,0.8-1.4,1.3c-1.6,4-3.3,7.9-4.5,12.1c-0.7,2.2-0.4,4.7-0.5,7.1
		c-0.1,2.3,0,4.7-0.2,7c-0.1,1.5-1.1,2.7-2.7,3c-1.6,0.3-3-0.3-3.9-1.6c-0.7-1.1-1.2-2.2-1.8-3.4c-1.8-4.1-2.3-4.4-6.7-3.9
		C394,288,394,288,393.6,285.7z"/>
	<path id="XMLID_95_" class="st0" d="M383.4,297.9c-4.5,0-8.1-3.7-8-8.2c0.1-4.4,3.7-7.9,8.1-7.9c4.4,0.1,8,3.8,8,8.1
		C391.5,294.3,387.8,297.9,383.4,297.9z M383.4,294.7c2.7,0,4.9-2.1,5-4.8c0.1-2.7-2.1-4.9-4.8-5c-2.9,0-5,2-5,4.8
		C378.5,292.5,380.6,294.7,383.4,294.7z"/>
</g>
<g id="XMLID_141_">
	<path id="XMLID_147_" class="st0" d="M453.9,379.2c1.1-0.2,2.2-0.7,3.2-0.6c1.1,0.1,2.2,0.8,3.6,1.4c0-5,0-9.7,0-14.7
		c3.1,0,6-0.1,8.8,0.1c1,0.1,2.3,0.7,3,1.5c1.7,2.1,3.1,4.4,4.6,6.6c2,2.9,4,5.7,6.2,8.9c0.4-0.7,0.6-1.1,0.8-1.5
		c1.7-4,3.4-8,5.1-12.1c1.1-2.5,2.2-2.6,4.8-2.4c4.3,0.3,8.6,0.1,12.9-0.3c1.8-0.2,3.4,0.1,4.3,1.7c2.5,4.7,5.1,9.4,7.7,14.1
		c1.3,2.3,3.5,4.4,1.7,7.4c-0.2,0.3,0,0.8,0,1.1c0.2,2.5,0.4,5,0.7,7.6c0.3,2.5-0.6,3.4-3.1,3.1c-3.6-0.5-7.1-0.9-10.7-1.5
		c-0.9-0.1-1.9-0.7-2.5-1.3c-1.3-1.5-2.3-3.2-3.9-5.4c1.3,0.1,2.2-0.2,2.7,0.2c1,0.6,1.7,0.8,2.9,0c2.6-1.7,5.2-3.2,7.9-4.8
		c2-1.2,2.3-2.3,1-4.3c-2.2-3.5-4.4-7-6.7-10.5c-0.4-0.6-1.2-1.3-1.9-1.4c-4-0.2-8.1-0.4-12.1-0.3c-0.8,0-1.7,1.3-2.4,2.1
		c-0.5,0.6-0.7,1.5-1,2.3c-1.8,5.3-4.7,10.1-5.3,15.8c-0.3,2.8-2.6,5.2-4.8,5.2c-3.2,0-6.4-0.5-9.5-0.7
		C465.8,390.9,459.9,385,453.9,379.2z M469.5,370.3c-0.7-0.9-3-0.7-4.8-1.1c0,4.9,0,9.2,0,13.6c4.2,0,8.3,0,13.1,0
		C474.9,378.4,472.4,374.1,469.5,370.3z"/>
	<path id="XMLID_143_" class="st0" d="M487.8,399.5c3.9,0,6.6,2.6,7.4,6.6c0.6,3.2-1.2,6.8-4.6,7.8c-2.3,0.7-4.8,0.7-7.2,0.7
		c-13.2,0.1-26.4,0-39.6,0c-4.6,0-7.8-3.2-7.7-7.6c0-4.4,3.2-7.5,7.8-7.5c7.1,0,14.3,0,21.4,0C472.7,399.5,480.2,399.5,487.8,399.5z
		 M440.6,407c0.1,2.2,2,4.2,4.2,4.1c2.3,0,4.3-2.1,4.2-4.3c-0.1-2.2-2-4-4.2-4C442.6,402.8,440.6,404.9,440.6,407z M487.2,411.2
		c2-0.1,3.9-2.3,3.8-4.4c-0.1-1.7-2.4-3.9-4-3.8c-2.3,0.1-4.2,2.2-4.2,4.3C482.9,409.4,485.1,411.3,487.2,411.2z"/>
	<path id="XMLID_142_" class="st0" d="M473.2,396.6c-5.2-5.2-10.4-10.3-15.7-15.5c-2.7-2.7-6.9-3.7-10.4-2.1c0,0-0.1,0-0.1,0
		c-1,0.4-1.9,2.1-2,3.3c-0.3,4.1-0.2,8.3-0.2,12.4c0,1.3,0.2,2.3,1.9,2.3c8.7,0,17.3,0,26-0.1C472.8,397,473,396.7,473.2,396.6z"/>
</g>
<g id="XMLID_117_">
	<path id="XMLID_123_" class="st0" d="M-46.1,379.2c1.1-0.2,2.2-0.7,3.2-0.6c1.1,0.1,2.2,0.8,3.6,1.4c0-5,0-9.7,0-14.7
		c3.1,0,6-0.1,8.8,0.1c1,0.1,2.3,0.7,3,1.5c1.7,2.1,3.1,4.4,4.6,6.6c2,2.9,4,5.7,6.2,8.9c0.4-0.7,0.6-1.1,0.8-1.5
		c1.7-4,3.4-8,5.1-12.1c1.1-2.5,2.2-2.6,4.8-2.4c4.3,0.3,8.6,0.1,12.9-0.3c1.8-0.2,3.4,0.1,4.3,1.7c2.5,4.7,5.1,9.4,7.7,14.1
		c1.3,2.3,3.5,4.4,1.7,7.4c-0.2,0.3,0,0.8,0,1.1c0.2,2.5,0.4,5,0.7,7.6c0.3,2.5-0.6,3.4-3.1,3.1c-3.6-0.5-7.1-0.9-10.7-1.5
		c-0.9-0.1-1.9-0.7-2.5-1.3c-1.3-1.5-2.3-3.2-3.9-5.4c1.3,0.1,2.2-0.2,2.7,0.2c1,0.6,1.7,0.8,2.9,0c2.6-1.7,5.2-3.2,7.9-4.8
		c2-1.2,2.3-2.3,1-4.3c-2.2-3.5-4.4-7-6.7-10.5c-0.4-0.6-1.2-1.3-1.9-1.4c-4-0.2-8.1-0.4-12.1-0.3c-0.8,0-1.7,1.3-2.4,2.1
		c-0.5,0.6-0.7,1.5-1,2.3c-1.8,5.3-4.7,10.1-5.3,15.8c-0.3,2.8-2.6,5.2-4.8,5.2c-3.2,0-6.4-0.5-9.5-0.7
		C-34.2,390.9-40.1,385-46.1,379.2z M-30.5,370.3c-0.7-0.9-3-0.7-4.8-1.1c0,4.9,0,9.2,0,13.6c4.2,0,8.3,0,13.1,0
		C-25.1,378.4-27.6,374.1-30.5,370.3z"/>
	<path id="XMLID_119_" class="st0" d="M-12.2,399.5c3.9,0,6.6,2.6,7.4,6.6c0.6,3.2-1.2,6.8-4.6,7.8c-2.3,0.7-4.8,0.7-7.2,0.7
		c-13.2,0.1-26.4,0-39.6,0c-4.6,0-7.8-3.2-7.7-7.6c0-4.4,3.2-7.5,7.8-7.5c7.1,0,14.3,0,21.4,0C-27.3,399.5-19.8,399.5-12.2,399.5z
		 M-59.4,407c0.1,2.2,2,4.2,4.2,4.1c2.3,0,4.3-2.1,4.2-4.3c-0.1-2.2-2-4-4.2-4C-57.4,402.8-59.4,404.9-59.4,407z M-12.8,411.2
		c2-0.1,3.9-2.3,3.8-4.4c-0.1-1.7-2.4-3.9-4-3.8c-2.3,0.1-4.2,2.2-4.2,4.3C-17.1,409.4-14.9,411.3-12.8,411.2z"/>
	<path id="XMLID_118_" class="st0" d="M-26.8,396.6c-5.2-5.2-10.4-10.3-15.7-15.5c-2.7-2.7-6.9-3.7-10.4-2.1c0,0-0.1,0-0.1,0
		c-1,0.4-1.9,2.1-2,3.3c-0.3,4.1-0.2,8.3-0.2,12.4c0,1.3,0.2,2.3,1.9,2.3c8.7,0,17.3,0,26-0.1C-27.2,397-27,396.7-26.8,396.6z"/>
</g>
<g id="XMLID_67_">
	<path id="XMLID_68_" class="st0" d="M302.5,373.3c2.5,1.5,4.8,2.9,7.1,4.3c0.4,0.3,0.9,0.5,1.3,0.8c0.4,0.4,1,1,0.9,1.4
		c-0.1,0.4-0.8,0.9-1.4,1c-3,0.9-6.1,1.7-9.1,2.5c-8.3,2.3-16.6,4.5-24.9,6.8c-0.3,0.1-0.7,0.2-1,0.1c-0.9-0.1-1.1-0.7-0.6-1.4
		c3.6-4.6,7.2-9.3,10.7-13.9c1.6-2.1,3.3-4.2,4.9-6.4c1-1.3,1.7-1.5,3.1-0.6c1.8,1.1,3.6,2.2,5.3,3.2c1.2,0.7,3.6-0.6,3.6-2
		c0-2.3,0-4.6-0.1-6.9c0-0.8,0.2-1.3,0.9-1.6c0.6-0.3,1.1-0.6,1.7-0.9c0.9-0.4,1.5-0.9,1.6-2c0.1-0.6,0.8-1.3,1.4-1.6
		c3.2-1.9,6.5-3.6,9.7-5.4c1.5-0.9,3-0.5,3.9,1.1c0.8,1.4,0.4,3-1,3.9c-1.7,1-3.4,1.9-5.1,2.9c-1.4,0.8-2.8,1.5-4.2,2.4
		c-1,0.6-1.9,1-3.2,0.7c-0.6-0.2-1.4,0.6-2.2,0.9c-1.1,0.3-0.9,1.2-0.9,2c0,2.1,0.1,4.3,0,6.4c0,0.5-0.4,1-0.7,1.3
		C304,372.5,303.3,372.8,302.5,373.3z M301.3,373.6c-1-0.7-1.7-1.2-2.5-1.7c-3.2,2.6-6.2,5.2-9.3,7.7c0,0.1,0.1,0.1,0.1,0.2
		C293.4,377.8,297.2,375.8,301.3,373.6z"/>
</g>
<g id="XMLID_72_">
	<path id="XMLID_107_" class="st0" d="M92.4,250.3c15.3,13.6,16.5,15.2,14,18.7c-8.2-5-8.3-4.8-13.6,4.1c-1,1.7-4,3-6.1,3
		c-1.5,0-4.1-2.5-4.1-4c0-2.1,1.6-4.3,3-6.2c0.7-1,2.5-1.1,3.6-1.8c3.7-2.2,5.3-5,2.4-9.1c-0.8-1.2-0.8-3-1.2-4.5
		C91.1,250.5,91.8,250.4,92.4,250.3z"/>
	<path id="XMLID_106_" class="st0" d="M123.5,242.6c-1.8,0.4-3.6,0.8-5.7,1.2c-0.3-1.7-0.6-3.1-1-5.1c-1.7,0.8-3,1.6-4.4,2.1
		c-1.3,0.4-2.7,0.5-4,0.8c0.4-1.5,0.7-3,1.3-4.4c0.3-0.8,1.1-1.4,1.7-2.1c-0.4-0.4-0.8-0.7-1.2-1.1c-3.4,3.8-6.8,7.7-10.5,11.8
		c4.4,4.5,8.6,8.7,13.1,13.1c4.6-3.9,8.9-7.6,13.2-11.4c0.3,0.4,0.6,0.7,1,1.1c-4.7,4.4-9.4,8.7-14,13c-5.3-5-10.8-10.3-16.1-15.2
		c3.8-4.4,7.7-8.3,10.9-12.7c2.4-3.4,4.5-2.9,7.2-0.8c3.3,2.7,6.7,5.4,10,8C124.5,241.4,124,242,123.5,242.6z"/>
	<path id="XMLID_105_" class="st0" d="M126.4,253.4c1.6,3.6,3.1,6,3.8,8.7c0.4,1.3-0.2,3.3-1.1,4.5c-0.5,0.7-2.9,0.9-3.6,0.4
		c-1.1-0.9-2.4-2.8-2.2-4.1C123.7,260,125.1,257.2,126.4,253.4z"/>
	<path id="XMLID_104_" class="st0" d="M111.1,264.1c-5.4-5.5-10.8-11-16.2-16.5c-0.2,0.2-0.5,0.4-0.7,0.7c5.3,5.6,10.6,11.1,16,16.7
		C110.4,264.7,110.7,264.4,111.1,264.1z"/>
</g>
<g id="XMLID_81_">
	<path id="XMLID_99_" class="st0" d="M491.1,49.6c-1.1-1.1-2.5-2.1-3.3-3.4c-0.7-1.1-0.7-2.5-1-3.8c-1.4-6.6-1.4-6.6-9.2-5.6
		c0.8,3.8,1.5,7.7,2.2,11.5c-0.3,0.4-0.6,0.8-0.9,1.2c-1.2-1-3.2-1.8-3.5-3c-3-12.1-5.6-24.3-8.6-37.3c5.4,0,10.3-0.1,15.1,0.1
		c0.9,0,2.1,1.6,2.4,2.6c2.8,12.1,5.5,24.3,8.2,36.5C492.1,48.8,491.6,49.2,491.1,49.6z M480.5,17.2c-0.1-5.8-0.7-6.2-8-4.7
		C472,19.3,476.8,16.8,480.5,17.2z M474.1,20.8c0.4,1.5,0.7,3,1,4.3c2.8,0,5,0,7.3,0C482.2,19.6,481.5,19.2,474.1,20.8z M476,28.4
		c1,5.9,1.5,6.1,8.5,4.5C484.6,26.1,479.9,28.6,476,28.4z"/>
	<path id="XMLID_98_" class="st0" d="M453.3,48.9c2.9-13,5.6-25.4,8.6-37.8c0.2-0.7,1.6-1.2,2.4-1.7c0.5,0.9,1.2,1.8,1.4,2.8
		c0.4,2.3,0.6,4.6,0.9,7.1c-1,1.2-2.4,3-4.2,5.1c3.1,0.9,5.1,1.4,7.1,2c0,0.5-0.1,0.9-0.1,1.4c-1.8,0.2-3.9-0.2-5.4,0.6
		c-1.3,0.7-1.9,2.6-2.8,4c0.3,0.4,0.6,0.8,1,1.2c2.6-0.1,5.3-0.3,8.2-0.5c3.5,7.6,1.7,15.9-4.3,15.4c0.4-1.9,0.8-3.8,1.2-5.7
		c0.4-1.9,0.7-3.9,1.1-5.7c-7.2-1.8-7.6-1.6-9.1,5C457.7,48.7,457.7,48.7,453.3,48.9"/>
</g>
<g id="XMLID_82_">
	<path id="XMLID_114_" class="st0" d="M133.7,376.5c0.9-6.4,1.8-12.6,2.6-18.8c0.7-5.1,1.4-10.2,2.3-15.2c0.1-0.8,1.3-1.9,2-1.9
		c7.1-0.1,14.3-0.1,21.9-0.1c1.7,12,3.5,23.9,5.3,36C156.4,376.5,145.3,376.5,133.7,376.5z M140.7,359.9c0,5.9,4.4,10.3,10.1,10.4
		c5.5,0.1,10.5-4.8,10.4-10.4c-0.1-5.4-4.9-10.1-10.4-10.1C145.2,349.8,140.7,354.3,140.7,359.9z"/>
	<path id="XMLID_111_" class="st0" d="M170.8,382.8c-13.2,0-26.4,0-40,0c0.5-1,0.9-1.7,1.2-2.4c0,0-0.4-0.1-0.8-0.2
		c-0.1-0.3-0.2-0.6-0.3-0.9c1.2-0.5,2.4-1.4,3.5-1.4c10.5-0.1,20.9-0.1,31.4-0.1C170.5,377.8,170.5,377.8,170.8,382.8z M165.7,380.5
		C165.7,380.5,165.7,380.4,165.7,380.5c-10-0.1-20-0.1-29.9-0.1c0,0,0,0.1,0,0.1C145.8,380.5,155.7,380.5,165.7,380.5z"/>
	<path id="XMLID_76_" class="st0" d="M164.1,339.5c-4.7,0-9.5,0-14.2,0c-3.7,0-7.4,0-11.1-0.1c-0.5,0-1-0.8-1.5-1.2
		c0.5-0.4,1-1.2,1.4-1.2c8-0.1,16-0.1,24,0c0.6,0,1.3,1,1.9,1.6C164.5,338.9,164.3,339.2,164.1,339.5z"/>
	<path id="XMLID_75_" class="st0" d="M148,322.6c1.6,1.3,1,3.2-0.3,5c-0.5,0.8-1.2,1.5-1.9,2.1c-1.7,1.7-2.7,3.5,0.4,5.9
		c-4.3-1.8-4.7-3.4-2.2-6.1c1-1,2.3-1.9,2.9-3C147.7,325.3,147.7,323.9,148,322.6z"/>
	<path id="XMLID_74_" class="st0" d="M151.1,335.4c-3.5-1.6-3.8-3.4-1.5-5.9c1.7-1.8,3.1-3.8,4.7-5.8c-0.1,0.6,0,1.7-0.4,2.5
		c-0.6,1.2-1.4,2.2-2.3,3.2C150,331.2,148.8,332.9,151.1,335.4z"/>
	<path id="XMLID_73_" class="st0" d="M156.9,335.4c-3.5-1.8-3.7-3.2-1.4-5.7c1.7-1.8,3.3-3.7,4.8-5.3c0.7,2.3-1.5,3.6-2.8,5.4
		C156.1,331.5,154.3,333.1,156.9,335.4z"/>
	<path id="XMLID_71_" class="st0" d="M155.3,368.1c-0.9-1.7-1.8-3.2-2.6-4.8c-0.9-2-0.1-3,1.9-3.2c1.7-0.1,3.4,0,5.2,0
		C160,363.8,158.3,366.1,155.3,368.1z"/>
	<path id="XMLID_70_" class="st0" d="M146.4,352c3.2-1.5,6.1-1.4,9.2,0.1c-1,1.8-1.8,3.7-3,5c-0.6,0.6-2.8,0.5-3.4-0.1
		C148,355.7,147.4,353.8,146.4,352z"/>
	<path id="XMLID_66_" class="st0" d="M146.3,367.7c-2.9-1.4-4.4-3.9-4.5-7.7c2,0,4-0.2,5.8,0.1c1.3,0.2,2.5,1.2,1.4,3
		C148.1,364.7,147.3,366.2,146.3,367.7z"/>
</g>
<g id="XMLID_92_">
	<path id="XMLID_96_" class="st0" d="M175.6,114.9c-5.5,0-10.9,0-16.5,0c-0.1-0.9-0.1-1.8-0.3-2.7c-0.4-2.6-1.4-5-2.8-7.2
		c-1.8-2.9-3.3-5.9-3.6-9.3c-0.9-7.9,4.7-13.2,9.9-15c8.6-3,18,2.2,19.7,11.1c0.8,4-0.3,7.6-2.2,11.1c-0.3,0.5-0.5,1-0.8,1.5
		C176.9,107.3,175.7,110.9,175.6,114.9z M164.8,99.1c-1.4-0.2-2.4-0.2-3.3-0.4c-1-0.3-1.7-1-1.8-2.1c-0.1-1.2,0.2-2.2,1.3-2.8
		c1-0.6,2-0.2,2.8,0.5c0.5,0.4,1,1,1.2,1.6c0.4,1.7,1.4,1.9,2.8,1.7c0.2,0,0.4,0.1,0.5,0c0.4-0.2,0.8-0.4,1-0.7
		c0.5-0.7,0.8-1.6,1.3-2.3c0.8-1.1,2-1.4,3-0.9c1.1,0.6,1.4,1.6,1.4,2.7c-0.1,1.2-0.9,2.1-2.1,2.3c-0.9,0.2-1.7,0.2-2.7,0.3
		c-0.8,4.3-0.8,8.7-0.5,13.1c1.2,0,2.2,0,3.4,0c0.1-0.3,0.2-0.7,0.2-1c0.4-2.5,1.3-4.8,2.6-6.9c0.9-1.4,1.7-2.8,2.4-4.3
		c3.4-7.4,0-14.9-7.8-16.9c-7.1-1.9-14.6,3.2-15.1,10.4c-0.3,3.2,0.9,6.2,2.5,8.9c1.8,2.9,3.5,5.9,3.9,9.4c0,0.3,0.4,0.6,0.6,0.7
		c0.9,0.1,1.7,0,2.9,0C165.1,107.7,164.9,103.4,164.8,99.1z M168.3,99.1c-0.7,0-1.5,0-2.1,0c0.1,4.4,0.3,8.7,0.4,13.1
		c0.2,0,0.5,0,0.8,0c0.2,0,0.5,0,0.6,0C168.1,107.8,168.2,103.5,168.3,99.1z M170.4,97.3c0.1,0.1,0.2,0.2,0.2,0.3
		c0.7-0.1,1.4-0.1,2-0.3c0.4-0.2,0.7-0.7,0.8-1.1c0-0.4-0.3-1-0.6-1.1c-0.3-0.1-0.9,0.1-1.2,0.4C171.1,96,170.8,96.7,170.4,97.3z
		 M163.9,97.6c0.1-0.1,0.1-0.2,0.2-0.3c-0.4-0.6-0.7-1.3-1.1-1.8c-0.3-0.3-0.9-0.6-1.3-0.5c-0.3,0.1-0.6,0.8-0.5,1.2
		c0.1,0.4,0.5,0.9,0.9,1.1C162.6,97.6,163.3,97.5,163.9,97.6z"/>
	<path id="XMLID_85_" class="st0" d="M175.6,116.3c0,0.7,0,1.4,0,2.1c-5.5,0-10.9,0-16.4,0c0-0.7-0.1-1.3-0.1-2.1
		C164.6,116.3,170.1,116.3,175.6,116.3z"/>
	<path id="XMLID_84_" class="st0" d="M175.3,119.8c-0.2,1.8-0.5,2.1-2.2,2.1c-3.8,0-7.5,0-11.3,0c-1.9,0-1.9-0.1-2.4-2.1
		C164.7,119.8,170,119.8,175.3,119.8z"/>
	<path id="XMLID_83_" class="st0" d="M161.2,123.3c4.1,0,8.2,0,12.4,0C171.4,126.8,163.7,127,161.2,123.3z"/>
</g>
</svg>
