<?xml version="1.0" encoding="utf-8"?>
<!-- Generator: Adobe Illustrator 19.0.0, SVG Export Plug-In . SVG Version: 6.00 Build 0)  -->
<svg version="1.1" id="Слой_2" xmlns="http://www.w3.org/2000/svg" xmlns:xlink="http://www.w3.org/1999/xlink" x="0px" y="0px"
	 viewBox="-65 -103.4 347.9 256.4" style="enable-background:new -65 -103.4 347.9 256.4;" xml:space="preserve">
<style type="text/css">
	.st0{fill:none;stroke:#2E354E;stroke-width:5;stroke-miterlimit:10;}
	.st1{fill:none;stroke:#2E354E;stroke-width:6;stroke-miterlimit:10;}
	.st2{fill:#0F1733;}
	.st3{fill:#737EA7;}
	.st4{fill:#602A02;}
	.st5{fill:#793800;}
	.st6{fill:none;stroke:#793800;stroke-width:4;stroke-miterlimit:10;}
	.st7{fill:#F9F9F9;}
	.st8{fill:none;stroke:#FFFFFF;stroke-width:3;stroke-miterlimit:10;}
	.st9{fill:#F8B693;}
	.st10{fill:#8189A7;}
	.st11{fill:#697393;}
	.st12{fill:#2E354E;}
	.st13{fill:#744627;}
	.st14{fill:#BA5600;}
	.st15{fill:#EAA584;}
	.st16{fill:#412717;}
	.st17{fill:#FFFFFF;}
	.st18{fill:#5D5F76;}
	.st19{fill:#DC624E;}
	.st20{fill:#2E354E;stroke:#2E354E;stroke-width:2;stroke-miterlimit:10;}
</style>
<g>
	<path class="st0" d="M-62.9,150.5h58c3.3,0,6-2.7,6-6v-38c0-3.3,2.7-6,6-6h58c3.3,0,6-2.7,6-6v-38c0-3.3,2.7-6,6-6h58
		c3.3,0,6-2.7,6-6v-38c0-3.3,2.7-6,6-6h134"/>
	<path class="st1" d="M261.1-29.5l17.8,26.7c1.3,2,1.3,4.6,0,6.7l-17.8,26.7"/>
</g>
<g>
	<path class="st2" d="M-5.9,38l24.6,7.9c2.9,0.8,4.8,3.5,4.7,6.4l-2.8,25.4l-5.6,3l-7.6-1.6l0.5-15.8c0.2-2-1.2-3.7-3.2-3.9
		l-23.1-2.2l-2.2,35l-9.1,35.6l-13.5-3l5.8-39.4c0.1-0.4,0.1-0.9,0-1.3l-3.8-32.7l2.8-13.4L-5.9,38L-5.9,38z"/>
	<g>
		<path class="st3" d="M14.7,86.5c-0.2,0-0.4-0.1-0.5-0.2c-1.5-3.1-4-5.1-7.4-5.5H6.7c0.1,0.1,0.1,0.1,0,0c0.1-0.4,0.2-0.8,0.4-1.2
			c0.3-0.6,0.9-1,1.5-0.8c0.4,0.1,0.9,0.5,1.2,0.8c1.2,1.3,2.6,1.6,4.3,1.5c2.3-0.1,4.4-0.7,6.3-2.2c0.1-0.1,0.2-0.2,0.3-0.2
			c2.3,1,4.7,2,7,3L27.8,82c-0.4,0.1-1,0.1-1.4,0.1c-1.2,0.1-2.3,0.1-3.5,0.1c-0.3,0-0.7,0.1-1,0.1c-1.1,0.3-1.6,1-1.8,2
			c-0.1,0.6-0.2,1.5-0.3,2.2H14.7z"/>
		<path class="st4" d="M37.2,87.3c0.1,0.8-1.1,2.3-1.9,2.4c-9.4,0-18.4,0-27.8,0c-0.1,0-0.7,0-0.8,0c0-0.5-0.2-1.7-0.2-2.2
			C16.4,87.4,27.2,87.3,37.2,87.3z"/>
		<path class="st2" d="M36.5,86.6c-5.1,0-10.4,0.1-15.4,0.1c0-0.7,0.1-1.6,0.3-2.3c0.2-0.5,0.6-0.8,1.1-0.8c0.8,0,1.6,0,2.4-0.1
			c1.1-0.1,2.1-0.2,3.2-0.4c0.4-0.1,0.8-0.3,1.1-0.5c0.1,0,0.2-0.1,0.3,0c2,0.9,4,1.8,6,2.7C35.9,85.6,36.3,86.1,36.5,86.6z"/>
		<path class="st3" d="M13,86.5c-2,0-4.3-0.1-6.3-0.1c0-1.4,0.1-3,0.1-4.4C9.1,82,11.9,84.1,13,86.5z"/>
		<path class="st5" d="M20.8,90.5c-4.8,0-9.6,0-14.3,0c-0.1,0-0.2,0-0.3,0c-0.5,0-0.8-0.3-0.8-0.8c0-1.8,0-3.6,0-5.4
			c0-1.2,0-2.3,0-3.5c0-0.8,0.2-1.6,0.8-2.3c0.9-1.1,2.4-1.3,3.7-0.6c0.4,0.2,0.8,0.5,1,0.8c0.8,0.9,1.8,1.2,3,1.2
			c2,0,3.8-0.7,5.4-1.8c0.2-0.2,0.4-0.3,0.6-0.5c0.3-0.3,0.6-0.4,1-0.2c2.1,0.9,4.2,1.8,6.3,2.7c2.8,1.3,5.5,2.6,8.3,3.9
			c1.7,0.8,2.4,2.1,2.5,3.9c0,1.1-0.7,2.1-1.7,2.5c-0.3,0.1-0.7,0.2-1.1,0.2C30.4,90.5,25.6,90.5,20.8,90.5z M6.7,80.7
			c0.1,0.1,0.1,0.1,0.1,0.1h0.1c3.4,0.4,5.9,2.2,7.4,5.3c0.1,0.2,0.2,0.2,0.4,0.2c1.6,0,3.3,0,4.9,0c0.1,0,0.2,0,0.2,0
			c0.1-0.7,0.1-1.3,0.3-2c0.2-1,0.8-1.8,1.9-2c0.3-0.1,0.7-0.1,1-0.1c1.2-0.1,2.3-0.1,3.5-0.1c0.4,0,0.9-0.1,1.3-0.2v-0.1
			c-2.3-1-4.6-2-6.9-3c-0.1,0-0.2,0-0.3,0.1c-1.8,1.5-3.9,2.3-6.3,2.4c-1.7,0.1-3.2-0.3-4.4-1.6c-0.3-0.3-0.7-0.5-1.1-0.7
			c-0.7-0.2-1.3,0-1.6,0.6C6.9,79.9,6.8,80.3,6.7,80.7z M36.6,87.8c-10,0-19.9,0-29.9,0c0,0.5,0,0.9,0,1.4c0.1,0,0.2,0,0.3,0
			c9.4,0,18.9,0,28.3,0C36.2,89.1,36.7,88.6,36.6,87.8z M36.3,86.4c-0.2-0.4-0.5-0.7-0.8-0.9c-2-1-3.9-1.9-5.9-2.8
			c-0.1,0-0.2,0-0.3,0c-0.4,0.2-0.7,0.4-1.1,0.5c-1.1,0.2-2.1,0.3-3.2,0.4c-0.8,0.1-1.6,0-2.4,0.1c-0.5,0-0.9,0.3-1.1,0.8
			c-0.2,0.6-0.2,1.3-0.2,2C26.2,86.4,31.2,86.4,36.3,86.4z M12.8,86.4C11.7,84,9,82.3,6.7,82.3c0,1.4,0,2.7,0,4.1
			C8.8,86.4,10.8,86.4,12.8,86.4z"/>
	</g>
	<g>
		<path class="st3" d="M-43.3,123.2c0,0-0.1-0.2-0.2-0.3c0.3-0.3,0.7-0.6,1.1-0.8c0.6-0.3,1.3-0.3,1.8,0.2c0.3,0.3,0.6,0.7,0.7,1.1
			c0.4,1.8,1.5,2.8,3,3.5c2.1,1,4.2,1.4,6.5,1.1c0.1,0,0.3,0.1,0.4,0.2c1.5,2,3.1,4,4.6,6c0,0-0.2,0.4-0.3,0.4
			c-0.4-0.2-0.9-0.3-1.3-0.5c-1-0.5-2.1-1-3.1-1.5c-0.3-0.2-0.6-0.3-0.9-0.4c-1.1-0.3-1.6-0.1-2.4,0.7c-0.4,0.5-0.9,1.2-1.3,1.8
			c0,0-0.5-0.1-0.6-0.2c-1.4-0.8-2.6-1.7-4-2.5c-0.2-0.1-0.3-0.3-0.3-0.5L-43.3,123.2z"/>
		<path class="st4" d="M-47.9,130.4c0.2-0.4,0.7-1.4,1-1.8c8.6,5.1,17.8,10.2,26.4,15.1c-0.4,0.8-1.6,1.5-2.3,1.1L-47.9,130.4z"/>
		<path class="st3" d="M-40.5,131c-1.8-1-4.1-2.2-5.9-3.2c0.7-1.2,1.6-2.8,2.3-4C-42.1,125.1-40.2,128.4-40.5,131z"/>
		<path class="st2" d="M-20.4,142.8c-4.4-2.5-9.2-5.1-13.6-7.6c0.3-0.6,1-1.4,1.5-1.9c0.4-0.3,0.9-0.3,1.3-0.1
			c0.7,0.4,1.4,0.8,2.1,1.1c1,0.5,2.1,0.7,3.1,1.1c0.4,0.1,0.8,0.2,1.2,0.2c0.1,0,0.3,0.1,0.4,0.3c1.2,1.8,2.3,3.6,3.5,5.4
			C-20.6,141.7-20.3,142.4-20.4,142.8z"/>
		<path class="st5" d="M-36.1,138.4c-4.1-2.4-8.3-4.8-12.4-7.2c-0.1,0-0.2-0.1-0.3-0.1c-0.4-0.3-0.5-0.6-0.3-1.1
			c0.9-1.6,1.8-3.1,2.7-4.7c0.6-1,1.2-2,1.8-3c0.4-0.7,1-1.3,1.8-1.6c1.3-0.5,2.7,0.1,3.5,1.3c0.2,0.4,0.4,0.8,0.5,1.2
			c0.2,1.2,1,2,2,2.5c1.7,1,3.6,1.3,5.6,1.2c0.3,0,0.6-0.1,0.8-0.2c0.4-0.1,0.7,0,1,0.3c1.4,1.8,2.7,3.6,4.1,5.5
			c1.8,2.5,3.5,5.1,5.3,7.6c1.1,1.5,1,3.1,0.2,4.6c-0.5,1-1.6,1.5-2.7,1.3c-0.4-0.1-0.7-0.2-1-0.4
			C-27.7,143.2-31.9,140.8-36.1,138.4z M-43.2,123c2.7,2.1,4,5,3.7,8.4c0,0.2,0,0.3,0.2,0.4c1.4,0.8,2.8,1.6,4.2,2.4
			c0.1,0,0.2,0.1,0.2,0.1c0.4-0.5,0.8-1.1,1.2-1.6c0.7-0.8,1.6-1.1,2.7-0.8c0.3,0.1,0.6,0.2,0.9,0.4c1,0.5,2.1,1.1,3.1,1.6
			c0.4,0.2,0.8,0.3,1.2,0.5c0,0,0-0.1,0.1-0.1c-1.5-2-3-4-4.5-6c0-0.1-0.2-0.1-0.3-0.1c-2.3,0.3-4.5,0-6.6-1.1
			c-1.5-0.8-2.7-1.9-3-3.6c-0.1-0.4-0.4-0.8-0.6-1.1c-0.6-0.4-1-0.6-1.7-0.3c-0.4,0.2-0.6,0.4-0.9,0.7 M-21,143.9
			c-8.6-5-17.3-10-25.9-14.9c-0.2,0.4-0.4,0.8-0.7,1.2c0.1,0.1,0.2,0.1,0.3,0.2c8.2,4.7,16.4,9.4,24.5,14.2
			C-22,144.9-21.4,144.7-21,143.9z M-20.6,142.5c0.1-0.5-0.1-0.8-0.3-1.2c-1.2-1.8-2.5-3.6-3.7-5.4c-0.1-0.1-0.2-0.1-0.3-0.1
			c-0.4-0.1-0.9,0-1.2-0.1c-1-0.4-2-0.8-3-1.3c-0.7-0.3-1.4-0.8-2.1-1.1c-0.5-0.2-0.9-0.2-1.3,0.2c-0.5,0.4-0.8,1-1.2,1.6
			C-29.3,137.5-24.9,140-20.6,142.5z M-40.9,130.8c0.2-2.6-1.3-5.4-3.2-6.6c-0.7,1.2-1.4,2.4-2.1,3.6
			C-44.4,128.8-42.6,129.8-40.9,130.8z"/>
	</g>
	<path class="st5" d="M-23.6,116.7l33.3-16.4c4-2,5.6-6.8,3.6-10.8L3.5,69.9C1.6,66-3.1,64.3-7.1,66.1l-35.1,16
		c-4.4,2-6.1,7.3-3.7,11.5l11.5,19.8C-32.1,117.2-27.4,118.6-23.6,116.7z"/>
	<path class="st6" d="M-35.3,79.1c-2.7-5.7,1.7-16.6,5.2-17.9c2.6-1,16.3,0.6,19.1,6.8"/>
	<circle class="st7" cx="-17.7" cy="87.1" r="2.4"/>
	<line class="st8" x1="-39.9" y1="103.8" x2="8.9" y2="80.6"/>
	<path class="st9" d="M-43.2,55.7l0.2,8.2c0,1.1,0.4,2.1,1.1,3l3.2,4c0.4,0.4,0.9,0.7,1.4,0.8l7.7,0.8c0.6,0.1,1.1-0.1,1.6-0.4
		l5.2-3.8c1.1-0.8,1.3-2.5,0.3-3.5l-3.6-3.6c-0.3-0.3-0.4-0.6-0.5-0.9l-0.1-0.5c-0.1-0.7,0.4-1.4,1.2-1.4h2.1c0.4,0,0.8,0.2,1.1,0.4
		l0.1,0.1c0.4,0.4,1.1,0.6,1.6,0.3l1.3-0.5c0.9-0.4,1.5-1.2,1.6-2.2l0,0c0-0.4-0.2-0.7-0.5-0.9l-9.1-3.2c-0.5-0.2-1-0.3-1.5-0.3
		l-3.5-1L-43.2,55.7z"/>
	<path class="st10" d="M-40.7-20.8l2.4,0.4c0,0,0.1,0,0.2,0l17.4,1.4l2.3,0.5l3.2,4.1c1.8,2.4,3.4,5,4.6,7.8l2.1,4.8
		C-6.9,1.9-6,5.9-5.7,10l0.4,8.4l-0.5,19.7h-31.6c0,0-3.4-49.5-3.4-51.2L-40.7-20.8z"/>
	<path class="st11" d="M-43.5-2.1l1.9-6.1c0,0,6.4-8.6,9.6,3.8c0,0-5.4,21.5-5.7,22.7c0,0,0,0.1,0,0.1c-0.3,0.7-3,7.9,0.1,18.9
		c3.3,11.5,5.4,13.8,5.4,13.8l-10.9,4.7C-43.2,55.7-58.7,30.9-43.5-2.1z"/>
	<ellipse transform="matrix(0.9272 -0.3746 0.3746 0.9272 1.6223 -5.954)" class="st12" cx="-14.5" cy="-7.1" rx="1.8" ry="2"/>
	<ellipse transform="matrix(0.9703 -0.2419 0.2419 0.9703 -0.9023 -2.4431)" class="st12" cx="-10.4" cy="2.5" rx="1.8" ry="2"/>
	<ellipse transform="matrix(0.9703 0.2419 -0.2419 0.9703 2.9748 2.4722)" class="st12" cx="-8.6" cy="13.4" rx="1.8" ry="2"/>
	<ellipse transform="matrix(0.9063 0.4226 -0.4226 0.9063 9.4661 5.9028)" class="st12" cx="-8.6" cy="24.3" rx="1.8" ry="2"/>
</g>
<g id="XMLID_1_">
	<path id="XMLID_6_" class="st13" d="M106.2-11.9c-0.5-1.3-1-2.7-1.4-4c0-1.8,0.5-2.3,2.3-3c0.7-0.3,1.3-0.5,2.1-0.8
		c0.1-0.1,0.2-0.3,0.2-0.3c0-1,0.1-2,0-3.2c-0.8-0.4-1.7-0.9-2.6-1.2c-1.4-0.7-1.9-2.1-1.3-3.5c0.5-0.9,0.8-1.8,1.4-2.7
		c0.8-1.6,2.1-2.1,3.7-1.3c0.8,0.4,1.6,0.8,2.5,1.3c0.3-0.5,0.7-0.8,1.1-1.2c0.4-0.3,0.8-0.6,1.2-0.9c0.2-0.3,0.2-0.3,0.1-0.5
		c-0.3-0.9-0.6-1.8-1-2.7c-0.4-1-0.1-2,0.9-2.7c0.1-0.1,0.2-0.3,0.2-0.3c1.3-0.5,2.7-1,4-1.4l0,0c1.5,0,2.3,0.5,2.8,1.8
		c0.3,0.7,0.6,1.6,0.9,2.4c0.1,0.1,0.1,0.3,0.4,0.2c1,0,2,0.1,3.2,0c0.4-0.8,0.8-1.6,1.2-2.6c0.7-1.4,2.1-1.9,3.5-1.3
		c0.9,0.7,1.7,1,2.6,1.6c1.6,0.8,1.9,2.1,1.3,3.5c-0.4,0.8-0.8,1.8-1.2,2.6c0.5,0.3,0.8,0.7,1.1,1.1s0.6,0.8,0.9,1.2
		c0.1,0.1,0.3,0,0.3,0c0.9-0.3,1.8-0.6,2.8-1s2-0.1,2.7,0.9c0.1,0.1,0.3,0.2,0.3,0.2c0.5,1.3,1,2.7,1.4,4c0,0,0,0,0.1,0.1
		c0,1.3-0.5,2.2-1.9,2.7c-0.9,0.3-1.6,0.6-2.5,0.9c-0.1,0.1-0.2,0.3-0.2,0.3c-0.1,1-0.1,2,0,3.2c0.8,0.4,1.8,0.7,2.6,1.2
		c1.4,0.7,1.9,2.1,1.3,3.5c-0.4,0.8-0.8,1.8-1.2,2.6c-0.7,1.4-2.1,1.9-3.5,1.3c-0.8-0.4-1.8-0.8-2.6-1.2c-0.9,0.8-1.6,1.4-2.4,2.1
		c-0.1,0.1,0,0.3,0,0.3c0.3,0.9,0.6,1.8,1,2.8c0.3,0.7,0.1,1.6-0.3,2.3c-0.2,0.3-0.5,0.5-0.7,0.8c-1.3,0.5-2.7,1-4,1.4
		c0,0,0,0-0.1,0.1c-1.3,0-2.2-0.5-2.7-1.9c-0.3-0.9-0.6-1.6-0.9-2.5c-0.1-0.1-0.1-0.3-0.5-0.3c-1,0-2-0.1-3-0.1
		c-0.4,0.8-0.8,1.8-1.2,2.6c-0.7,1.4-2.1,1.9-3.5,1.3c-0.8-0.4-1.8-0.8-2.6-1.2c-1.6-0.8-2.1-2.1-1.3-3.7c0.4-0.8,0.8-1.8,1.2-2.6
		c-0.8-0.7-1.4-1.5-2.1-2.4c-0.2-0.1-0.3-0.2-0.5-0.1c-0.9,0.3-1.8,0.6-2.7,1c-0.7,0.3-1.4,0.2-2.1-0.2
		C106.7-11.5,106.4-11.7,106.2-11.9z M132-7c-0.2-0.6-0.4-1-0.6-1.6c-0.2-0.6-0.2-0.9,0.4-1.3c1.1-0.7,1.9-1.5,2.8-2.5
		c0.3-0.5,0.6-0.6,1.2-0.3c1,0.5,2,0.9,3,1.4c0.6,0.3,1,0.1,1.3-0.5c0.4-0.8,0.8-1.8,1.2-2.6c0.3-0.6,0.1-1-0.5-1.3
		c-1-0.5-2-0.9-3-1.4c-0.6-0.3-0.7-0.6-0.6-1.1c0.2-1.2,0.3-2.4,0.1-3.7c-0.1-0.6,0.2-0.9,0.8-1.1c1-0.4,2.1-0.8,3.1-1.1
		c0.6-0.2,0.8-0.6,0.6-1.2c-0.3-0.9-0.7-1.9-1-2.8c-0.2-0.6-0.6-0.8-1.2-0.6c-1,0.4-2.1,0.8-3.2,1.2c-0.6,0.2-0.9,0.2-1.3-0.4
		c-0.7-1.1-1.5-1.9-2.5-2.8c-0.5-0.5-0.6-0.6-0.3-1.2c0.5-1,0.9-2,1.4-3c0.4-1.2,0.3-1.4-0.3-1.9c-0.8-0.4-1.8-0.8-2.6-1.2
		c-0.8-0.2-1-0.1-1.5,0.5c-0.5,1-0.9,2-1.4,3c-0.3,0.6-0.6,0.7-1.1,0.6c-1.2-0.2-2.4-0.3-3.7-0.1c-0.6,0.1-0.9-0.2-1.1-0.8
		c-0.4-1-0.8-2.1-1.2-3.2c-0.2-0.6-0.6-0.8-1.2-0.6c-0.9,0.3-1.9,0.7-2.8,1c-0.7,0.3-0.9,0.7-0.7,1.4c0.4,1,0.8,2.1,1.2,3.2
		c0.2,0.6,0.2,0.9-0.4,1.2c-1.1,0.7-2.1,1.6-2.9,2.6c-0.3,0.5-0.6,0.6-1.2,0.3c-1-0.5-2-0.9-3-1.4c-0.6-0.3-1-0.1-1.5,0.5
		c-0.4,0.8-0.7,1.8-1.2,2.6c-0.2,0.8-0.1,1,0.5,1.5c1,0.5,2,0.9,3,1.4c0.6,0.3,0.7,0.6,0.6,1.1c-0.2,1.2-0.3,2.4-0.1,3.7
		c0.1,0.6-0.2,0.9-0.6,1.1c-1,0.4-2.2,0.8-3.2,1.2c-0.6,0.2-0.8,0.6-0.6,1.2c0.3,0.9,0.7,1.9,1,2.8c0.2,0.6,0.6,0.8,1.2,0.6
		c1-0.4,2.2-0.8,3.2-1.2c0.6-0.2,0.8-0.1,1.2,0.4c0.7,1.1,1.5,1.9,2.5,2.8c0.5,0.3,0.6,0.6,0.3,1.2c-0.5,1-0.9,2-1.4,3.2
		c-0.3,0.6-0.1,1,0.5,1.3c1,0.5,1.8,0.8,2.8,1.3c0.6,0.3,1,0.1,1.3-0.5c0.5-1,0.9-2,1.4-3c0.3-0.6,0.6-0.7,1.1-0.6
		c1.2,0.2,2.6,0.2,3.9,0.1c0.6-0.1,0.9,0.2,1.1,0.6c0.4,1,0.8,2.2,1.2,3.2c0.2,0.6,0.6,0.8,1.2,0.6c1-0.4,2.1-0.8,3-1.1
		c0.6-0.2,0.8-0.6,0.6-1.2C132.4-5.8,132.2-6.4,132-7z"/>
	<path id="XMLID_5_" class="st13" d="M132-23.9c1.7,4.2-0.3,9.1-4.7,10.9c-4.2,1.7-9-0.4-10.8-4.8c-1.9-4.2,0.2-9.1,4.6-10.9
		C125.4-30.3,130.1-28.2,132-23.9z M126.4-14.5c3.5-1.3,5.3-5.1,4.1-8.5s-5.1-5.2-8.4-3.9c-3.5,1.3-5.3,5.1-4.1,8.5
		S123.1-13.3,126.4-14.5z"/>
	<path id="XMLID_25_" class="st12" d="M116.1-72.9c0-1.9,0-3.9,0-5.8c0.9-2.4,1.7-2.8,4.3-2.8c1.1,0,1.9,0,3,0
		c0.2,0,0.4-0.2,0.4-0.2c0.4-1.3,1.1-2.6,1.5-4.1c-0.9-0.9-1.7-1.9-2.8-2.8c-1.5-1.5-1.5-3.7,0-5.2c1.1-0.9,1.9-1.9,3-2.8
		c1.7-1.7,3.7-1.7,5.4,0c0.9,0.9,1.7,1.7,2.6,2.8c0.6-0.4,1.3-0.6,1.9-1.1c0.6-0.2,1.3-0.4,1.9-0.6c0.4-0.2,0.4-0.2,0.4-0.6
		c0-1.3,0-2.6,0-3.9c0-1.5,0.9-2.6,2.4-3c0.2,0,0.4-0.2,0.4-0.2c1.9,0,3.9,0,5.8,0l0,0c1.9,0.6,2.8,1.7,2.8,3.7c0,1.1,0,2.4,0,3.5
		c0,0.2,0,0.4,0.4,0.4c1.3,0.4,2.6,1.1,4.1,1.5c0.9-0.9,1.7-1.7,2.8-2.8c1.5-1.5,3.7-1.5,5.2,0c0.9,1.3,1.7,2.2,2.6,3.2
		c1.7,1.7,1.5,3.7,0,5.2c-0.9,0.9-1.9,1.9-2.8,2.8c0.4,0.6,0.6,1.3,0.9,1.9c0.2,0.6,0.4,1.3,0.6,1.9c0,0.2,0.4,0.2,0.4,0.2
		c1.3,0,2.6,0,4.1,0s2.6,0.9,3,2.4c0,0.2,0.2,0.4,0.2,0.4c0,1.9,0,3.9,0,5.8c0,0,0,0,0,0.2c-0.6,1.7-1.7,2.6-3.7,2.6
		c-1.3,0-2.4,0-3.7,0c-0.2,0-0.4,0.2-0.4,0.2c-0.6,1.3-1.1,2.6-1.5,4.1c0.9,0.9,1.9,1.7,2.8,2.8c1.5,1.5,1.5,3.7,0,5.2
		c-0.9,0.9-1.9,1.9-2.8,2.8c-1.5,1.5-3.7,1.5-5.2,0c-0.9-0.9-1.9-1.9-2.8-2.8c-1.5,0.6-2.8,1.1-4.1,1.5c-0.2,0-0.2,0.4-0.2,0.4
		c0,1.3,0,2.6,0,4.1c0,1.1-0.6,2.2-1.5,2.8c-0.4,0.2-0.9,0.4-1.3,0.6c-1.9,0-3.9,0-5.8,0c0,0,0,0-0.2,0c-1.7-0.6-2.6-1.7-2.6-3.7
		c0-1.3,0-2.4,0-3.7c0-0.2,0-0.4-0.4-0.6c-1.3-0.4-2.6-1.1-3.9-1.5c-0.9,0.9-1.9,1.9-2.8,2.8c-1.5,1.5-3.7,1.5-5.2,0
		c-0.9-0.9-1.9-1.9-2.8-2.8c-1.7-1.7-1.7-3.7,0-5.4c0.9-0.9,1.9-1.9,2.8-2.8c-0.6-1.3-1.1-2.6-1.5-4.1c-0.2-0.2-0.2-0.4-0.6-0.4
		c-1.3,0-2.6,0-3.9,0c-1.1,0-1.9-0.4-2.6-1.3C116.5-72,116.3-72.4,116.1-72.9z M147.3-54.2c0-0.9,0-1.5,0-2.4s0.2-1.3,1.1-1.5
		c1.7-0.4,3.2-1.1,4.8-1.9c0.6-0.4,1.1-0.4,1.7,0.2c1.1,1.1,2.2,2.2,3.2,3.2c0.6,0.6,1.3,0.6,1.9,0c0.9-0.9,1.9-1.9,2.8-2.8
		c0.6-0.6,0.6-1.3,0-1.9c-1.1-1.1-2.2-2.2-3.2-3.2c-0.6-0.6-0.6-1.1-0.2-1.7c0.9-1.5,1.5-3,1.9-4.8c0.2-0.9,0.6-1.1,1.5-1.1
		c1.5,0,3,0,4.5,0c0.9,0,1.3-0.4,1.3-1.3c0-1.3,0-2.8,0-4.1c0-0.9-0.4-1.3-1.3-1.3c-1.5,0-3,0-4.8,0c-0.9,0-1.3-0.2-1.5-1.1
		c-0.4-1.7-1.1-3.2-1.9-4.8c-0.4-0.9-0.4-1.1,0.2-1.7c1.1-1.1,2.2-2.2,3.2-3.2c1.1-1.3,1.1-1.7,0.4-2.6c-0.9-0.9-1.9-1.9-2.8-2.8
		c-0.9-0.6-1.3-0.6-2.2,0c-1.1,1.1-2.2,2.2-3.2,3.2c-0.6,0.6-1.1,0.6-1.7,0.2c-1.5-0.9-3-1.5-4.8-1.9c-0.9-0.2-1.1-0.6-1.1-1.5
		c0-1.5,0-3,0-4.8c0-0.9-0.4-1.3-1.3-1.3c-1.3,0-2.8,0-4.1,0c-1.1,0-1.5,0.4-1.5,1.5c0,1.5,0,3,0,4.8c0,0.9-0.2,1.3-1.1,1.3
		c-1.7,0.4-3.5,1.1-5,1.9c-0.6,0.4-1.1,0.4-1.7-0.2c-1.1-1.1-2.2-2.2-3.2-3.2c-0.6-0.6-1.3-0.6-2.2,0c-0.9,0.9-1.7,1.9-2.8,2.8
		c-0.6,0.9-0.6,1.3,0,2.2c1.1,1.1,2.2,2.2,3.2,3.2c0.6,0.6,0.6,1.1,0.2,1.7c-0.9,1.5-1.5,3-1.9,4.8c-0.2,0.9-0.6,1.1-1.3,1.1
		c-1.5,0-3.2,0-4.8,0c-0.9,0-1.3,0.4-1.3,1.3c0,1.3,0,2.8,0,4.1c0,0.9,0.4,1.3,1.3,1.3c1.5,0,3.2,0,4.8,0c0.9,0,1.1,0.2,1.3,1.1
		c0.4,1.7,1.1,3.2,1.9,4.8c0.4,0.6,0.4,1.1-0.2,1.7c-1.1,1.1-2.2,2.2-3.2,3.5c-0.6,0.6-0.6,1.3,0,1.9c1.1,1.1,1.9,1.9,3,3
		c0.6,0.6,1.3,0.6,1.9,0c1.1-1.1,2.2-2.2,3.2-3.2c0.6-0.6,1.1-0.6,1.7-0.2c1.5,0.9,3.2,1.5,5,1.9c0.9,0.2,1.1,0.6,1.1,1.3
		c0,1.5,0,3.2,0,4.8c0,0.9,0.4,1.3,1.3,1.3c1.5,0,3,0,4.3,0c0.9,0,1.3-0.4,1.3-1.3C147.3-52.5,147.3-53.4,147.3-54.2z"/>
	<path id="XMLID_11_" class="st12" d="M155.3-76.1c0.2,6.3-4.8,11.7-11.3,11.9c-6.3,0.2-11.5-4.8-11.7-11.3
		c-0.4-6.3,4.5-11.7,11-11.9C149.6-87.6,154.8-82.6,155.3-76.1z M143.6-66.6c5.2,0,9.3-4.1,9.3-9.1s-4.1-9.1-9.1-9.1
		c-5.2,0-9.3,4.1-9.3,9.1S138.6-66.6,143.6-66.6z"/>
	<path id="XMLID_3_" class="st14" d="M65.3-47c-0.3-1.6-0.6-3.1-0.8-4.7c0.4-2,1-2.5,3.1-2.9c0.9-0.2,1.6-0.3,2.4-0.4
		c0.2,0,0.3-0.2,0.3-0.2c0.2-1.1,0.5-2.2,0.6-3.5c-0.8-0.6-1.7-1.3-2.7-1.9c-1.4-1-1.7-2.7-0.7-4.2c0.7-0.8,1.3-1.8,2-2.7
		c1.1-1.6,2.7-1.9,4.3-0.8c0.8,0.6,1.6,1.1,2.5,1.9c0.5-0.4,1-0.7,1.4-1.1c0.5-0.3,1-0.5,1.5-0.8c0.3-0.2,0.3-0.2,0.3-0.6
		c-0.2-1-0.4-2.1-0.6-3.1c-0.2-1.2,0.3-2.2,1.5-2.8c0.2,0,0.3-0.2,0.3-0.2c1.6-0.3,3.1-0.6,4.7-0.8l0,0c1.7,0.2,2.5,1,2.8,2.6
		c0.2,0.9,0.3,1.9,0.5,2.8c0,0.2,0.1,0.3,0.4,0.3c1.1,0.2,2.2,0.5,3.5,0.6c0.6-0.8,1.1-1.6,1.9-2.7c1-1.4,2.7-1.7,4.2-0.7
		c0.9,0.9,1.7,1.5,2.5,2.2c1.6,1.1,1.7,2.7,0.7,4.2c-0.6,0.8-1.3,1.8-1.9,2.7c0.4,0.5,0.7,1,1,1.4c0.3,0.5,0.5,1,0.8,1.5
		c0,0.2,0.4,0.1,0.4,0.1c1-0.2,2.1-0.4,3.3-0.6c1.2-0.2,2.2,0.3,2.8,1.5c0,0.2,0.2,0.3,0.2,0.3c0.3,1.6,0.6,3.1,0.8,4.7
		c0,0,0,0,0,0.2c-0.3,1.5-1,2.3-2.6,2.6c-1,0.2-1.9,0.3-3,0.5c-0.2,0-0.3,0.2-0.3,0.2c-0.3,1.1-0.5,2.2-0.6,3.5
		c0.8,0.6,1.8,1.1,2.7,1.9c1.4,1,1.7,2.7,0.7,4.2c-0.6,0.8-1.3,1.8-1.9,2.7c-1,1.4-2.7,1.7-4.2,0.7c-0.8-0.6-1.8-1.3-2.7-1.9
		c-1.1,0.7-2.1,1.3-3.1,1.8c-0.2,0-0.1,0.4-0.1,0.4c0.2,1,0.4,2.1,0.6,3.3c0.2,0.9-0.2,1.8-0.8,2.5c-0.3,0.2-0.6,0.5-1,0.7
		c-1.6,0.3-3.1,0.6-4.7,0.8c0,0,0,0-0.2,0c-1.5-0.3-2.3-1-2.6-2.6c-0.2-1-0.3-1.9-0.5-3c0-0.2-0.1-0.3-0.4-0.5
		c-1.1-0.2-2.2-0.5-3.3-0.7c-0.6,0.8-1.3,1.8-1.9,2.7c-1,1.4-2.7,1.7-4.2,0.7c-0.8-0.6-1.8-1.3-2.7-1.9c-1.6-1.1-1.9-2.7-0.8-4.3
		c0.6-0.8,1.3-1.8,1.9-2.7c-0.7-1-1.2-1.9-1.8-3.1c-0.2-0.1-0.2-0.3-0.6-0.3c-1,0.2-2.1,0.4-3.1,0.6c-0.9,0.2-1.6-0.1-2.3-0.7
		C65.7-46.4,65.5-46.7,65.3-47z M92.9-36.5c-0.1-0.7-0.2-1.2-0.3-1.9c-0.1-0.7,0-1.1,0.7-1.4c1.3-0.6,2.5-1.3,3.5-2.2
		c0.5-0.4,0.8-0.5,1.4-0.1c1,0.7,2,1.4,3.1,2.1c0.6,0.4,1.1,0.3,1.6-0.3c0.6-0.8,1.3-1.8,1.9-2.7c0.4-0.6,0.3-1.1-0.3-1.6
		c-1-0.7-2-1.4-3.1-2.1c-0.6-0.4-0.7-0.8-0.4-1.4c0.5-1.3,0.8-2.6,0.9-4.1c0.1-0.7,0.4-1,1.1-1.1c1.2-0.2,2.4-0.4,3.7-0.6
		c0.7-0.1,1-0.5,0.9-1.2c-0.2-1-0.4-2.3-0.6-3.3c-0.1-0.7-0.5-1-1.2-0.9c-1.2,0.2-2.4,0.4-3.8,0.7c-0.7,0.1-1.1,0-1.4-0.7
		c-0.6-1.3-1.3-2.5-2.2-3.5c-0.5-0.6-0.5-0.8-0.1-1.4c0.7-1,1.4-2,2.1-3.1c0.7-1.2,0.6-1.5,0-2.1c-0.8-0.6-1.8-1.3-2.7-1.9
		c-0.8-0.4-1.1-0.3-1.7,0.3c-0.7,1-1.4,2-2.1,3.1c-0.4,0.6-0.8,0.7-1.4,0.4c-1.3-0.5-2.6-0.8-4.1-0.9c-0.7-0.1-1-0.4-1.1-1.1
		c-0.2-1.2-0.4-2.4-0.7-3.8c-0.1-0.7-0.5-1-1.2-0.9c-1,0.2-2.3,0.4-3.3,0.6c-0.9,0.2-1.2,0.6-1,1.4c0.2,1.2,0.4,2.4,0.7,3.8
		c0.1,0.7,0,1.1-0.7,1.2c-1.3,0.6-2.6,1.4-3.7,2.3c-0.5,0.4-0.8,0.5-1.4,0.1c-1-0.7-2-1.4-3.1-2.1c-0.6-0.4-1.1-0.3-1.7,0.3
		c-0.6,0.8-1.1,1.8-1.9,2.7c-0.4,0.8-0.3,1.1,0.3,1.7c1,0.7,2,1.4,3.1,2.1c0.6,0.4,0.7,0.8,0.4,1.4c-0.5,1.3-0.8,2.6-0.9,4.1
		c-0.1,0.7-0.4,1-0.9,1.1c-1.2,0.2-2.6,0.5-3.8,0.7c-0.7,0.1-1,0.5-0.9,1.2c0.2,1,0.4,2.3,0.6,3.3c0.1,0.7,0.5,1,1.2,0.9
		c1.2-0.2,2.6-0.5,3.8-0.7c0.7-0.1,0.9,0,1.2,0.7c0.6,1.3,1.3,2.5,2.2,3.5c0.4,0.5,0.5,0.8,0.1,1.4c-0.7,1-1.4,2-2.1,3.2
		c-0.4,0.6-0.3,1.1,0.3,1.6c1,0.7,1.8,1.3,2.9,2c0.6,0.4,1.1,0.3,1.6-0.3c0.7-1,1.4-2,2.1-3.1c0.4-0.6,0.8-0.7,1.4-0.4
		c1.3,0.5,2.8,0.8,4.3,0.9c0.7,0.1,1,0.4,1.1,0.9c0.2,1.2,0.5,2.6,0.7,3.8c0.1,0.7,0.5,1,1.2,0.9c1.2-0.2,2.4-0.4,3.5-0.6
		c0.7-0.1,1-0.5,0.9-1.2C93.2-35.1,93.1-35.8,92.9-36.5z"/>
	<path id="XMLID_2_" class="st14" d="M96.3-55.2c1.1,5-2.2,10.1-7.4,11.2c-5,1.1-9.9-2.2-11-7.4c-1.2-5,2-10,7.2-11.1
		C90.1-63.6,95-60.3,96.3-55.2z M88.2-45.9c4.2-0.7,6.9-4.6,6.2-8.6s-4.6-6.7-8.6-6c-4.2,0.7-6.9,4.6-6.2,8.6S84.2-45.2,88.2-45.9z"
		/>
</g>
<g>
	<polygon class="st15" points="-39.2,-20 -41.9,-46.2 -18.3,-29.6 -19.6,-18.6 	"/>
	<path class="st9" d="M2.2-60.8c0,0-0.2,13.8-2.3,25.3c-2.1,11.4-7.7,11.1-7.7,11.1s-10.1,1.8-18.9-5.9s-13.9-14.4-13.9-14.4
		l-1.3-26.4l25.6-8.9c0,0,17.7,15.1,17.7,15.3C1.4-64.5,2.2-60.8,2.2-60.8z"/>
	<circle class="st15" cx="-35.1" cy="-54.8" r="5.5"/>
	<path class="st12" d="M2.3-48.6c0,0-1-0.6-0.4-12.2L-15-78.6l-15.3,12.5l1.6,14.2c0,0-2.3,1.1-3.3-7c0,0-0.6-1.6-3.8-1.1
		s-4.4,4.2-4.4,4.2s-1.3,5.1,4.1,6.6l-4.6,10.7l1.9,9c0,0-10.1-2.7-16.6-14.5l-3.5,3l1.9-6.5c0,0-2.5-4.8-2.1-10.6l-6-6l8.7-13.7
		L-39-91.3l10.5,1.9l7.4-3.8l15,4.9l16.1,19H3C3-69.3,6.3-59.1,2.3-48.6z"/>
	<path class="st12" d="M-1.4-60v-2.8c0,0-0.2-1.9-1.7-1.6l-9.8-1.7c-0.3-0.1-0.7,0.1-0.9,0.3c-0.6,0.8-1.8,2.7-0.7,5.1
		c0.1,0.2,0.3,0.5,0.6,0.6l0.4,0.2c0.3,0.1,0.6,0.2,0.9,0.2l10.5,0.5C-2.1-59.2-1.6-59.5-1.4-60z"/>
	<path class="st15" d="M1.7-55.2c0,0,0.4,8.8,4.1,10.4c0.1,0,0.1,0.1,0.1,0.2c-0.3,0.7-1.8,4.3-5.4,3.5c-4-0.9-0.4-3.7-0.4-3.7
		l1.1-0.3L1.7-55.2z"/>
	<ellipse class="st16" cx="-7.8" cy="-53.4" rx="2.6" ry="3.6"/>
	<circle class="st17" cx="-7.3" cy="-54.6" r="0.9"/>
	<polygon class="st18" points="-30.1,-86.9 -38.7,-88.3 -51.8,-75.9 -46,-76.9 -37.1,-84.4 	"/>
	<path class="st19" d="M-1.5-36.2c0,0-2.3,2.7-6,0c0,0-0.8-0.2-0.6,0.6c0.2,0.8,2.7,1.5,2.7,1.5s2.8,0.3,4.3-1.5
		C-1.1-35.6-0.6-36.5-1.5-36.2z"/>
	<path class="st9" d="M-27.1-20.8"/>
</g>
<g>
	<path class="st20" d="M176.3,31.8c-0.2-0.2-0.3-0.4-0.4-0.7c-0.7-1.4-0.4-2.7,1.1-3.7c0.4-0.2,0.9-0.4,1.1-0.7c0.2-0.3,0-0.8,0-1.3
		c-0.5-0.2-1.1-0.3-1.7-0.5c-1.4-0.5-2.7-1-3.9-2c-1.8-1.6-1.5-5.1,1.4-6c0.5-0.2,1.1-0.3,1.7-0.4c0-0.2,0.1-0.4,0.1-0.7
		c0.3-1.5,1.2-2.5,2.5-3.1s2.7-0.9,4.1-1.4c0.3-0.1,0.6-0.2,0.8-0.3c1.1-0.8,2.2-1.7,3.2-2.5c1.5-1.1,3.2-2.1,5.1-2.2
		c1.3-0.1,2.6,0.1,3.8,0.6c2.2,1,3.3,3,2.9,5.4c0,0.2-0.1,0.4-0.1,0.6c0.8,0.4,1.6,0.7,2.3,1.1c0.9,0.5,1.7,1.3,2.1,2.2
		c0.9,1.8,0.7,3.6-0.8,5c-0.9,0.8-1.9,1.5-2.9,2.2c-1.5,0.9-3,1.6-4.6,2.4c-0.6,0.3-1.1,0.7-1.6,1c0.3,0.4,0.7,0.8,0.9,1.2
		c0.7,1.1,1,2.3,0.5,3.6c-0.1,0.3,0.1,0.5,0.3,0.6c2.4,2.1,5,4.2,7.3,6.5c3.1,3,5.8,6.3,7.5,10.3c2.2,4.8,3,9.8,1.8,15.1
		c-1.4,6.1-5.8,9.6-12,9.7c-0.7,0-1.4,0.1-2.1,0.4c-3.8,1.5-7.8,1.9-11.9,1.4c-2-0.2-3.9-0.7-5.8-1c-0.4-0.1-0.8,0-1.2,0.1
		c-3.3,0.8-6.6,1-9.8-0.1c-5.7-1.9-9-6-10.2-11.8c-0.9-4.3-0.2-8.4,1.7-12.3c3.6-7.5,8.7-13.8,15.9-18.2
		C175.7,32.1,176,32,176.3,31.8z M192.9,39c-1.8-1.2-4.2-4-5.2-6.1c-0.9-1.9-3.1-1.8-4.2-0.5c-0.7,0.8-1.4,1.6-2.2,2.3
		s-1.8,1.4-2.6,2.1c0.7-1,1.4-1.9,2.1-2.9c0.4-0.5,0.7-1,1.1-1.5c0.1-0.2,0.2-0.5,0.1-0.7c-0.1-0.1-0.4-0.2-0.7-0.1
		c-0.3,0-0.7,0.1-1,0.2c-2.1,0.7-4,1.8-5.8,3.1c-4.6,3.4-8.2,7.6-11.1,12.4c-1.7,2.7-3.1,5.6-3.7,8.8c-0.6,3.3-0.4,6.5,1.1,9.6
		c2.5,4.9,6.6,7.3,12,7.5c1.1,0,2.2-0.1,3.4-0.2c-0.9-0.7-1.7-1.3-2.5-2c-0.7-0.7-1.3-1.5-2-2.3l0.1-0.1c0.1,0.1,0.2,0.1,0.3,0.2
		c3.9,2.9,8.2,4.6,13.1,5c7.9,0.6,15.4-2.7,19.5-10.2c0.3-0.5,0.5-1,0.8-1.4c-0.9,3.8-2.9,7-5.9,9.8c2.9-0.1,5.3-1,7.2-3.1
		c1.8-2.1,2.5-4.7,2.7-7.4c0.3-5.5-1.1-10.5-4.3-15c-3.7-5.4-8.5-9.7-13.8-13.5c-0.6-0.4-1.3-0.7-1.9-1c-0.6-0.2-0.8,0.1-0.7,0.7
		c0.1,0.4,0.2,0.7,0.4,1C190.3,35.3,191.5,37.2,192.9,39z M183.2,17.8c0.1,0,0.1,0,0.2,0c0,0.1,0,0.1,0,0.2c0.4,1.8,0.9,3.5,1.3,5.3
		c0.4,1.4,1.4,1.9,2.7,2.1c1.1,0.1,1.8-0.5,2.4-1.2c0.1-0.1,0.1-0.2,0.2-0.3c1.6-2.7,3.3-5.4,4.9-8.2c0.6-1,1.1-2.1,1.4-3.2
		c0.6-2-0.3-3.6-2.3-4.2c-2.2-0.7-4.3-0.2-6.1,1.1c-1.2,0.9-2.3,1.8-3.4,2.8c-0.7,0.5-1.3,1-2.2,1.1c-1.3,0.2-2.6,0.6-3.8,1.4
		c-1,0.6-1.4,1.5-1.2,2.7c0.1,0.4,0.1,0.9,0.3,1.2c0.7,1.4,1.4,2.7,2.1,4.1c0.4,0.7,0.8,1.2,1.7,1.1c0.1,0,0.3,0,0.4,0
		c1.3,0.2,1.7-0.3,1.6-1.6c0-0.1,0-0.1,0-0.2C183.3,20.7,183.2,19.3,183.2,17.8z M197.5,14.8c-1.7,2.7-3.4,5.3-5,7.9
		c-0.2,0.3-0.3,0.8-0.3,1.2c0,0.6,0.4,0.8,0.9,0.5c1.5-0.8,3-1.5,4.5-2.4c1-0.6,2-1.2,2.9-2c1.3-1.2,1.1-2.9-0.2-4
		C199.5,15.3,198.4,15,197.5,14.8z M177.6,31.1c7.5-2.8,9.3-2.8,15.1-0.2c0.3-0.8,0.2-1.6-0.5-2.2c-0.6-0.5-1.2-0.9-1.9-1.1
		c-2.4-0.9-4.9-1-7.4-0.6c-1.6,0.2-3.2,0.6-4.6,1.3C176.9,28.9,176.7,29.9,177.6,31.1z M179.1,26.3c1.7-0.3,3.4-0.6,5.1-0.9
		c-1.5-0.6-2.9-0.9-4.4-0.4C179.2,25.3,179,25.7,179.1,26.3z"/>
	<path class="st12" d="M182.2,52.9c-1.8-0.1-3.1-0.7-4-2.3c-1.2-2.2-0.9-6.2,2.4-7.7c0.3-0.1,0.6-0.3,0.9-0.4c0-0.5,0-1-0.1-1.5
		c0-0.8,0.3-1.2,1-1.3c0.7,0,1.2,0.3,1.3,1.1c0,0.4,0.1,0.7,0.1,1.2c0.6,0,1.2-0.1,1.8-0.1c0-0.4,0-0.9,0-1.3c0-0.7,0.4-1.1,1-1.1
		s1.1,0.3,1.2,1c0.1,0.6-0.1,1.2,0.2,1.6c0.3,0.4,1,0.4,1.5,0.6c0.6,0.4,1.3,0.8,1.8,1.3c0.6,0.6,0.4,1.5-0.2,2.1
		c-0.3,0.3-0.6,0.3-1,0.2c-0.6-0.3-1.2-0.5-1.9-0.8c0.1,1.3,0.2,2.5,0.2,3.8c0,1,0.3,1.4,1.3,1.8c3.9,1.6,5.1,7.1,2.5,10.2
		c-0.7,0.8-1.7,1.4-2.7,1.7c-0.4,0.1-0.5,0.3-0.5,0.7s0,0.9,0,1.3c0,0.6-0.4,1-1.1,1.1c-0.7,0-1.1-0.3-1.2-0.9c0-0.5,0-0.9,0-1.4
		c-0.6,0-1.2,0-1.9,0c0,0.4,0,0.9,0,1.4c0,0.8-0.5,1.2-1.2,1.2s-1.1-0.4-1.1-1.2c0-0.6,0-1.2,0-1.8c-0.8-0.2-1.6-0.4-2.3-0.7
		s-1.4-0.6-2-1c-0.9-0.6-1.1-1.7-0.6-2.6c0.5-0.9,1.4-1.3,2.3-0.9c0.6,0.3,1.2,0.6,1.8,1c0.2,0.1,0.4,0.2,0.7,0.4
		C182.4,57.3,182.3,55.1,182.2,52.9z M186.7,60.1c-0.1-2.2-0.2-4.3-0.3-6.5c0-0.1-0.1-0.3-0.2-0.3c-0.5-0.1-1-0.1-1.5-0.2
		c0,0.3,0,0.5,0,0.7c0.1,1.7,0.2,3.3,0.2,5C185,60.4,185,60.5,186.7,60.1C186.6,60.2,186.6,60.2,186.7,60.1z M186.2,50.3
		c-0.1-1.7-0.2-3.2-0.3-4.8c0-0.1-0.2-0.3-0.3-0.3c-0.5,0-1,0-1.5,0c0.1,1.7,0.2,3.4,0.4,5C185,50.2,185.6,50.2,186.2,50.3z
		 M188.8,54.2c0.1,1.9,0.1,3.6,0.2,5.4c1.1-0.6,1.4-1.5,1.4-2.6C190.4,55.8,190,54.9,188.8,54.2z M181.7,46c-0.8,0.7-1.1,1.6-1,2.6
		c0.1,0.6,0.4,1.1,1.2,1.4C181.9,48.6,181.8,47.3,181.7,46z"/>
</g>
<g>
	<path class="st12" d="M61.5,127.5c0,1.3,0,2.6,0,3.9c-0.3,1.4-1,2.5-2.1,3.3c-0.9,0.7-1.9,1.2-2.9,1.8c-0.1,0.1-0.3,0.2-0.3,0.3
		c-0.2,0.5-0.5,1-0.7,1.5c-0.1,0.1-0.1,0.3,0,0.5c0.5,0.8,0.8,1.7,0.8,2.7c0,0.7,0,1.5,0,2.2c0,1.1-0.3,2-0.9,2.8
		c-0.7,1-1.6,1.7-2.6,2.3c-2.5,1.5-5.3,2.3-8.2,2.6c-0.7,0.1-1.4,0.2-2.1,0.2c-1.3,0-2.6,0-3.9,0c-0.1,0-0.2-0.1-0.3-0.1
		c-2.1-0.2-4.2-0.5-6.2-1.2c-1.9-0.6-3.7-1.4-5.3-2.8c-1.3-1.2-2.1-2.6-2-4.4c0-0.6,0-1.2,0-1.8c0-1,0.2-1.9,0.8-2.7
		c0.1-0.2,0.1-0.3,0-0.5c-0.2-0.5-0.6-1.1-0.6-1.6c-0.1-1.7-0.3-3.5,0.3-5.2c-0.2-0.1-0.4-0.2-0.7-0.3c-2.2-1.1-4.3-2.4-5-5.1
		c0-1.3,0-2.6,0-3.9c0.3-1,0.7-1.9,1.4-2.6c1-1.1,2.2-1.8,3.5-2.5c0.2-0.1,0.3-0.3,0.4-0.5c0.3-0.6,0.5-1.2,0.9-1.7
		c0.7-1.1,1.7-1.8,2.8-2.4c2.5-1.4,5.1-2.1,7.9-2.5c0.7-0.1,1.4-0.2,2.1-0.2c1.3,0,2.6,0,3.9,0c0.1,0,0.2,0.1,0.3,0.1
		c1.9,0.1,3.8,0.4,5.7,1c2.1,0.6,4.1,1.5,5.8,3c1,0.9,1.9,2,2,3.4c0,1.6,0.3,3.3-0.4,4.9c0.2,0.1,0.4,0.2,0.5,0.2
		C58.7,123.5,60.8,124.8,61.5,127.5z M40.5,111.2c-0.7,0-1.4,0-2.2,0c-2.7,0.2-5.3,0.7-7.7,1.8c-1.5,0.7-2.8,1.5-3.8,2.8
		s-0.9,2.6,0,3.8c0.2,0.2,0.3,0.4,0.5,0.6c1,1,2.3,1.8,3.6,2.3c3.4,1.4,7,1.8,10.7,1.7c2.9-0.1,5.7-0.6,8.3-1.7
		c1.6-0.7,3.1-1.5,4.1-2.8s1.1-2.6,0-4c-1-1.3-2.3-2.1-3.8-2.7C47.2,111.6,43.9,111.2,40.5,111.2z M37.4,133.4
		c0.1,0,0.2,0.1,0.3,0.1c3.1,1,6.4,1.3,9.7,1.2c2.7-0.1,5.4-0.6,7.9-1.7c1.5-0.6,3-1.4,4.1-2.8c1.1-1.4,1.1-2.8-0.1-4.2
		c-1.1-1.2-2.5-2-4-2.7c-0.1,0-0.3,0-0.3,0c-1.1,1.2-2.4,2-3.8,2.7c-0.1,0-0.2,0.2-0.2,0.3c-0.3,1.3-1.1,2.3-2.1,3.1
		c-1.6,1.3-3.5,2.1-5.4,2.7C41.4,132.9,39.4,133.2,37.4,133.4z M54.4,139.8c-0.2,0.2-0.5,0.4-0.7,0.5c-2,1.6-4.4,2.4-6.9,2.9
		c-3.2,0.7-6.5,0.8-9.8,0.5c-2.5-0.3-4.9-0.8-7.1-1.9c-1.2-0.5-2.3-1.2-3.3-2.1c-0.4,0.7-0.6,1.3-0.5,2c0.2,1,0.9,1.8,1.7,2.4
		c1.5,1.2,3.2,2,5,2.5c4.3,1.3,8.7,1.4,13.2,0.5c2.2-0.4,4.2-1.1,6.1-2.3c1.1-0.7,2-1.4,2.5-2.6C55.1,141.6,55,140.7,54.4,139.8z
		 M24.7,118.6c-1.1,0.5-2,1.1-2.8,2c-1.5,1.7-1.5,3.3,0.1,4.9c1.3,1.3,3,2.1,4.7,2.7c4.5,1.5,9.2,1.7,13.9,0.8
		c1.1-0.2,2.1-0.5,3.2-0.8v-0.1c-0.1,0-0.2,0-0.3,0c-1.3,0.1-2.6,0.2-3.9,0.1c-3,0-6-0.5-8.9-1.6c-1.8-0.7-3.5-1.6-4.8-3.1
		c-0.9-1-1.4-2.1-1.3-3.4C24.8,119.6,24.7,119.1,24.7,118.6z M26.4,132.2c-0.3,0.5-0.4,1.1-0.3,1.8c0.2,1,0.9,1.8,1.7,2.4
		c1.5,1.2,3.2,2,5,2.5c4.6,1.3,9.2,1.4,13.8,0.4c0.8-0.2,1.6-0.5,2.5-0.7v-0.1c-0.1,0-0.3,0-0.4,0c-1.6,0-3.2,0.1-4.7,0.1
		c-2.8-0.1-5.6-0.6-8.2-1.7c-2-0.8-3.7-1.9-5-3.7c-0.1-0.1-0.2-0.1-0.3-0.2C29.1,132.8,27.8,132.5,26.4,132.2z"/>
	<path class="st12" d="M39.2,112.5c0.8,0,1.7,0,2.5,0c0,0.3,0,0.6,0,0.9c2,0.2,3.9,0.3,5.4,2c-0.7,0.1-1.2,0.2-1.8,0.3
		c-0.5,0.1-0.9,0.2-1.4,0.2c-0.1,0-0.3,0-0.4-0.1c-0.6-0.6-1.3-0.9-2.1-1c-0.8,0-1.6,0.1-2.4,0.1c-0.1,0-0.3,0.1-0.3,0.1
		c-0.2,0.2-0.4,0.4-0.4,0.6c0,0.2,0.3,0.4,0.5,0.5c0.7,0.2,1.5,0.3,2.3,0.5c1.4,0.3,2.7,0.4,4.1,0.8c0.6,0.1,1.3,0.4,1.8,0.8
		c1,0.6,1,1.7,0.1,2.5c-0.8,0.6-1.8,0.9-2.8,1.1c-0.8,0.1-1.7,0.2-2.6,0.3c0,0.4,0,0.7,0,1.1c-0.8,0-1.7,0-2.5,0c0-0.4,0-0.8,0-1.1
		c-2.2-0.3-4.5-0.3-6.1-2.4c1.1-0.1,2-0.2,2.9-0.3c0.1,0,0.1,0,0.2,0c0.4-0.1,0.8-0.1,1.1,0.4c0.3,0.5,0.9,0.6,1.5,0.7
		c1.1,0.2,2.2,0.2,3.3,0c0.3-0.1,0.5-0.2,0.8-0.3c0.5-0.3,0.5-0.8-0.1-1c-0.5-0.2-1.1-0.3-1.7-0.4c-1.5-0.3-2.9-0.4-4.4-0.8
		c-0.7-0.2-1.5-0.4-2.1-0.8c-1.1-0.6-1.1-1.7-0.1-2.5c0.9-0.7,2-1,3.2-1.1c0.4-0.1,0.8-0.1,1.1-0.1c0.3,0,0.4-0.1,0.4-0.4
		C39.2,112.8,39.2,112.7,39.2,112.5z"/>
</g>
<g>
	<path class="st12" d="M138.9,87.9c0.1,0.2,0.2,0.4,0.3,0.6c-0.2,0.1-0.4,0.2-0.6,0.3c-12.7,6.4-25.4,12.7-38.1,19.1
		c-0.7,0.3-1.2,0.9-1.8,1.2c-0.4,0.1-0.7,0.1-1.1,0.2c-0.5,0.2-1,0.5-1.4,0.7c-0.1-0.2-0.2-0.3-0.2-0.4c-0.2-0.3-0.3-0.6-0.5-1
		c-1-2-1.8-4.1-3.1-5.9c-1.3-1.8-3-3.3-4.5-4.9c-1.9-2-3.7-4-5.6-6c1.7-1.6,3.4-3.2,5-4.7c1.7-1.5,3.3-3.1,5-4.7
		c1.7-1.6,3.4-3.1,5-4.7c1.7-1.6,3.3-3.1,5-4.7c1.7-1.6,3.4-3.1,5-4.7c1.7-1.6,3.3-3.1,5-4.7c1.7-1.6,3.4-3.1,5.1-4.7
		c2.9,3.1,5.7,6.1,8.6,9.2c0.8-0.4,1.6-0.8,2.4-1.2c0.2,0.4,0.3,0.7,0.5,1c0.8,1.7,1.7,3.3,2.5,5 M127.4,69.4
		C114.2,76,101.2,82.5,88,89.1c3.1,6.3,6.2,12.4,9.3,18.7c13.1-6.6,26.2-13.1,39.4-19.7C133.6,81.8,130.5,75.6,127.4,69.4z
		 M104.2,75.9c3-2.8,6-5.6,9-8.4c2.1,1.9,4.5,1.9,6.6,0.2c0.8,0.8,1.5,1.6,2.3,2.5c0.7-0.3,1.3-0.6,2-1c-2.4-2.6-4.7-5.1-7.1-7.6
		c-8.5,8-17,15.9-25.5,23.8c2.5-1.2,5.1-2.1,7-4.2c0.9-1,1.9-1.8,2.9-2.7c0.1-0.1,0.2-0.2,0.4-0.3c-0.2,0.5-0.4,0.9-0.7,1.3
		c-0.2,0.4-0.4,0.9-0.6,1.4c1.7-0.5,2.8-1.3,3.6-2.5c-0.1-0.2-0.3-0.4-0.5-0.6c0.2-0.2,0.3-0.3,0.5-0.4c0.2,0.2,0.4,0.4,0.6,0.5
		c1-0.7,2.1-1.3,3.4-0.8c0.1,0,0.2,0,0.2,0c1.2-0.6,2.3-1.2,3.6-1.8C109.9,74.3,107.6,74.5,104.2,75.9z M84.9,91.6
		c1.4,1.5,2.7,2.9,4,4.3c0,0,0.1,0,0.1-0.1c-0.9-1.8-1.8-3.6-2.7-5.5C85.8,90.8,85.4,91.2,84.9,91.6z M107.1,77.7
		c-0.9-0.2-1.6,0.2-1.8,0.9C106,78.3,106.6,78,107.1,77.7z"/>
	<path class="st12" d="M108.1,81c-1.9,1.6-3,3.6-3.3,6c-0.2,1.7,0.1,3.4,0.9,4.9c0.9,1.9,2.4,3.2,4.3,4.1c1.9,0.8,3.9,1,5.9,0.6
		c-4.5,2.2-9,4.5-13.5,6.8c-0.6-1.1-1.5-1.9-2.7-2.3c-1.2-0.4-2.4-0.3-3.6,0.2c-1.2-2.3-2.3-4.6-3.5-6.9c2.6-2.2,3.1-3.8,1.9-6.6
		C99.1,85.5,103.6,83.2,108.1,81z M98.2,97.1c0.8,0,1.4-0.7,1.4-1.5s-0.7-1.5-1.5-1.4c-0.8,0-1.4,0.7-1.4,1.5
		C96.8,96.5,97.4,97.1,98.2,97.1z"/>
	<path class="st12" d="M131.9,83.3c-2,1.2-3.2,3.3-2.1,6.3c-3.7,1.8-7.4,3.7-11,5.5c4.2-3.6,3.9-8.5,2.2-11.4s-5.5-5.3-10.2-4.1
		c3.7-1.9,7.4-3.7,11.2-5.6c1.6,2.5,4,3,6.3,2.1C129.5,78.5,130.7,80.8,131.9,83.3z M127.7,82.6c0-0.8-0.6-1.5-1.4-1.5
		c-0.8,0-1.5,0.6-1.5,1.4c0,0.8,0.6,1.5,1.4,1.5C127,84,127.6,83.4,127.7,82.6z"/>
	<path class="st12" d="M116.7,92.8c0.3,0.6,0.6,1.2,0.9,1.9c-0.2,0.1-0.4,0.2-0.6,0.3c-0.3-0.7-0.6-1.3-0.9-1.8
		c-0.8,0.1-1.6,0.3-2.4,0.3c-0.9,0-1.6-0.5-2-1.4c-0.2-0.5-0.2-1,0.2-1.4c0.3-0.3,0.7-0.3,1.1-0.1c0.5,0.4,0.6,0.8,0.4,1.4
		c-0.3,0.7-0.1,1,0.7,0.9c0.5-0.1,1-0.2,1.6-0.4c-0.6-1.2-1.1-2.3-1.7-3.3c-0.1-0.2-0.2-0.4-0.3-0.7c-0.1-0.4-0.3-0.5-0.7-0.4
		c-0.9,0.1-1.8,0-2.7-0.4c-1.3-0.6-2.4-2.9-1.3-4.2c0.4-0.6,0.9-1.1,1.4-1.7c0-0.1-0.1-0.3-0.3-0.6c0.2-0.1,0.4-0.2,0.6-0.3
		c0.1,0.2,0.3,0.4,0.4,0.6c0.6-0.1,1.2-0.3,1.8-0.3c1.2,0,2,0.4,2.2,1.4c0,0.1,0,0.2,0,0.3c0,0.6-0.3,1.1-0.8,1.1
		c-0.4,0-0.9-0.7-0.9-1.2c0-0.4,0.3-0.9-0.2-1c-0.6-0.1-1.1,0.1-1.7,0.2c0,0-0.1,0.3,0,0.4c0.5,1.1,1.1,2.1,1.7,3.2
		c0.2,0.5,0.5,0.6,1,0.6c1.1-0.1,2.2,0,3.2,0.7c1.8,1.3,1.9,3.6,0.3,5.1C117.3,92.3,117,92.5,116.7,92.8z M116.4,92.2
		c1.3-0.8,1.7-1.8,1.3-2.9c-0.4-1.1-1.6-1.6-3.4-1.2C115,89.5,115.7,90.8,116.4,92.2z M110.7,82.5c-1.1,0.6-1.7,1.8-1.3,2.6
		c0.6,1.2,2,1.7,3.2,1.2C112,85,111.3,83.8,110.7,82.5z"/>
</g>
</svg>
