<?xml version="1.0" encoding="utf-8"?>
<!-- Generator: Adobe Illustrator 19.0.0, SVG Export Plug-In . SVG Version: 6.00 Build 0)  -->
<svg version="1.1" id="Слой_1" xmlns="http://www.w3.org/2000/svg" xmlns:xlink="http://www.w3.org/1999/xlink" x="0px" y="0px"
	 viewBox="540 -540 1200 1200" style="enable-background:new 540 -540 1200 1200;" xml:space="preserve">
<style type="text/css">
	.st0{fill:none;stroke:#000000;stroke-width:40;stroke-miterlimit:10;}
</style>
<g>
	<path class="st0" d="M751.5-19.6c2.2-15.6,13-24,27-29.2c10.8-4,21.2-8.5,31.3-14c9.8-5.4,20.4-7.3,31.9-4.9c0-1,0.1-1.8,0-2.6
		c-1.2-13.1,1.3-25.7,6.2-37.7c7.5-18.2,12.6-36.9,16.1-56.3c3.7-20.3,14.5-36.2,32.1-47.6c9.7-6.3,19.4-12.1,30.1-16.5
		c2-0.8,3.9-2.1,5.3-2.8c-4.3-5.1-9.4-9.5-12.6-15.1c-9.7-16.8-7.7-36,4.7-51.4c1.8-2.2,3.5-4.6,5.7-6.4
		c11.1-8.9,18.9-20.5,27.4-31.6c9.4-12.3,21.2-21.6,37.1-24c9.3-1.4,18.4,0.1,27.3,2.9c6.2,1.9,12.3,4.2,18.4,6.2
		c7.2,2.4,10.2,1.6,14.4-4.7c4.6-6.9,8.6-14.3,13-21.4s8.6-14.4,13.8-20.9c15.8-19.4,36.1-27.2,60.6-20.4
		c17.3,4.8,35.2,5.8,52.5,9.9c15.2,3.6,30.3,7.1,45.3,11.3c6.9,1.9,13.3,5.5,20,8.3c9.8,4.2,15.9,11.8,19.2,21.7
		c3.4,10.2,6.5,20.4,9.8,30.6c0.4,1.2,0.8,2.3,1.2,3.4c5.4-5,10.3-10.4,16-14.7c21.5-16.3,45.7-24.3,72.8-22.4
		c15.4,1.1,28.4,8.1,40,17.8c15.2,12.8,27.9,27.9,39.3,44.1c8.2,11.7,12.4,25.1,12.9,39.3c0.4,9.4,3.5,18,6.4,26.8
		c3,8.9,5.7,18.2,6.8,27.5c1.7,14.4-3.1,27.3-12,38.7c-2.2,2.8-4.4,5.5-6.5,8.2c-3.7,4.8-4,6.9-0.4,11.7
		c8.6,11.8,17.2,23.5,29.7,31.9c6.8,4.6,13.1,10.1,19.3,15.4c7.2,6.2,12.8,13.5,16.8,22.2c3.1,6.7,6.4,13.2,9.9,19.7
		c5.8,10.9,14.2,19.4,24.9,25.8c19.7,11.7,29.4,29.6,31.2,52.1c0.1,1.6,0.4,3.2,0.6,4.5c6.6-1.4,12.8-3.3,19.2-4
		c21.3-2.2,37.6,6.2,49.3,24c0.3,0.4,0.5,0.8,0.8,1.3c5.8,11,13.8,19.5,23.8,27.2c20.9,16.1,22.5,41.9,5.3,64
		c-9,11.6-20.5,20.5-32,29.3c-9.3,7.1-18.6,14.5-28.8,20.1c-22.1,11.9-43.3,8.4-63.1-6.1c-5.7-4.2-11.6-8.2-17.5-12.2
		c-1.3-0.9-2.8-1.5-4.2-2.2c-2.5,4.9-4.8,9.6-7.4,14.7c1.3,1.6,2.9,3.6,4.6,5.5c10.7,12.6,15.7,27.3,16.4,43.7
		c0.3,6.5,0.6,13,0.6,19.5c0,7.2,2,13.4,7.1,18.7c12.5,13.2,17.1,29.5,18.6,47.1c1.2,13.3,2.3,26.6,3.6,39.9
		c1.3,13.1-9.6,25.6-23.1,25.5c-11.2-0.1-22.4-1.3-33.7-1.8c-11.6-0.5-23.2-1.4-34.8-1.1c-20.2,0.5-32.4,10.4-38.1,29.8
		c-4.3,14.5-3.9,29.4-4,44.2c-0.1,11.1,0,22.2-2.7,33.1c-5.8,23.6-25.3,35.9-49.3,31.1c-10.5-2.1-20.1-6.5-29.7-11.1
		c-2.4-1.1-4.7-2.3-7.1-3.3c-4.5-2-8.9-2.5-13.8-1.2c-23,6-43.1-0.8-61.4-14.7c-3.2-2.4-6.6-4.6-9.5-7.3c-7.5-7.1-16.2-8-25.4-5.1
		c-10.4,3.2-20.5,6.9-30.8,10.4c-17.3,5.9-33.9,5.7-49.9-4.4c-8.1-5.1-17.4-7.5-27-7.9c-2.1-0.1-4.6,0.4-6.3,1.5
		c-7.2,4.6-14.2,9.7-21.4,14.4c-9.7,6.2-20.2,9.6-31.9,8.9c-11.9-0.8-21.1-6.3-28.3-15.5c-2.7-3.5-4.8-7.6-7.5-11.2
		c-1-1.3-3-2.4-4.7-2.7c-5.2-0.8-10.5-0.8-15.6-1.8c-11.4-2.4-20.2-8.9-27.1-18.1c-2.3-3-4.6-5.9-6.8-9
		c-5.4-7.8-12.9-12.1-22.2-13.9c-15.4-3-31-3.8-46.6-3.3c-23.8,0.8-47.7,2.2-71.5,2.4c-18.3,0.1-36.7-2.1-55.1-1.7
		c-20.3,0.4-40.6,2.3-60.9,4.2c-11.3,1.1-19.4,7.4-25,17.5c-5.6,10-11.6,19.8-18.3,29.1c-9.1,12.7-22.3,19.7-37.6,20.5
		c-17.5,1-35.2,0.9-52.7-0.4c-18.8-1.4-29.3-16.3-25.5-34.8c2.7-13.3,6.6-26.4,9.6-39.6c1.2-5.1,1.5-10.3,2-15.5
		c0.3-3.7-1.1-6.8-4.4-8.9c-3.6-2.3-7-4.8-10.5-7.1c-16.7-10.7-22.2-26-20.1-45.4c3.2-29,17.7-50.3,41.6-66
		c6.3-4.1,13.1-8.1,18.3-13.5c12.7-13.2,16.7-30.1,17.1-47.9c0.5-22.7-4.5-44.7-11.6-66.1c-10-29.9-21.1-59.4-31.2-89.3
		c-4.1-12-7.9-24.3-10.2-36.7c-3.1-16.6,11.3-29.7,27.9-26.9c24,3.9,48.2,7.6,72.6,6.3c7.6-0.4,15.3-2.1,22.8-3.7
		c6.4-1.4,12.7-3.9,19.1-5.2C737.8-17.9,744.4-18.5,751.5-19.6z"/>
</g>
</svg>
