<?xml version="1.0" encoding="utf-8"?>
<!-- Generator: Adobe Illustrator 19.0.0, SVG Export Plug-In . SVG Version: 6.00 Build 0)  -->
<svg version="1.1" id="Слой_1" xmlns="http://www.w3.org/2000/svg" xmlns:xlink="http://www.w3.org/1999/xlink" x="0px" y="0px"
	 viewBox="431 -369 981 858" style="enable-background:new 431 -369 981 858;" xml:space="preserve">
<g>
	<path d="M432,254c0-183,0-366,0-549c0.3-0.9,0.7-1.8,0.9-2.8c4.9-29.4,21-50.6,48-62.7c8.4-3.8,18-5.1,27.1-7.5c276,0,552,0,828,0
		c1.1,0.3,2.2,0.7,3.3,0.9c34.9,3.9,63.5,29.6,70.7,63.9c1.4,6.6,1.9,13.5,1.9,20.3c0.1,174.8,0,349.6,0.1,524.5
		c0,15.3-2.8,29.9-10.7,43.1c-16.7,27.9-41.5,41.7-74.1,41.7c-173.5,0-347,0-520.5,0c-2.3,0-4.5,0-7.3,0c0,54.5,0,108.2,0,162.9
		c-34.4-34.4-68-68-102.6-102.6c-34.1,34.1-67.7,67.7-101.7,101.7c0-53.9,0-107.6,0-162c-2.5,0-4.4,0-6.4,0
		c-25.8,0-51.7,0.4-77.5-0.2c-36.8-0.8-67.8-25.9-76.9-61.6C433.6,261.1,432.8,257.5,432,254z M799.5,285.6c2.8,0,4.9,0,7.1,0
		c172.8,0,345.7,0,518.5,0c4,0,8,0,12-0.6c15.3-2.1,26.5-9.9,31.5-24.8c1.9-5.7,2.5-12.1,2.5-18.2c0.1-175.2,0.1-350.3,0.1-525.5
		c0-3.2,0-6.4-0.6-9.5c-3.9-20.9-20.3-34-42.4-34c-183,0-366,0-549,0c-87.8,0-175.7-0.1-263.5,0.1c-6.2,0-12.7,1-18.6,3
		c-15.5,5.5-24.1,19.5-24.1,38.4c0,176.3,0,352.7,0,529c0,2.5,0.1,5,0.5,7.5c3.8,21.3,20,34.5,43,34.6c24.7,0.1,49.3,0,74,0
		c1.5,0,2.9-0.2,4.4-0.3c0.2-1,0.4-1.6,0.4-2.3c0-26.8,0.1-53.7-0.1-80.5c0-1.9-1.3-4.1-2.6-5.5c-31.7-34.3-43.5-74.5-35.5-120.3
		C571-3.2,652.2-56.5,730.9-36.8c99.4,24.9,148.9,147.2,71.9,233.7c-1.8,2-2.9,5.2-2.9,7.9c-0.2,25-0.1,50-0.1,75
		C799.5,281.4,799.5,283.2,799.5,285.6z M799.5,101.6C799.3,44.2,754.6-0.3,697.1-0.2c-57,0.1-101.8,45-101.8,101.9
		c0,57.3,45.3,102.4,102.7,102.2C754.8,203.7,799.7,158.5,799.5,101.6z M758.6,232.5c-41.1,16.3-81.5,16.2-122.1,0.1
		c0,53,0,105.4,0,159.2c20.9-20.9,40.9-41,61.9-62c20.1,20.1,40.1,40.1,60.2,60.2C758.6,337.8,758.6,285.6,758.6,232.5z"/>
	<path d="M1289.3-163.4c0,13.5,0,26.6,0,40.1c-244.8,0-489.5,0-734.5,0c0-13.3,0-26.5,0-40.1C799.6-163.4,1044.2-163.4,1289.3-163.4
		z"/>
	<path d="M1289.3-40.7c0,13.5,0,26.6,0,40.1c-122.4,0-244.5,0-367,0c0-13.3,0-26.5,0-40.1C1044.5-40.7,1166.6-40.7,1289.3-40.7z"/>
	<path d="M1289.2,81.8c0,13.3,0,26.6,0,40.1c-81.4,0-162.6,0-244.3,0c0-13.2,0-26.4,0-40.1C1126.2,81.8,1207.5,81.8,1289.2,81.8z"/>
</g>
</svg>
