<?xml version="1.0" encoding="utf-8"?>
<!-- Generator: Adobe Illustrator 19.0.0, SVG Export Plug-In . SVG Version: 6.00 Build 0)  -->
<svg version="1.1" id="Слой_1" xmlns="http://www.w3.org/2000/svg" xmlns:xlink="http://www.w3.org/1999/xlink" x="0px" y="0px"
	 viewBox="170.1 -105.7 280.6 251.3" style="enable-background:new 170.1 -105.7 280.6 251.3;" xml:space="preserve">
<g>
	<path d="M215,10.1c0-0.8,0-1.3,0-1.8c0-31.7,0-63.5,0-95.2c0-8.2,4.7-15.1,12.2-17.7c1.9-0.7,3.9-0.8,5.9-1.1c0.4-0.1,0.9,0,1.4,0
		c50.6,0,101.2,0,151.7,0c6,0,11.1,2,15,6.6c3,3.6,4.4,7.8,4.4,12.5c0,24.3,0,48.6,0,72.9c0,7.5,0,15,0,22.5c0,0.5,0,0.9,0,1.6
		c0.7,0,1.3,0,1.9,0c4.7,0,9.4-0.2,14,1.2c15.2,4.5,24.3,14.7,28,29.9c0.7,2.8,1,5.9,1,8.8c0.1,18.5,0.2,36.9,0,55.4
		c-0.2,15.8-7.2,27.9-21.2,35.6c-5.1,2.8-10.6,4.2-16.4,4.2c-68.3,0-136.7,0.1-205-0.1c-15.2,0-26.1-7.9-33.3-21.1
		c-3.1-5.7-4.5-12-4.5-18.5c0-18.5-0.1-37.1,0-55.6c0.1-16.4,9.7-31,24.4-37c4.5-1.8,9.2-2.7,14-2.7C210.6,10.1,212.7,10.1,215,10.1
		z M392.6,10.1c0-0.5,0.1-0.9,0.1-1.3c0-31.8,0-63.7,0-95.5c0-4-2.3-6.3-6.4-6.3c-50.7,0-101.4,0-152.1,0c-4.1,0-6.4,2.3-6.4,6.4
		c0,31.8,0,63.6,0,95.4c0,0.4,0,0.9,0.1,1.3C282.9,10.1,337.7,10.1,392.6,10.1z M313.4,36.8c-19-0.3-32.3,1.4-43.5,4.6
		c-8.9,2.6-17.2,6.7-25.7,10.5c-14.2,6.3-21.7,17.8-25.1,32.3c-0.9,3.8-1.1,7.6,0.4,11.3c1.7,4.4,4.3,8.3,7.2,11.9
		c1.8,2.3,4,2.8,6.7,2c0.3-0.1,0.6-0.2,1-0.3c3.5-0.9,7-1.9,10.5-2.8c7.3-2,14.6-4,21.9-6c2.1-0.6,3.3-2.1,3.4-4.1
		c0.2-2.4,0.2-4.7,0.1-7.1c-0.3-4.7-0.8-9.4-1-14.1c-0.1-3.5,1.2-5.2,4.6-6.2c1.8-0.5,3.7-0.9,5.6-1.4c10.5-2.9,21.2-4.6,32.2-4.3
		c10.2,0.2,20.1,2.2,29.9,5c5.3,1.5,6.3,2.9,6.1,8.4c-0.1,3.8-0.2,7.6-0.1,11.4c0.1,4.3,2,7.4,6.1,9.2c7,3.2,14,6.6,21,10
		c2.9,1.4,5.8,2.9,8.7,4.3c2.3,1.1,4.5,1,6.5-0.8c2.5-2.2,4.9-4.4,7.4-6.5c3.4-2.9,4.8-6.8,4.7-11.1c-0.1-3.5-0.2-7-1-10.4
		c-3.1-12.9-9.9-23.2-22.1-29.3c-3-1.5-6-3-9.1-4.2C349.6,41.2,328.7,37.1,313.4,36.8z"/>
	<path d="M310.5-63.7c-21.2,0-42.5,0-63.7,0c-4.2,0-7.1-3-6.8-7c0.2-2.9,2.4-5.3,5.3-5.7c0.7-0.1,1.5-0.1,2.2-0.1
		c42.1,0,84.2,0,126.3,0c1,0,2.1,0.1,3.1,0.4c3,0.9,4.7,3.8,4.4,6.9c-0.4,3-2.9,5.3-6,5.6c-0.5,0-1,0-1.5,0
		C352.6-63.7,331.6-63.7,310.5-63.7z"/>
	<path d="M310.6-49.4c21.1,0,42.2,0,63.2,0c1,0,2,0,3,0.3c3,0.9,4.8,3.9,4.4,7c-0.4,3-2.9,5.3-6,5.5c-0.5,0-0.9,0-1.4,0
		c-42.2,0-84.4,0-126.6,0c-0.8,0-1.7,0-2.5-0.2c-3.2-0.7-5.2-3.6-4.9-6.9c0.3-3.1,2.8-5.5,6-5.7c0.6,0,1.2,0,1.7,0
		C268.7-49.4,289.7-49.4,310.6-49.4z"/>
	<path d="M310.5-9.5c-21.1,0-42.2,0-63.4,0c-1.2,0-2.4-0.2-3.5-0.6c-2.7-1.1-4.1-4.1-3.6-7c0.5-2.8,2.9-4.9,5.9-5.1
		c0.2,0,0.5,0,0.7,0c42.6,0,85.2,0,127.9,0c3.3,0,5.8,1.9,6.6,4.9c1,3.8-1.8,7.6-5.7,7.9c-0.6,0-1.2,0-1.7,0
		C352.6-9.5,331.5-9.5,310.5-9.5z"/>
</g>
</svg>
