<?xml version="1.0" encoding="utf-8"?>
<!-- Generator: Adobe Illustrator 19.0.0, SVG Export Plug-In . SVG Version: 6.00 Build 0)  -->
<svg version="1.1" id="Layer_1" xmlns="http://www.w3.org/2000/svg" xmlns:xlink="http://www.w3.org/1999/xlink" x="0px" y="0px"
	 viewBox="90 -90.1 300 300.1" style="enable-background:new 90 -90.1 300 300.1;" xml:space="preserve">
<path d="M347.4-90.2h-204c-26.5,0-49.9,19.3-49.9,45.8v204c0,26.5,23.4,50.2,49.9,50.2h126.3c-0.2-39.3,0.1-83.1-0.1-121.2
	c-8.1-0.1-16.1-0.5-24.2-0.6c0-13.4,0-27.2,0-40.6c8.1-0.1,16.1-0.1,24.2-0.2c0.2-13.1-0.2-26.2,0.3-39.3
	c0.8-10.3,4.7-20.8,12.5-27.9c9.4-8.9,22.7-11.9,35.2-12.3c13.3-0.1,26.6-0.1,39.8,0c0.1,14,0.1,28,0,42c-8.6,0-17.2,0-25.8,0
	c-5.4-0.3-11,3.8-12,9.2c-0.1,9.4,0,18.8,0,28.1c12.6,0.1,25.2,0,37.8,0c-0.9,13.6-2.6,27.1-4.6,40.5c-11.1,0.1-22.2,1.1-33.4,1.2
	c-0.1,38,0,81.8-0.1,121.2h28.1c26.5,0,46.1-23.7,46.1-50.2v-204C393.5-70.9,373.9-90.2,347.4-90.2z"/>
</svg>
