<?xml version="1.0" encoding="utf-8"?>
<!-- Generator: Adobe Illustrator 19.0.0, SVG Export Plug-In . SVG Version: 6.00 Build 0)  -->
<svg version="1.1" id="Слой_1" xmlns="http://www.w3.org/2000/svg" xmlns:xlink="http://www.w3.org/1999/xlink" x="0px" y="0px"
	 viewBox="0 0 225 225" style="enable-background:new 0 0 225 225;" xml:space="preserve">
<g>
	<path d="M153,225.8c-26.5,0-53,0-79.5,0c-3.2-0.3-6.4-0.6-9.6-0.8c-35.2-1.7-57.7-22.7-61.8-57.5c-0.6-4.8-0.9-9.6-1.3-14.4
		c0-26.5,0-53,0-79.5c0.3-3.2,0.6-6.4,0.8-9.6C3.3,28.8,24.2,6.2,59.1,2.1c4.8-0.6,9.6-0.9,14.4-1.3c26.5,0,53,0,79.5,0
		c3.2,0.3,6.4,0.6,9.6,0.8c35.1,1.7,57.7,22.7,61.8,57.5c0.6,4.8,0.9,9.6,1.3,14.4c0,26.5,0,53,0,79.5c-0.3,3.2-0.6,6.4-0.8,9.6
		c-1.7,35.2-22.6,57.7-57.5,61.8C162.6,225,157.8,225.3,153,225.8z M21.8,113.2C21.8,113.2,21.8,113.2,21.8,113.2
		c0.1,16-0.5,32,0.2,47.9c1.1,26.2,14.3,41.6,40.2,42.8c34,1.6,68.2,0.7,102.2,0.2c10.3-0.1,19.8-3.7,27.5-11.1
		c9.1-8.7,12.4-19.9,12.7-31.9c0.6-27.7,0.6-55.5,0.6-83.2c0-6.4-0.5-12.7-1.3-19.1c-2.4-19.8-14-32.7-33.7-35.8
		c-11.2-1.8-22.6-2-34-2c-23.2-0.1-46.5,0-69.7,0.7C37.9,22.8,22.8,38,21.8,66.8C21.3,82.3,21.8,97.8,21.8,113.2z"/>
	<path d="M171,113.5c0,32-26,57.6-58.2,57.5c-31.8-0.1-57.4-26-57.3-58c0-32,26-57.6,58.2-57.5C145.5,55.6,171.1,81.5,171,113.5z
		 M113.1,150.7c20.6,0.1,37.5-16.7,37.6-37.2c0.1-20.6-16.6-37.6-37.1-37.7c-20.7-0.2-37.8,16.7-37.8,37.4
		C75.7,133.8,92.5,150.7,113.1,150.7z"/>
	<path d="M173.3,66.7c-7.5,0-13.6-6.1-13.5-13.6c0.1-7.5,6.2-13.5,13.7-13.4c7.4,0.1,13.3,6,13.3,13.4
		C186.8,60.7,180.8,66.7,173.3,66.7z"/>
</g>
</svg>
