<?xml version="1.0" encoding="utf-8"?>
<!-- Generator: Adobe Illustrator 19.0.0, SVG Export Plug-In . SVG Version: 6.00 Build 0)  -->
<svg version="1.1" id="Warstwa_1" xmlns="http://www.w3.org/2000/svg" xmlns:xlink="http://www.w3.org/1999/xlink" x="0px" y="0px"
	 viewBox="-155.6 336.7 103.1 143.6" style="enable-background:new -155.6 336.7 103.1 143.6;" xml:space="preserve">
<g>
	<path d="M-125.2,412.8c7.8,3.5,19.8,4.1,20.3,4.1c0.2,0,0.5,0,0.7,0h0.2h0.9c0.5,0,12.4-0.7,20.3-4.1c0.5-0.2,1.7-0.9,1.8-3.8
		c0-0.5-0.4-11.5-3.9-16.7c-0.1-0.2-1.1-1.6-3.8-2.6c-3.8-1.2-7.4-2.9-7.7-3.7l-0.3-1.3c1.3-1.8,2.3-3.9,2.7-5.9
		c0.3-0.3,0.7-0.9,0.8-1.8c0.3-1.2,0.6-2.8,0-3.6c0,0,0,0-0.1-0.1c0.5-2,1.3-6.4-1.3-9.3c-0.1-0.1-1.5-2-4.7-3l0,0
		c-0.1-0.1-0.1-0.1-0.2-0.2l-2.3-1.6l-0.1-0.1c0-0.1,0-0.1,0-0.2l-2.2-0.8l-0.4,0.2c-0.3,0.2-0.8,0.6-1.3,1.2
		c-0.7-0.2-1.7,0.1-1.7,0.1c-0.2,0.1-5,2.2-6.4,6.6c-0.1,0.2-0.8,2,0,6.8c-0.1,0.1-0.2,0.2-0.3,0.3c-0.6,0.8-0.4,2.4,0,3.6
		c0.2,0.9,0.5,1.5,0.8,1.8c0.3,2.1,1.2,4.1,2.4,5.8l-0.4,1.4c-0.2,0.8-3.8,2.5-7.7,3.7c-2.6,0.9-3.6,2.4-3.7,2.6
		c-3.5,5.2-3.9,16.2-3.9,16.7C-126.9,411.9-125.6,412.6-125.2,412.8z M-104.1,389.1c1.9,0,3.8-0.9,5.3-2.2c-1,2-2.9,5-5.1,5h-0.1
		l0,0c-2.3,0-4.3-3.1-5.2-5.1C-107.7,388.2-105.9,389.1-104.1,389.1z M-104,415.9L-104,415.9L-104,415.9L-104,415.9z"/>
	<path d="M-71.6,342.4v-5.7h-11.2v5.7h-42.4v-5.7h-11.2v5.7h-19.2v137.9h103.1V342.4H-71.6z M-125.2,357v-7.4h42.4v7.4h11.2v-7.4
		h11.9V473h-88.6V349.7h11.9v7.4L-125.2,357L-125.2,357z"/>
	<rect x="-138.1" y="455.3" width="55.5" height="7.3"/>
	<rect x="-138.1" y="424.1" width="71.3" height="7.3"/>
	<rect x="-138.1" y="434.8" width="66" height="7.3"/>
	<rect x="-138.1" y="445.1" width="60.8" height="7.3"/>
</g>
</svg>
