<?xml version="1.0" encoding="utf-8"?>
<!-- Generator: Adobe Illustrator 19.0.0, SVG Export Plug-In . SVG Version: 6.00 Build 0)  -->
<svg version="1.1" id="Слой_1" xmlns="http://www.w3.org/2000/svg" xmlns:xlink="http://www.w3.org/1999/xlink" x="0px" y="0px"
	 viewBox="465 -465 550.5 550" style="enable-background:new 465 -465 550.5 550;" xml:space="preserve">
<g id="Слой_3">
</g>
<g id="Слой_2">
	<path d="M465,85v-550h550.5V85H465z M973.8,40.3v-460.6H506.5V40.3H973.8L973.8,40.3z"/>
	<polygon points="685.1,-91.4 685.1,-141.2 792,-141.2 792,-2.3 685.8,-2.3 685.8,-46.3 755,-46.3 755,-91.4 	"/>
	<path d="M564.6-2.3V-92h-20.7v-49.1h20.7v-45.6l117.2-79.4v-111.6H795v112l119.6,79.3v45.1h21.9v51.9h-21.8v87H807.8v-138.7h64.3
		v-19l-118.5-77.7v-76.5H723v76.5l-116.5,77.6v19.1h64V-2.3L564.6-2.3L564.6-2.3z M633.8-46.1v-45.3h-27.5v45.3H633.8z M843.9-46.1
		h28.2v-45.3h-28.2V-46.1L843.9-46.1z"/>
</g>
</svg>
