<?xml version="1.0" encoding="utf-8"?>
<!-- Generator: Adobe Illustrator 19.0.0, SVG Export Plug-In . SVG Version: 6.00 Build 0)  -->
<svg version="1.1" id="Слой_2" xmlns="http://www.w3.org/2000/svg" xmlns:xlink="http://www.w3.org/1999/xlink" x="0px" y="0px"
	 viewBox="215 -215 550.5 550" style="enable-background:new 215 -215 550.5 550;" xml:space="preserve">
<path d="M215,335v-550h550.5v550H215z M723.8,290.3v-460.6H256.5v460.6L723.8,290.3L723.8,290.3z"/>
<polygon points="435.1,158.6 435.1,108.8 542,108.8 542,247.7 435.8,247.7 435.8,203.7 505,203.7 505,158.4 "/>
<rect x="462.6" y="171.3" width="28.5" height="18.8"/>
<path d="M314.6,247.7V158h-20.7v-49.1h20.7V63.3l117.2-79.4v-111.6H545v112l119.6,79.3v45.1h21.9v51.9h-21.8v87H557.8V108.9h64.3
	v-19L503.6,12.2v-76.5H473v76.5L356.5,89.8v19.1h64v138.8H314.6z M383.8,203.9v-45.3h-27.5v45.3H383.8z M593.9,203.9h28.2v-45.3
	h-28.2V203.9z"/>
</svg>
