<?xml version="1.0" encoding="utf-8"?>
<!-- Generator: Adobe Illustrator 19.0.0, SVG Export Plug-In . SVG Version: 6.00 Build 0)  -->
<svg version="1.1" id="Слой_1" xmlns="http://www.w3.org/2000/svg" xmlns:xlink="http://www.w3.org/1999/xlink" x="0px" y="0px"
	 viewBox="180.4 -94.9 299.9 215.6" style="enable-background:new 180.4 -94.9 299.9 215.6;" xml:space="preserve">
<g>
	<path d="M180.4,74.9c0-41.4,0-82.8,0-124.2c0.2-0.4,0.5-0.9,0.5-1.3c2.9-23.9,23.7-44.7,52-44.3c8.2,0.1,16.4,0,24.6,0
		c56.9,0,113.8,0,170.8,0c29.8,0,52,22.3,52,52.1c0,37.2,0.1,74.4,0,111.6c0,29.2-22,51.6-51.1,51.7c-65.9,0.2-131.8,0.2-197.7,0
		c-24.2-0.1-43.8-15.8-49.7-39.1C181.3,79.2,180.9,77.1,180.4,74.9z M449.1,90.2c-28.5-26.1-56.8-52.1-85.1-78
		c-5.8,3.6-11.2,7.1-16.7,10.4c-7.3,4.4-15.1,6.6-23.5,3.7c-4-1.4-8-3.1-11.8-5.1c-5.1-2.7-10.1-5.9-15.2-9
		c-28.4,26-56.7,52-85.1,78c6,5.8,13,8,20.8,8c65.2,0,130.5,0,195.7,0C435.9,98.2,443,96,449.1,90.2z M215.7-67.8
		c0.8,0.5,1.3,1,1.9,1.3c34.9,22.8,69.7,45.6,104.5,68.4c5.8,3.8,11.2,3.5,16.9-0.2c34.5-22.7,69-45.2,103.5-67.8
		c0.8-0.5,1.6-1.1,2.5-1.7c-0.6-0.4-1-0.7-1.4-0.9c-5-3-10.6-3.9-16.3-3.9c-40.2,0-80.4-0.2-120.6-0.1c-24.9,0-49.8,0.2-74.7,0.6
		C226.5-72.1,220.6-72.2,215.7-67.8z M203-49.3c0,39.3,0,78,0,117.2c25-22.9,49.6-45.5,74.6-68.3C252.9-16.7,228.3-32.8,203-49.3z
		 M457.8,67.9c1.2-11.4,0.5-113.8-0.8-116.7c-24.6,16.1-49.1,32.1-73.9,48.3C408.1,22.4,432.7,45,457.8,67.9z"/>
</g>
</svg>
