<?xml version="1.0" encoding="utf-8"?>
<!-- Generator: Adobe Illustrator 19.0.0, SVG Export Plug-In . SVG Version: 6.00 Build 0)  -->
<svg version="1.1" id="Capa_1" xmlns="http://www.w3.org/2000/svg" xmlns:xlink="http://www.w3.org/1999/xlink" x="0px" y="0px"
	 viewBox="384.1 -374 600.9 495" style="enable-background:new 384.1 -374 600.9 495;" xml:space="preserve">
<g>
	<path d="M422.2,65.5c0,13,12.6,23.5,28.1,23.5s28.1-10.5,28.1-23.5c0-8.4-5.4-16.2-14-20.3c-4.3-2.1-9.1-3.2-14.1-3.2
		C434.8,42,422.2,52.5,422.2,65.5z M460.5,65.5c0,4.7-4.6,8.5-10.2,8.5c-5.6,0-10.2-3.8-10.2-8.5s4.6-8.5,10.2-8.5
		c1.8,0,3.5,0.4,5.1,1.1C458.5,59.7,460.5,62.5,460.5,65.5z"/>
	<path d="M526.8,89c15.5,0,28.1-10.5,28.1-23.5c0-8.4-5.4-16.2-14-20.3c-4.3-2.1-9.1-3.2-14.1-3.2c-15.5,0-28.1,10.5-28.1,23.5
		S511.3,89,526.8,89z M526.8,57c1.8,0,3.5,0.4,5.1,1.1c3.1,1.5,5.1,4.3,5.1,7.4c0,4.7-4.6,8.5-10.2,8.5c-5.6,0-10.2-3.8-10.2-8.5
		S521.2,57,526.8,57z"/>
	<path d="M603.3,89c15.5,0,28.1-10.5,28.1-23.5c0-8.4-5.4-16.2-14-20.3c-4.3-2.1-9.1-3.2-14.1-3.2c-15.5,0-28.1,10.5-28.1,23.5
		S587.8,89,603.3,89z M603.3,57c1.8,0,3.5,0.4,5.1,1.1c3.1,1.5,5.1,4.3,5.1,7.4c0,4.7-4.6,8.5-10.2,8.5c-5.6,0-10.2-3.8-10.2-8.5
		S597.7,57,603.3,57z"/>
	<path d="M679.7,89c15.5,0,28.1-10.5,28.1-23.5c0-8.4-5.4-16.2-14-20.3c-4.3-2.1-9.1-3.2-14.1-3.2c-15.5,0-28.1,10.5-28.1,23.5
		S664.2,89,679.7,89z M679.7,57c1.8,0,3.5,0.4,5.1,1.1c3.1,1.5,5.1,4.3,5.1,7.4c0,4.7-4.6,8.5-10.2,8.5c-5.6,0-10.2-3.8-10.2-8.5
		S674.1,57,679.7,57z"/>
	<path d="M459.9-63h9.6c4.9,0,9-3.4,9-7.5s-4-7.5-9-7.5h-9.6c-4.9,0-9,3.4-9,7.5S454.9-63,459.9-63z"/>
	<path d="M459.9-39h9.6c4.9,0,9-3.4,9-7.5s-4-7.5-9-7.5h-9.6c-4.9,0-9,3.4-9,7.5S454.9-39,459.9-39z"/>
	<path d="M981.2-114.3l-152.4-241c-5.9-11-19.1-18.7-34.4-18.7c-12.8,0-24.2,5.4-31,13.6l0,0L617.6-197.7c-2-0.2-4.1-0.3-6.1-0.3
		h-65.6c-26,0-47.2,17.7-47.2,39.5v48.5h-57.9c-15.5,0-28.1,10.5-28.1,23.5v56c0,13,12.6,23.5,28.1,23.5h66.9h10.2v17h-67.5
		c-36.6,0-66.3,24.9-66.3,55.5s29.7,55.5,66.3,55.5h229.4c36.6,0,66.3-24.9,66.3-55.5S716.3,10,679.7,10h-67.5V-7h77.1
		c4.9,0,9-3.4,9-7.5V-39h10.2c0.1,0,0.2,0,0.4,0s0.4,0,0.6,0c0.1,0,0.2,0,0.3,0c0.2,0,0.4,0,0.6-0.1c0.2,0,0.3-0.1,0.5-0.1
		c0.1,0,0.3,0,0.4-0.1c0.1,0,0.2-0.1,0.3-0.1c0.2-0.1,0.4-0.1,0.5-0.2c0,0,0,0,0.1,0c0.5-0.2,1-0.4,1.5-0.7c0.1-0.1,0.2-0.1,0.3-0.2
		c0.1-0.1,0.2-0.1,0.4-0.2c0.1-0.1,0.2-0.2,0.4-0.3c0.1-0.1,0.2-0.1,0.3-0.2c0.1-0.1,0.2-0.1,0.2-0.2c0.1-0.1,0.2-0.2,0.3-0.3
		l0.1-0.1c0.1-0.1,0.3-0.3,0.4-0.5c0.1-0.1,0.1-0.1,0.2-0.2c0.1-0.1,0.2-0.3,0.3-0.4c0.5-0.8,0.8-1.6,1-2.5c0.1-0.3,0.1-0.7,0.1-1
		V-75c0-14.2-5-27.9-14.3-39.7l-14.2-17.8l98.4-138.3L932.7-90.7c3.4,4.9,8.8,8.6,15.3,10.5v12.4l-2.6-5.4c-0.9-1.8-2.6-3.3-4.8-4.1
		c-2.2-0.8-4.7-0.8-6.9-0.1L811.2-36.2l-21.1-14.6c-3.8-2.6-9.5-2.2-12.6,1s-2.6,7.9,1.2,10.6l66.1,45.6c12.1,8.3,27,12.7,42.2,12.7
		c8.3,0,16.7-1.3,24.7-4l30.5-10.3c13.1-4.4,21.7-14.4,23.3-25.4c0.2-0.6,0.3-1.2,0.3-1.9v-57.7c11.2-3.2,19.2-12,19.2-22.3
		C985-106.8,983.6-110.8,981.2-114.3z M498.7-22h-57.9c-5.6,0-10.2-3.8-10.2-8.5v-56c0-4.7,4.6-8.5,10.2-8.5h57.9V-22z M935.6-9.1
		L905.1,1.2c-16.4,5.5-35.1,3.1-48.8-6.3L827-25.4l105.1-35.3l14.5,30.2C950.6-22.1,945.7-12.5,935.6-9.1z M794.4-359
		c7.4,0,13.8,3.4,17.2,8.4c0.1,0.3,0.3,0.6,0.5,0.9l0.6,0.9c1,1.9,1.5,4,1.5,6.3c0,3.1-1.1,6-2.9,8.5c-0.1,0.1-0.1,0.1-0.2,0.2
		l-0.4,0.5c-3.6,4.4-9.5,7.2-16.3,7.2c-10.9,0-19.7-7.4-19.7-16.5C774.7-351.7,783.6-359,794.4-359z M679.7,25
		c26.7,0,48.4,18.2,48.4,40.5S706.4,106,679.7,106H450.3c-26.7,0-48.4-18.2-48.4-40.5S423.6,25,450.3,25H679.7z M535.7,10V-7h58.5
		v17H535.7z M680.3-22H516.6v-80.5l0,0l0,0v-56c0-10.9,8.5-20.1,20.3-23.3v107.7c0,8.9,6.3,17,16,20.7C578.7-43.8,606-39,634.2-39
		h46.1V-22L680.3-22z M699.4-75.1V-54h-65.2c-10.7,0-21.2-0.8-31.6-2.3v-102.2c0-4.1-4-7.5-9-7.5c-4.9,0-9,3.4-9,7.5v98.8
		c-8.3-2-16.5-4.4-24.5-7.4c-3.3-1.2-5.4-3.9-5.4-6.9v-109h56.6c9.8,0,18.9,4.1,24.4,10.9l52.3,65.6
		C695.5-97.2,699.4-86.3,699.4-75.1z M677.8-146.4l-27.1-34c-4-5-9.3-9.1-15.3-12.1l124-138.4c5.5,11.6,19.1,19.9,35,19.9
		c0.2,0,0.3,0,0.5,0L677.8-146.4z M933.9-115.9L797.4-285.2l28.7-40.3c0.2-0.3,0.5-0.6,0.7-1l126.8,200.7
		C945.5-125,938.4-121.3,933.9-115.9z M956.9-94c-5.6,0-10.2-3.8-10.2-8.5s4.6-8.5,10.2-8.5c5.6,0,10.2,3.8,10.2,8.5
		S962.5-94,956.9-94z"/>
</g>
</svg>
