<?xml version="1.0" encoding="utf-8"?>
<!-- Generator: Adobe Illustrator 19.0.0, SVG Export Plug-In . SVG Version: 6.00 Build 0)  -->
<svg version="1.1" id="Слой_1" xmlns="http://www.w3.org/2000/svg" xmlns:xlink="http://www.w3.org/1999/xlink" x="0px" y="0px"
	 viewBox="-16 30.8 86.7 60.2" style="enable-background:new -16 30.8 86.7 60.2;" xml:space="preserve">
<g id="XMLID_32_">
	<path id="XMLID_40_" d="M61.3,62.7c0.1,0.7,0.3,1.4,0.3,2c0,4.2,0,8.4,0,12.6c0,0.6,0,1.2,0,1.9c0.8,0.1,1.3,0.2,2,0.4
		c0,1.5,0,3,0,4.8c2.4,0,4.6,0,7,0c0,2.3,0,4.4,0,6.6c-0.6,0-1.1,0-1.6,0c-10.9,0-21.7,0-32.6,0c-1.5,0-1.9-0.4-1.9-1.9
		c0-4.7-0.1-4.7,4.6-4.7c1.6,0,3.3-0.1,4.9,0c1.9,0.2,2.4-0.6,2.2-2.3c-0.1-0.8,0-1.7,0-2.6c1.3-0.1,2.4-0.2,3.6-0.3
		c0-1.2,0-2.3,0-3.4c0-7.5,0-14.9,0-22.4c0-0.6,0.3-1.3,0.4-1.9c0.8,0.8,1.5,1.6,2.3,2.4c1.1,1.1,2.2,2.1,3.4,3.2
		c0.3,0.3,0.5,0.7,0.8,1c0.6,0.7,1.2,1.3,1.9,2C59.5,61,60.4,61.8,61.3,62.7z M58.5,70.5c-1.1-1.1-2-1.9-2.9-2.8
		c-3.4,2.6-3.4,2.8,0,5.4C56.5,72.3,57.4,71.5,58.5,70.5z M58.2,62c-0.9-0.8-1.8-1.6-2.8-2.4c-1,0.8-1.8,1.6-3,2.6
		c1,1.1,1.9,1.9,2.9,3C56.5,64.1,57.3,63.2,58.2,62z M55.5,75.8c-0.8,0.8-1.6,1.4-2.2,2.2c-0.2,0.3,0,1.3,0,1.3
		c1.8,0.1,3.6,0.1,5.4,0.1c0-0.2,0.1-0.3,0.1-0.5C57.7,77.9,56.7,76.9,55.5,75.8z M58.6,68c0-1.3,0-2.2,0-3.1
		c-0.6,0.5-1.2,0.9-1.8,1.4C57.4,66.9,57.8,67.3,58.6,68z M58.6,76.3c0-1.3,0-2.2,0-3.4c-0.7,0.7-1.2,1.1-1.7,1.6
		C57.4,75,57.8,75.5,58.6,76.3z"/>
	<path id="XMLID_34_" d="M56.7,58.1c-0.3-0.3-0.5-0.7-0.8-1c0.8-0.9,1.6-1.7,2.5-2.8c-1-0.9-2-1.8-2.9-2.6c-1,0.7-2,1.5-3,2.2
		c-0.8-0.8-1.5-1.6-2.3-2.4c-0.1-1.5-0.4-3.1-0.4-4.6s-0.3-2.1-2-2.1c-5.7,0.1-11.4,0.1-17.1,0c-1.5,0-2.1,0.3-2,1.9
		c0.1,2.4,0,4.9,0,7.3c0,1.5-0.3,3.1,1.2,4.3c0.4,0.3,0.4,1.5,0.2,2.1c-0.4,1.3-1.2,2.4-1.7,3.6c-0.3,0.6-0.4,1.3-0.4,2
		c0,0.2,1.1,0.6,1.3,0.4c0.6-0.4,0.9-1.1,1.4-1.7c0.8,0.7,1,2.2,0.2,3.4c-0.7,1.1-2.6,1.5-3.9,0.7c-1.4-0.7-1.8-1.9-1.4-3.4
		c0.1-0.4,0.3-0.9,0.6-1.2c1.1-1.2,1.4-2.1,0-3.4c-0.9-0.8-0.7-2.1,0.2-3.1c0.3-0.4,0.8-0.8,0.8-1.2c0.1-3.8,0-7.7,0-11.7
		c-1.7,0-3.3,0-4.8,0c0-0.1-0.1-0.3-0.1-0.4c4.1-1.4,8.2-2.9,12.3-4.2c6-1.9,12-3.8,18-5.7c1.7-0.6,3.9-0.7,2.9-3.6c1,0,1.7,0,2.7,0
		c-0.7,2.5,1.3,3.4,2.8,4.5c1.8,1.4,3.6,2.8,5.5,4.1c1.2,0.8,2.6,1.3,4.2,2.1c0,0.6,0,1.7,0,3.2c-2.4,0-4.7,0.1-7.1,0
		c-1.4-0.1-1.9,0.4-1.9,1.9c0.1,4.7,0,9.4,0,14.2c0,0.6-0.2,1.2-0.3,1.8c-0.9-0.9-1.9-1.7-2.8-2.6c0.1-1,0.1-1.9,0.2-3.1
		C57.8,57.5,57.2,57.8,56.7,58.1z M55.4,35.6c-5.6,1.8-10.8,3.4-16.1,5.1c0,0.1,0,0.2,0.1,0.3c5.3,0,10.7,0,16,0
		C55.4,39.2,55.4,37.5,55.4,35.6z M58.2,40.9c2.3,0,4.4,0,6.9,0c-2.3-1.7-4.2-3.2-6.1-4.6c-0.2-0.1-0.4-0.2-0.7-0.3
		C58.2,37.7,58.2,39.3,58.2,40.9z M58.8,45.4c-0.1-0.2-0.2-0.3-0.3-0.5c-0.6,0-1.2-0.1-1.9-0.1c-1.3,0.1-2.5,0.4-3.7,0.5
		c0.8,1.1,1.6,2.3,2.5,3.6C56.6,47.7,57.7,46.5,58.8,45.4z M57,49.8c0.6,0.8,1,1.4,1.6,2.3c0-1.4,0-2.4,0-3.8
		C57.8,49,57.3,49.5,57,49.8z"/>
	<path id="XMLID_19_" d="M70.6,46.1c0,1.3,0,2.5,0,3.8c-2.2,0-4.4,0-6.7,0c0-1.2,0-2.4,0-3.8C66.1,46.1,68.3,46.1,70.6,46.1z"/>
</g>
<g id="XMLID_82_">
	<path id="XMLID_114_" d="M-13.1,84.7c0.9-6.4,1.8-12.6,2.6-18.8c0.7-5.1,1.4-10.2,2.3-15.2c0.1-0.8,1.3-1.9,2-1.9
		c7.1-0.1,14.3-0.1,21.9-0.1c1.7,12,3.5,23.9,5.3,36C9.6,84.7-1.5,84.7-13.1,84.7z M-6.1,68.1C-6.1,74-1.7,78.4,4,78.5
		c5.5,0.1,10.5-4.8,10.4-10.4C14.3,62.7,9.5,58,4,58C-1.6,58-6.1,62.5-6.1,68.1z"/>
	<path id="XMLID_111_" d="M24,91c-13.2,0-26.4,0-40,0c0.5-1,0.9-1.7,1.2-2.4c0,0-0.4-0.1-0.8-0.2c-0.1-0.3-0.2-0.6-0.3-0.9
		c1.2-0.5,2.4-1.4,3.5-1.4C-1.9,86,8.5,86,19,86C23.7,86,23.7,86,24,91z M18.9,88.7C18.9,88.7,18.9,88.6,18.9,88.7
		c-10-0.1-20-0.1-29.9-0.1v0.1C-1,88.7,8.9,88.7,18.9,88.7z"/>
	<path id="XMLID_76_" d="M17.3,47.7c-4.7,0-9.5,0-14.2,0c-3.7,0-7.4,0-11.1-0.1c-0.5,0-1-0.8-1.5-1.2c0.5-0.4,1-1.2,1.4-1.2
		c8-0.1,16-0.1,24,0c0.6,0,1.3,1,1.9,1.6C17.7,47.1,17.5,47.4,17.3,47.7z"/>
	<path id="XMLID_75_" d="M1.2,30.8c1.6,1.3,1,3.2-0.3,5c-0.5,0.8-1.2,1.5-1.9,2.1c-1.7,1.7-2.7,3.5,0.4,5.9
		c-4.3-1.8-4.7-3.4-2.2-6.1c1-1,2.3-1.9,2.9-3C0.9,33.5,0.9,32.1,1.2,30.8z"/>
	<path id="XMLID_74_" d="M4.3,43.6c-3.5-1.6-3.8-3.4-1.5-5.9c1.7-1.8,3.1-3.8,4.7-5.8c-0.1,0.6,0,1.7-0.4,2.5
		c-0.6,1.2-1.4,2.2-2.3,3.2C3.2,39.4,2,41.1,4.3,43.6z"/>
	<path id="XMLID_73_" d="M10.1,43.6c-3.5-1.8-3.7-3.2-1.4-5.7c1.7-1.8,3.3-3.7,4.8-5.3c0.7,2.3-1.5,3.6-2.8,5.4
		C9.3,39.7,7.5,41.3,10.1,43.6z"/>
	<path id="XMLID_71_" d="M8.5,76.3c-0.9-1.7-1.8-3.2-2.6-4.8c-0.9-2-0.1-3,1.9-3.2c1.7-0.1,3.4,0,5.2,0C13.2,72,11.5,74.3,8.5,76.3z
		"/>
	<path id="XMLID_70_" d="M-0.4,60.2c3.2-1.5,6.1-1.4,9.2,0.1c-1,1.8-1.8,3.7-3,5c-0.6,0.6-2.8,0.5-3.4-0.1C1.2,63.9,0.6,62-0.4,60.2
		z"/>
	<path id="XMLID_66_" d="M-0.5,75.9C-3.4,74.5-4.9,72-5,68.2c2,0,4-0.2,5.8,0.1c1.3,0.2,2.5,1.2,1.4,3C1.3,72.9,0.5,74.4-0.5,75.9z"
		/>
</g>
</svg>
