<?xml version="1.0" encoding="utf-8"?>
<!-- Generator: Adobe Illustrator 19.0.0, SVG Export Plug-In . SVG Version: 6.00 Build 0)  -->
<svg version="1.1" id="Слой_1" xmlns="http://www.w3.org/2000/svg" xmlns:xlink="http://www.w3.org/1999/xlink" x="0px" y="0px"
	 viewBox="181 -179 299.9 300" style="enable-background:new 181 -179 299.9 300;" xml:space="preserve">
<g>
	<path d="M319-179c8,0,16,0,24,0c1.8,0.4,3.5,0.8,5.3,1c81.2,9.3,140.3,82.8,131.8,164.1c-7.5,72.8-64.2,128.6-138.6,134.4
		c-73.4,5.7-136.4-42.7-154.7-108.7c-2.6-9.4-3.9-19.2-5.8-28.8c0-8,0-16,0-24c0.4-1.9,0.9-3.9,1.1-5.8
		c7.1-59.9,49.6-109.9,107.6-126.2C299.3-175.7,309.2-177,319-179z M331-161.1c-72.9,0-132,59.1-132.1,132s59,132.1,131.8,132.2
		C403.8,103.2,463.1,44,463-29.1C463-102,403.9-161.1,331-161.1z"/>
	<path d="M277.3-112c9.3,16,18.6,32.1,28,48.4C293-53,295.6-40,299.4-27.1c4,13.4,11.1,25.3,21.4,35c8.4,7.9,17.7,13.2,30.2,7.8
		c9.4,16.2,18.7,32.3,27.9,48.3c-9,8.6-23.9,11.2-34.9,6c-12.9-6.1-23.2-15.6-32.5-26.2c-26.7-30.2-45.9-64.4-55-104
		c-1.2-5.2-1.8-10.5-2.2-15.8C253.1-93.5,260.2-104.7,277.3-112z"/>
	<path d="M408.1,49.2c-1.1,1.5-2.1,3.8-3.8,5c-4.3,2.9-8.8,5.3-13.3,7.8c-3.8,2.1-7.2,1.2-9.4-2.5c-8.8-15.1-17.5-30.2-26.2-45.3
		c-2.2-3.8-1.3-7.1,2.4-9.4c4.4-2.7,8.9-5.3,13.4-7.7c3.7-2,6.9-1.1,9,2.5c8.9,15.2,17.7,30.5,26.5,45.8
		C407.2,46.2,407.5,47.4,408.1,49.2z"/>
	<path d="M334.8-77.5c-1.2,1.6-2.3,3.8-4,5c-4.1,2.8-8.5,5.2-12.9,7.5c-4,2.2-7.4,1.3-9.8-2.7c-8.7-14.9-17.3-29.9-25.9-44.9
		c-2.3-4-1.4-7.4,2.6-9.8c4.3-2.6,8.6-5.1,13-7.5c3.9-2.1,7.2-1.1,9.4,2.6c8.8,15.1,17.5,30.2,26.2,45.3
		C333.9-80.8,334.2-79.4,334.8-77.5z"/>
</g>
</svg>
