<?xml version="1.0" encoding="utf-8"?>
<!-- Generator: Adobe Illustrator 19.0.0, SVG Export Plug-In . SVG Version: 6.00 Build 0)  -->
<svg version="1.1" id="Слой_1" xmlns="http://www.w3.org/2000/svg" xmlns:xlink="http://www.w3.org/1999/xlink" x="0px" y="0px"
	 viewBox="421.2 -331.1 550.2 451" style="enable-background:new 421.2 -331.1 550.2 451;" xml:space="preserve">
<style type="text/css">
	.st0{fill:none;stroke:#000000;stroke-width:18;stroke-miterlimit:10;}
	.st1{stroke:#000000;stroke-width:6;stroke-miterlimit:10;}
</style>
<g>
	<g>
		<path class="st0" d="M487.4-110.8l90.9-185.1c2.4-4.8-0.2-10.7-5.4-12h-0.1l-48.2-12c-6.8-1.4-13.7,1.8-16.9,7.9l-76.2,155.2
			c-2.8,6.3-1.1,13.7,4.1,18.2l39,30.8c0,0,0.1,0,0.1,0.1C478.9-104.5,485.1-106,487.4-110.8z"/>
		<path class="st0" d="M514.5-89.1l137.2,47.8c6.5,2.1,13.5-0.8,16.6-6.8l71.9-146.3c2.9-6.2,0.9-13.5-4.7-17.3l-121.7-79.4l0,0
			c-2.6-1.7-6.2-0.7-7.6,2.1L511.5-96.4C510.1-93.6,511.5-90.1,514.5-89.1C514.4-89.1,514.5-89.1,514.5-89.1z"/>
		<path class="st1" d="M942.4-315.1c7.2,0,12.9,5.8,12.9,13c0,5.7-3.8,10.7-9.2,12.4l-56.8,16.8l-1.5-4.5l-43,11.9
			c-3.5,1.3-6.4,3.7-8.3,6.9l-57.3,116.3l35.6,17.5c2.7,1.3,3.9,4.7,2.5,7.4l0,0l-8.1,16.6c-1.4,2.7-4.7,3.9-7.4,2.5l-24.9-12.2
			L769.3-95l6.1,3c6.4,3.2,9,10.9,5.9,17.3l-14.2,28.8c-3.1,6.4-10.9,9.1-17.3,5.9l0,0L733-48.2l-11,22.4l67.6,33.2l0.2,0.1h63.4
			c7.9,0,17,5,21.2,11.7l45,71.1c2.5,3.9,1.3,9-2.6,11.5c-3.9,2.5-9,1.3-11.5-2.6l0,0l-45-71.1c-1.8-2.2-4.3-3.6-7.2-4H697.4
			l-24.9,50.8c-4,8.3-14,11.7-22.3,7.6l0,0l-25-12.3c-16.9,25.5-51.3,32.3-76.8,15.4c-20.9-13.9-29.8-40-21.8-63.8l-24-11.8
			c-3.7-1.7-5.4-6.1-3.7-9.8c1.7-3.7,6.1-5.4,9.8-3.7c0.1,0.1,0.2,0.1,0.4,0.2l24,11.8c17-25.4,51.4-32.2,76.8-15.2
			c20.7,13.9,29.6,39.9,21.7,63.6l25,12.3c0.2,0.1,0.5,0.2,0.8,0.2c0.7,0,1.3-0.4,1.7-1l60.5-123.2l-7-3.5l46.2-94.1l7,3.5
			L823-265.4c3.2-6.4,10.7-12.7,17.6-14.6l42.1-11.6l-2-5.9l57.8-17.1C939.9-315,941.2-315.1,942.4-315.1 M579.1,71
			c17.5,0,31.7-14.1,31.7-31.6S596.7,7.7,579.2,7.7s-31.7,14.1-31.7,31.6c0,12.1,6.8,23.1,17.7,28.4C569.6,69.9,574.3,71,579.1,71
			 M942.4-328.1c-2.5,0-5,0.4-7.4,1.1l-57.8,17.1c-4.3,1.3-7.6,4.6-8.8,8.9l-31.1,8.6c-10.4,2.9-21.1,11.7-25.9,21.4l-52,105.8h-0.6
			c-5,0-9.5,2.8-11.7,7.3l-46.1,94c-2.3,4.7-1.6,10.2,1.8,14.2L652.5,52.7l-5.7-2.8c4.6-29.5-10.6-58.6-37.4-71.8
			c-26.8-13.2-59.1-7.4-79.7,14.3L515-14.8c-2.8-1.4-5.9-2.1-9-2.1c-11.3,0-20.4,9.1-20.4,20.4c0,7.8,4.4,14.9,11.4,18.3l14.7,7.2
			c-4.6,29.5,10.6,58.6,37.4,71.8s59.1,7.4,79.7-14.3l15.7,7.7c14.7,7.2,32.5,1.2,39.7-13.5l0,0l21.4-43.5h145.2l43.6,69
			c5.9,10.2,18.9,13.7,29.1,7.8s13.7-18.9,7.8-29.1c-0.3-0.5-0.6-1-0.9-1.4l-45-71.1C878.8,2,865.6-5.3,853.2-5.3H793l-42-20.6
			c11.4,2,22.7-3.7,27.8-14.1l14.1-28.8c2.8-5.7,3.4-12.2,1.7-18.3l1.4,0.7c9.2,4.5,20.3,0.7,24.8-8.5l8.2-16.6
			c4.5-9.2,0.7-20.3-8.4-24.8l0,0L796.7-148l51.2-104.3c0.3-0.3,0.6-0.6,1-0.8l32.9-9.1c3.3,2.3,7.4,3,11.2,1.9l56.8-16.8
			c13.7-4.1,21.6-18.5,17.5-32.2C964-320.5,953.9-328.1,942.4-328.1 M579.1,58c-10.3,0-18.6-8.4-18.6-18.7c0-2.8,0.7-5.6,1.9-8.1
			c4.5-9.2,15.7-13.1,24.9-8.5c9.2,4.5,13.1,15.7,8.5,24.9C592.8,54,586.3,58.1,579.1,58"/>
	</g>
</g>
</svg>
