<?xml version="1.0" encoding="utf-8"?>
<!-- Generator: Adobe Illustrator 19.0.0, SVG Export Plug-In . SVG Version: 6.00 Build 0)  -->
<svg version="1.1" id="Слой_1" xmlns="http://www.w3.org/2000/svg" xmlns:xlink="http://www.w3.org/1999/xlink" x="0px" y="0px"
	 viewBox="155.1 -15 511.9 479.6" style="enable-background:new 155.1 -15 511.9 479.6;" xml:space="preserve">
<g>
	<path d="M656.8,444.3H645V185.8l6.2,2.9c3.2,1.5,6.9,1.2,9.8-0.6c2.9-1.9,4.7-5.1,4.7-8.6v-41c0-4-2.3-7.6-5.9-9.3l-35.2-16.4V46.5
		c0-5.6-4.6-10.2-10.2-10.2h-60.8c-5.6,0-10.2,4.6-10.2,10.2V75L353-14c-3-1.4-6.5-1.3-9.3,0.3l-183.4,103c-3.2,1.8-5.2,5.2-5.2,8.9
		v41c0,5.6,4.6,10.2,10.2,10.2c1.8,0,3.5-0.5,5-1.3l5.5-3.1v299.2h-10.1c-5.6,0-10.2,4.6-10.2,10.2s4.6,10.2,10.2,10.2h491.1
		c5.6,0,10.2-4.6,10.2-10.2S662.4,444.3,656.8,444.3z M563.9,84.1V56.7h40.3v46.6l-40.3-18.8C563.9,84.3,563.9,84.2,563.9,84.1
		L563.9,84.1z M175.4,104.3L349.1,6.8L645.3,145v18.5L353,27c-3-1.4-6.5-1.3-9.3,0.3l-168.2,94.5L175.4,104.3L175.4,104.3z
		 M196.2,444.3V134c0-0.1,0-0.2,0-0.3l152.9-85.9l275.5,128.5v268L196.2,444.3L196.2,444.3z"/>
	<path d="M389.9,270.7h-163c-5.6,0-10.2,4.6-10.2,10.2v132.9c0,5.6,4.6,10.2,10.2,10.2h163c5.6,0,10.2-4.6,10.2-10.2V281
		C400.1,275.3,395.6,270.7,389.9,270.7z M237.1,291.2h61.1v112.4h-61.1V291.2L237.1,291.2z M379.7,403.6h-61.1V291.2h61.1V403.6z
		 M594.2,270.7H430.8c-5.6,0-10.2,4.6-10.2,10.2v132.9c0,5.6,4.6,10.2,10.2,10.2h163.4c5.6,0,10.2-4.6,10.2-10.2V281
		C604.4,275.3,599.9,270.7,594.2,270.7z M441,291.2h61.3v112.4H441V291.2L441,291.2z M584,403.6h-61.3V291.2H584V403.6z M598.5,189
		l-162.6-76c-1.5-0.7-3.1-1-4.7-1c-5.7-0.2-10.6,4.5-10.6,10.2v118.1c0,5.6,4.6,10.2,10.2,10.2h163.4c5.6,0,10.2-4.6,10.2-10.2
		v-42.2C604.4,194.2,602.1,190.6,598.5,189z M441,138l61.3,28.6v63.6H441V138z M584,230.2h-61.3v-54.1l61.3,28.6V230.2z M400.1,102
		c0-0.2,0-0.3,0-0.4c-0.1-0.8-0.3-1.6-0.6-2.4c-0.5-1.4-1.4-2.6-2.4-3.7c-0.2-0.2-0.5-0.5-0.8-0.7c-0.4-0.3-0.8-0.6-1.2-0.8
		c-0.2-0.1-0.4-0.2-0.6-0.3c-0.1,0-0.1-0.1-0.2-0.1L359,77.1c-3.4-1.6-7.4-1.2-10.4,1.1c-0.2,0.1-0.4,0.2-0.5,0.3l-126.2,70.8
		c-3.3,1.8-5.3,5.4-5.2,9.1c0,0,0,0,0,0.1v81.9c0,5.6,4.6,10.2,10.2,10.2h163c5.6,0,10.2-4.6,10.2-10.2V102.9c0-0.1,0-0.2,0-0.2
		C400.1,102.4,400.1,102.2,400.1,102z M237.1,164.1l61.1-34.3v100.3h-61.1V164.1L237.1,164.1z M318.6,230.2V118.4l36.5-20.5
		l24.6,11.5v120.8H318.6L318.6,230.2z"/>
</g>
</svg>
