<?xml version="1.0" encoding="utf-8"?>
<!-- Generator: Adobe Illustrator 19.0.0, SVG Export Plug-In . SVG Version: 6.00 Build 0)  -->
<svg version="1.1" id="Слой_1" xmlns="http://www.w3.org/2000/svg" xmlns:xlink="http://www.w3.org/1999/xlink" x="0px" y="0px"
	 viewBox="-41 47.8 35.8 26.2" style="enable-background:new -41 47.8 35.8 26.2;" xml:space="preserve">
<style type="text/css">
	.st0{fill:none;stroke:#000000;stroke-miterlimit:10;}
</style>
<g id="XMLID_6_">
	<path id="XMLID_2_" class="st0" d="M-13.8,48.8c0,1.4,0,2.7,0,4c0,0.6,0.2,0.9,0.9,0.9c1.2-0.1,2.3-0.1,3.5,0
		c0.6,0,0.8-0.2,0.8-0.8c0-1.4,0-2.8,0-4.3c1,0.4,2,0.8,2.3,2.1c0.2,0.9,0.4,1.9,0.6,2.8c0.2,1.2-0.2,2.4-1.3,3
		c-0.1,0.1-0.1,0.1-0.2,0.1C-9,57-9.2,58.3-9,59.8c0.2,3.8,0.4,7.6,0.5,11.5c0.1,1.6-0.6,2.1-2.1,2.2c-2.7,0.1-3-0.7-3-2.9
		c0.1-4,0.1-8,0.2-12c0-0.7-0.2-1.1-0.9-1.4c-2.6-1.2-2.9-1.9-2.4-4.7c0.1-0.4,0.2-0.9,0.3-1.3c0.1-1.4,1.3-1.8,2.3-2.4
		C-14,48.7-14,48.7-13.8,48.8z"/>
</g>
<g id="XMLID_10_">
	<path id="XMLID_25_" d="M-41,62.4c0-0.9,0-1.8,0-2.7c0.4-1.1,0.8-1.3,2-1.3c0.5,0,0.9,0,1.4,0c0.1,0,0.2-0.1,0.2-0.1
		c0.2-0.6,0.5-1.2,0.7-1.9c-0.4-0.4-0.8-0.9-1.3-1.3c-0.7-0.7-0.7-1.7,0-2.4c0.5-0.4,0.9-0.9,1.4-1.3c0.8-0.8,1.7-0.8,2.5,0
		c0.4,0.4,0.8,0.8,1.2,1.3c0.3-0.2,0.6-0.3,0.9-0.5c0.3-0.1,0.6-0.2,0.9-0.3c0.2-0.1,0.2-0.1,0.2-0.3c0-0.6,0-1.2,0-1.8
		c0-0.7,0.4-1.2,1.1-1.4c0.1,0,0.2-0.1,0.2-0.1c0.9,0,1.8,0,2.7,0l0,0c0.9,0.3,1.3,0.8,1.3,1.7c0,0.5,0,1.1,0,1.6
		c0,0.1,0,0.2,0.2,0.2c0.6,0.2,1.2,0.5,1.9,0.7c0.4-0.4,0.8-0.8,1.3-1.3c0.7-0.7,1.7-0.7,2.4,0c0.4,0.6,0.8,1,1.2,1.5
		c0.8,0.8,0.7,1.7,0,2.4c-0.4,0.4-0.9,0.9-1.3,1.3c0.2,0.3,0.3,0.6,0.4,0.9s0.2,0.6,0.3,0.9c0,0.1,0.2,0.1,0.2,0.1
		c0.6,0,1.2,0,1.9,0c0.7,0,1.2,0.4,1.4,1.1c0,0.1,0.1,0.2,0.1,0.2c0,0.9,0,1.8,0,2.7c0,0,0,0,0,0.1c-0.3,0.8-0.8,1.2-1.7,1.2
		c-0.6,0-1.1,0-1.7,0c-0.1,0-0.2,0.1-0.2,0.1c-0.3,0.6-0.5,1.2-0.7,1.9c0.4,0.4,0.9,0.8,1.3,1.3c0.7,0.7,0.7,1.7,0,2.4
		c-0.4,0.4-0.9,0.9-1.3,1.3c-0.7,0.7-1.7,0.7-2.4,0c-0.4-0.4-0.9-0.9-1.3-1.3c-0.7,0.3-1.3,0.5-1.9,0.7c-0.1,0-0.1,0.2-0.1,0.2
		c0,0.6,0,1.2,0,1.9c0,0.5-0.3,1-0.7,1.3c-0.2,0.1-0.4,0.2-0.6,0.3c-0.9,0-1.8,0-2.7,0c0,0,0,0-0.1,0c-0.8-0.3-1.2-0.8-1.2-1.7
		c0-0.6,0-1.1,0-1.7c0-0.1,0-0.2-0.2-0.3c-0.6-0.2-1.2-0.5-1.8-0.7c-0.4,0.4-0.9,0.9-1.3,1.3c-0.7,0.7-1.7,0.7-2.4,0
		c-0.4-0.4-0.9-0.9-1.3-1.3c-0.8-0.8-0.8-1.7,0-2.5c0.4-0.4,0.9-0.9,1.3-1.3c-0.3-0.6-0.5-1.2-0.7-1.9c-0.1-0.1-0.1-0.2-0.3-0.2
		c-0.6,0-1.2,0-1.8,0c-0.5,0-0.9-0.2-1.2-0.6C-40.8,62.8-40.9,62.6-41,62.4z M-26.6,71c0-0.4,0-0.7,0-1.1s0.1-0.6,0.5-0.7
		c0.8-0.2,1.5-0.5,2.2-0.9c0.3-0.2,0.5-0.2,0.8,0.1c0.5,0.5,1,1,1.5,1.5c0.3,0.3,0.6,0.3,0.9,0c0.4-0.4,0.9-0.9,1.3-1.3
		c0.3-0.3,0.3-0.6,0-0.9c-0.5-0.5-1-1-1.5-1.5c-0.3-0.3-0.3-0.5-0.1-0.8c0.4-0.7,0.7-1.4,0.9-2.2c0.1-0.4,0.3-0.5,0.7-0.5
		c0.7,0,1.4,0,2.1,0c0.4,0,0.6-0.2,0.6-0.6c0-0.6,0-1.3,0-1.9c0-0.4-0.2-0.6-0.6-0.6c-0.7,0-1.4,0-2.2,0c-0.4,0-0.6-0.1-0.7-0.5
		c-0.2-0.8-0.5-1.5-0.9-2.2c-0.2-0.4-0.2-0.5,0.1-0.8c0.5-0.5,1-1,1.5-1.5c0.5-0.6,0.5-0.8,0.2-1.2c-0.4-0.4-0.9-0.9-1.3-1.3
		c-0.4-0.3-0.6-0.3-1,0c-0.5,0.5-1,1-1.5,1.5c-0.3,0.3-0.5,0.3-0.8,0.1c-0.7-0.4-1.4-0.7-2.2-0.9c-0.4-0.1-0.5-0.3-0.5-0.7
		c0-0.7,0-1.4,0-2.2c0-0.4-0.2-0.6-0.6-0.6c-0.6,0-1.3,0-1.9,0c-0.5,0-0.7,0.2-0.7,0.7c0,0.7,0,1.4,0,2.2c0,0.4-0.1,0.6-0.5,0.6
		c-0.8,0.2-1.6,0.5-2.3,0.9c-0.3,0.2-0.5,0.2-0.8-0.1c-0.5-0.5-1-1-1.5-1.5c-0.3-0.3-0.6-0.3-1,0c-0.4,0.4-0.8,0.9-1.3,1.3
		c-0.3,0.4-0.3,0.6,0,1c0.5,0.5,1,1,1.5,1.5c0.3,0.3,0.3,0.5,0.1,0.8c-0.4,0.7-0.7,1.4-0.9,2.2c-0.1,0.4-0.3,0.5-0.6,0.5
		c-0.7,0-1.5,0-2.2,0c-0.4,0-0.6,0.2-0.6,0.6c0,0.6,0,1.3,0,1.9c0,0.4,0.2,0.6,0.6,0.6c0.7,0,1.5,0,2.2,0c0.4,0,0.5,0.1,0.6,0.5
		c0.2,0.8,0.5,1.5,0.9,2.2c0.2,0.3,0.2,0.5-0.1,0.8c-0.5,0.5-1,1-1.5,1.6c-0.3,0.3-0.3,0.6,0,0.9c0.5,0.5,0.9,0.9,1.4,1.4
		c0.3,0.3,0.6,0.3,0.9,0c0.5-0.5,1-1,1.5-1.5c0.3-0.3,0.5-0.3,0.8-0.1c0.7,0.4,1.5,0.7,2.3,0.9c0.4,0.1,0.5,0.3,0.5,0.6
		c0,0.7,0,1.5,0,2.2c0,0.4,0.2,0.6,0.6,0.6c0.7,0,1.4,0,2,0c0.4,0,0.6-0.2,0.6-0.6C-26.6,71.8-26.6,71.4-26.6,71z"/>
	<path id="XMLID_11_" d="M-22.9,60.9c0.1,2.9-2.2,5.4-5.2,5.5c-2.9,0.1-5.3-2.2-5.4-5.2c-0.2-2.9,2.1-5.4,5.1-5.5
		C-25.5,55.6-23.1,57.9-22.9,60.9z M-28.3,65.3c2.4,0,4.3-1.9,4.3-4.2c0-2.3-1.9-4.2-4.2-4.2c-2.4,0-4.3,1.9-4.3,4.2
		C-32.5,63.4-30.6,65.3-28.3,65.3z"/>
</g>
</svg>
