<?xml version="1.0" encoding="utf-8"?>
<!-- Generator: Adobe Illustrator 19.0.0, SVG Export Plug-In . SVG Version: 6.00 Build 0)  -->
<svg version="1.1" id="Слой_1" xmlns="http://www.w3.org/2000/svg" xmlns:xlink="http://www.w3.org/1999/xlink" x="0px" y="0px"
	 viewBox="392 -363.5 512 455.2" style="enable-background:new 392 -363.5 512 455.2;" xml:space="preserve">
<g>
	<path d="M900.4-158.5l-58.7-130.9c-6.6-14.7-20.7-23.9-36.8-23.9c-17.1,0-32,10.4-37.9,26.4l-48.4,131c-4.6,12.4-2.8,26.2,4.7,37.1
		c7.6,10.8,19.9,17.3,33.1,17.3h42.3v40.9h-27.8c-6.2,0-11.2,5-11.2,11.2l0,0v91.3c0,27.5,22.3,49.8,49.8,49.8h0.8
		c27.5,0,49.8-22.3,49.8-49.8v-91.3c0-6.2-5-11.2-11.2-11.2h-27.8v-40.9h42.3c13.7,0,26.5-6.9,33.9-18.4
		C905-131.5,906.1-146,900.4-158.5L900.4-158.5z M837.8,41.8c0,15.1-12.3,27.4-27.4,27.4h-0.8c-15.1,0-27.4-12.3-27.4-27.4v-80h55.5
		v80H837.8z M878.7-132.2c-3.4,5.2-8.9,8.2-15.1,8.2H756.5c-6,0-11.3-2.8-14.7-7.7c-3.4-4.9-4.2-10.9-2.1-16.5L788-279
		c3.2-8.7,10.8-11.7,16.9-11.7c7.3,0,13.4,4,16.4,10.6L880-149.3C882.5-143.6,882-137.4,878.7-132.2L878.7-132.2z"/>
	<path d="M735.7-38.2c6.2,0,11.2-5,11.2-11.2s-5-11.2-11.2-11.2h-170c-6.2,0-11.2,5-11.2,11.2l0,0V69.7c0,6.2,5,11.2,11.2,11.2h170
		c6.2,0,11.2-5,11.2-11.2s-5-11.2-11.2-11.2H576.9v-96.7L735.7-38.2L735.7-38.2z M735.7-93h-58.5v-96.7h42.7c6.2,0,11.2-5,11.2-11.2
		c0-6.2-5-11.2-11.2-11.2H666c-6.2,0-11.2,5-11.2,11.2l0,0v119.1c0,6.2,5,11.2,11.2,11.2h69.8c6.2,0,11.2-5,11.2-11.2
		C746.9-88,741.9-93,735.7-93z M565.7-222h156.2c6.2,0,11.2-5,11.2-11.2s-5-11.2-11.2-11.2h-145v-96.7h286v69
		c0,6.2,5,11.2,11.2,11.2s11.2-5,11.2-11.2v-80.2c0-6.2-5-11.2-11.2-11.2H565.7c-6.2,0-11.2,5-11.2,11.2l0,0v119.1
		C554.5-227.1,559.5-222,565.7-222L565.7-222z M644-81.8v-119.1c0-6.2-5-11.2-11.2-11.2H403.2c-6.2,0-11.2,5-11.2,11.2l0,0v119.1
		c0,6.2,5,11.2,11.2,11.2h229.5C639-70.6,644-75.6,644-81.8z M621.5-93H414.4v-96.7h207.1V-93z"/>
</g>
</svg>
