<?xml version="1.0" encoding="utf-8"?>
<!-- Generator: Adobe Illustrator 19.0.0, SVG Export Plug-In . SVG Version: 6.00 Build 0)  -->
<svg version="1.1" id="Слой_1" xmlns="http://www.w3.org/2000/svg" xmlns:xlink="http://www.w3.org/1999/xlink" x="0px" y="0px"
	 viewBox="0 0 626 626" style="enable-background:new 0 0 626 626;" xml:space="preserve">
<g>
	<path d="M627,295c0,12.7,0,25.3,0,38c-0.3,1.4-0.7,2.9-0.9,4.3c-2.4,15.6-4.2,31.4-7.3,46.8c-5,25.1-14.1,48.9-25.8,71.7
		c-23.3,45.4-55.6,83-97.2,112.7c-42.1,30.1-88.8,48.7-140.2,55.4c-7.6,1-15.1,2-22.7,3c-12.7,0-25.3,0-38,0c-7.6-1-15.1-2-22.7-3
		c-35.4-4.4-68.9-15-100.6-31.2c-45.2-23.2-82.7-55.5-112.3-96.9C29.3,453.7,10.8,407.1,4,355.7c-1-7.6-2-15.1-3-22.7
		c0-12.7,0-25.3,0-38c0.3-1.4,0.7-2.9,0.9-4.3c2.4-15.5,3.9-31.1,7.2-46.3c11.3-52.2,35.5-98,70.8-138c19.8-22.4,42.5-41.6,68-57.5
		c38.3-23.9,79.7-39,124.4-44.9c7.6-1,15.1-2,22.7-3c12.7,0,25.3,0,38,0c1.4,0.3,2.9,0.7,4.3,0.9c15.6,2.4,31.4,4.1,46.8,7.3
		c33.1,6.9,63.8,19.9,92.6,37.5c36.5,22.3,67.3,50.9,92.1,85.9c29.8,41.9,48.3,88.3,55.1,139.3C625,279.5,626,287.3,627,295z
		 M89.2,456.4c1.8,1.4,2.4,2.1,3.3,2.5c15.8,7.7,31.2,16.7,47.6,22.9c36,13.6,73.5,18.2,111.9,15.3c41.2-3.1,79.9-14.5,115.3-35.9
		c32.9-19.8,59.5-46.2,80.7-78.2c12.2-18.4,22.2-37.9,29.7-58.6c11.6-32.1,17.3-65.3,16.5-99.5c0-1.7,1-3.8,2.3-5
		c6-5.5,12.7-10.3,18.4-16.1c8.6-8.9,16.5-18.4,24.6-27.7c-0.4-0.5-0.8-1-1.2-1.5c-15.8,6.2-32,11.2-48.1,13.1
		c7.2-7.1,15-14.1,21.9-21.8c7-7.9,11.9-17.1,15.1-28.5c-2.6,1.3-4.1,2-5.6,2.8c-14.2,7.9-29.3,13.3-45,17.5
		c-5.6,1.5-9.3,0.4-13.6-3.4c-26.7-23.4-57.5-30.2-91.2-19.3c-41.1,13.4-66.1,52-63.1,95.3c0.3,4.4,0.9,8.8,1.4,13.8
		c-77.4-5.5-140.5-37.9-191.3-97.4c-22.4,49.2-12.9,89.8,27.4,123.8c-14.4-0.2-27.2-5-39.9-10.8c-1.7,31,18.7,77.6,72.5,92
		c-13.6,3.4-26.4,3.5-40.4,1.4c15.5,39.8,43.8,60.8,86.2,64.9C184,448.6,139.5,460.6,89.2,456.4z"/>
</g>
</svg>
