<?xml version="1.0" encoding="utf-8"?>
<!-- Generator: Adobe Illustrator 19.0.0, SVG Export Plug-In . SVG Version: 6.00 Build 0)  -->
<svg version="1.1" id="Слой_1" xmlns="http://www.w3.org/2000/svg" xmlns:xlink="http://www.w3.org/1999/xlink" x="0px" y="0px"
	 viewBox="90 -90 300 300" style="enable-background:new 90 -90 300 300;" xml:space="preserve">
<g>
	<path d="M90.3-9.8c0-0.9,0-1.8,0-2.8c1.3-2.9,3.7-4.1,6.7-4.5c1.3-0.2,2.5-0.3,3.8-0.3c13.5-0.1,27-0.2,40.6-0.3
		c5.8,0,10.4,3,12.6,8.4c6.9,16.7,15.4,32.6,24.2,48.3c3.3,5.9,7.2,11.5,12.5,15.9c1.6,1.3,3.4,2.5,5.3,3.3c3.3,1.4,6.5,0.1,8-3.1
		c1.1-2.4,2.1-5,2.6-7.6c0.8-4.2,1.2-8.5,1.6-12.7c1.1-11.4,0.7-22.8-1.7-34.1c-1.2-5.6-3.8-10-9.4-12c-1.4-0.5-2.9-1-4.4-1.3
		c-3.5-0.8-3.7-1.4-1.3-4.2c0.1-0.2,0.3-0.3,0.4-0.4c3.9-4.4,9.1-5.9,14.7-6.7c9.7-1.4,19.5-1.3,29.3-1.3c6.5,0.1,13,0.6,19.5,1.9
		c5.3,1.1,9,3.9,10.1,9.5c0.4,2.3,0.9,4.6,0.9,7c-0.1,9.1-0.5,18.3-0.6,27.4c-0.1,8.6-0.1,17.2,0.1,25.8c0.1,3.7,1.1,7.2,3.8,9.9
		c2.3,2.2,5,2.5,7.6,0.7c4.1-2.9,7.6-6.5,10.6-10.5c9.4-12.7,17.5-26.2,24.1-40.5c2.6-5.6,5-11.4,7.4-17.1c1.5-3.7,4.1-5.8,8.2-6
		c0.9,0,1.7,0.1,2.6,0.1c10.7-0.1,21.4-0.1,32.1-0.2c5.8-0.1,11.5-0.5,17.3-0.3c4.4,0.1,8.9,0.7,10.8,5.7c0,1.2,0,2.4,0,3.7
		c-0.3,0.9-0.5,1.9-0.8,2.8c-2.1,7.1-5.8,13.3-9.8,19.5c-7.6,11.9-16.4,23-24.9,34.2c-4.1,5.4-8,11-11.7,16.8
		c-3,4.6-2.4,9.3,0.8,13.7c0.8,1.1,1.8,2.2,2.8,3.2c6.7,6.6,13.6,13.1,20.3,19.8c6.7,6.7,13,13.7,18.2,21.6c2.1,3.2,4,6.4,4.7,10.2
		c0.9,5.3-1,8.9-6.1,10.6c-2,0.6-4.1,0.9-6.1,1c-13.4,0.3-26.7,0.4-40.1,0.7c-0.6,0-1.2,0.2-1.8,0.3c-1.2,0-2.4,0-3.7,0
		c-0.2-0.1-0.4-0.2-0.5-0.2c-6.1-1.1-11.8-3.3-16.4-7.4c-5.1-4.5-9.8-9.5-14.5-14.4c-3.3-3.4-6.2-7.2-9.5-10.6
		c-2.6-2.8-5.5-5.3-9.1-6.8c-3-1.3-5.7-0.9-8.2,1.3c-3.6,3.2-5.5,7.2-6.7,11.8c-1.2,4.9-1.4,10-1.5,15c-0.1,5.6-2.7,8.8-8,10
		c-1.1,0.3-2.3,0.4-3.5,0.4c-6.7,0.1-13.4,0-20,0.1c-5.9,0.1-11.7-0.7-17.4-2c-11.8-2.7-22.4-8.1-32.5-14.7
		c-10.4-6.8-19.9-14.6-27.7-24.3c-17.5-21.6-32.6-44.7-45.4-69.4C103.5,20.2,96,5.6,90.3-9.8z"/>
</g>
</svg>
